<?xml version="1.0" encoding="utf-8"?>
<!-- Generator: Adobe Illustrator 16.0.0, SVG Export Plug-In . SVG Version: 6.00 Build 0)  -->
<!DOCTYPE svg PUBLIC "-//W3C//DTD SVG 1.1//EN" "http://www.w3.org/Graphics/SVG/1.1/DTD/svg11.dtd">
<svg version="1.1" id="Layer_1" xmlns="http://www.w3.org/2000/svg" xmlns:xlink="http://www.w3.org/1999/xlink" x="0px" y="0px"
	 width="487.25px" height="480px" viewBox="0 0 487.25 480" enable-background="new 0 0 487.25 480" xml:space="preserve">
<g id="Layer_1_1_">
</g>
<g id="shading">
</g>
<g id="lines">
	<g opacity="0.8">
		<g>
			<path fill="#CAEAE4" d="M40.635,441.756c0,0-11-14.711,17.253-32.512c28.255-17.805,7.805-33.479,3.6-37.957
				c-4.21-4.473-5.718-5.492-5.718-5.492l-2.449,15.99l-5.759,10.604l-6.331,10.092l-5.545,11.478l-2.685,8.568l2.462,7.711
				L40.635,441.756z"/>
			<path fill="#CAEAE4" d="M46.182,360.594c0,0,2.234-16.867-6.793-10.234c-9.025,6.629-8.96,8.75-8.96,8.75l7.241,1.023
				L46.182,360.594z"/>
			<polygon fill="#CAEAE4" points="109.236,241.611 113.094,229.297 118.515,213.929 132.484,200.078 148,188.309 162.26,183.648 
				173.706,183.313 185.966,185.433 189.088,190.646 182.131,192.618 167.332,197.824 146.19,212.768 			"/>
			<path fill="#CAEAE4" d="M62.439,292.145l-1.122-17.83l0.524-12.573l3.668-6.649c0,0-10.658-44.612-33.986-75.235
				c0,0,3.29,4.679,16.24,57.535c12.951,52.857,5.876,22.114,5.876,22.114l2.937,22.553l4.018,10.139L62.439,292.145z"/>
			<polygon fill="#E1F6F3" stroke="#B7E4DC" stroke-miterlimit="10" points="39.254,324.122 62.518,294.617 55.31,277.143 
				49.675,285.794 38.359,313.359 			"/>
			<path fill="#E1F6F3" stroke="#B7E4DC" stroke-miterlimit="10" d="M62.439,292.145c0,0,34.322-44.168,36.923-53.362
				c0.084-0.296,0.136-0.559,0.15-0.776c0.516-7.091-36.131,25.814-38.106,27.462L62.439,292.145z"/>
			<path fill="#E1F6F3" stroke="#B7E4DC" stroke-miterlimit="10" d="M34.48,342.479c0,0,15.829-7.713,18.659-5.85
				c2.831,1.861,32.678,5.059,32.678,5.059s29.651-14.48,40.614-24.174c10.961-9.695,25.275-24.261,25.275-24.261
				s14.977-28.733,12.867-60.153l5.055-9.52l-11.579,1.93l-37.919,15.961l-19.877,8.186l-10.959,15.527L65.08,299.672
				l-19.996,27.641L34.48,342.479z"/>
			<path fill="#E1F6F3" stroke="#B7E4DC" stroke-miterlimit="10" d="M45.995,234.083c0,0-16.11-88.314-21.228-121.413
				c-5.119-33.101-7.913-22.232-7.913-22.232s3.044,14.415-2.146,19.695c-5.188,5.28-14.314,14.565-15.433,20.081
				c-1.115,5.515,1.293,34.802,0.97,36.228c-0.325,1.424,7.386,23.129,14.468,30.882C21.796,205.076,45.995,234.083,45.995,234.083z
				"/>
			<path fill="#E1F6F3" stroke="#B7E4DC" stroke-miterlimit="10" d="M1.308,410.628c0,0-30.938-2.945-52.64-30.233
				c0,0,25.43-7.287,36.574-0.711c11.141,6.571,7.479,10.012,8.518,13.765c1.035,3.753-1.977,10.296,4.438,13.985
				C4.609,411.121,1.308,410.628,1.308,410.628z"/>
			<path fill="#E1F6F3" stroke="#B7E4DC" stroke-miterlimit="10" d="M170.298,140.084c0,0-15.192-65.173-33.9-101.591
				c0,0,16.015-25.05,24.235-27.942c8.222-2.894,15.348,0.436,15.348,0.436l7.83-3.588l-5.266,8.643c0,0,1.613,21.707,2.453,24.865
				c0.84,3.159,13.742,42.93,13.742,42.93s0.074,31.303-9.77,41.317C175.131,135.166,170.298,140.084,170.298,140.084z"/>
			<path fill="none" stroke="#B7E4DC" stroke-width="3" stroke-linecap="round" stroke-linejoin="round" stroke-miterlimit="10" d="
				M44.823,360.516c-2.999-1.328-19.958-0.121-19.958-0.121c7.339-1.633,12.259-9.56,12.259-9.56
				c4.712-14.521,9.799-9.479,9.799-9.479c6.974,6.463,13.085,26.031,5.315,43.232c-18.744,30.26-16.267,30.66-18.773,37.102
				c-2.503,6.438,16.309,32.538,20.383,36.661c4.071,4.128,3.162,14.296,3.162,14.296s3.207-7.642,8.471-12.512
				s26.652-13.981,32.824-36.803c6.17-22.815,1.408-48.614-2.679-53.215c-4.089-4.596-27.52-5.564-39.349-5.689"/>
			<path fill="none" stroke="#B7E4DC" stroke-width="3" stroke-linecap="round" stroke-linejoin="round" stroke-miterlimit="10" d="
				M40.771,403.552c0,0,6.424-38.151,5.824-49.218"/>
			<path fill="none" stroke="#B7E4DC" stroke-width="3" stroke-linecap="round" stroke-linejoin="round" stroke-miterlimit="10" d="
				M62.475,293.201c0,0-2.725-27.508,0.047-33.249c2.775-5.739,27-28.198,27.209-62.341c0.207-34.14-22.619-66.368-32.164-75.994
				c-9.542-9.627-29.859-15.225-33.158-20.257c-3.303-5.032-6.638-11.126-6.638-11.126s1.188,14.115-1.272,18.077
				c-2.459,3.964-15,10.519-15.938,21.689c-0.938,11.168-6.302,34.14,4.831,53.092c11.134,18.953,26.484,36.899,36.769,46.503
				c10.282,9.604,14.002,45.222,14.685,49.267C57.525,282.914,59.496,292.583,62.475,293.201z"/>
			<path fill="none" stroke="#B7E4DC" stroke-width="3" stroke-linecap="round" stroke-linejoin="round" stroke-miterlimit="10" d="
				M101.955,245.007c0,0,3.197,1.853,14.541-7.498c11.34-9.351,42.77-37.68,58.129-42.727c15.357-5.048,31.802-4.994,35.539-3.688
				c3.736,1.307,17.095,8.875,18.751,14.484c0,0-88.29,23.799-104.968,33.836c-16.68,10.037-25.293,12.234-23.939,8.302
				C101.361,243.785,101.955,245.007,101.955,245.007z"/>
			<path fill="none" stroke="#B7E4DC" stroke-width="3" stroke-linecap="round" stroke-linejoin="round" stroke-miterlimit="10" d="
				M105.098,245.094c0,0,8.063-7.84,8.051-14.031c-0.011-6.189,3.299-18.313,11.597-24.567c8.3-6.256,21.317-20.96,34.765-22.237
				c13.445-1.276,22.686-1.191,26.838,1.516c4.148,2.71,2.024,5.602,2.024,5.602"/>
			<path fill="none" stroke="#B7E4DC" stroke-width="3" stroke-linecap="round" stroke-linejoin="round" stroke-miterlimit="10" d="
				M112.555,212.331c0,0,4.762-12.872-0.475-20.677c-5.236-7.807-13.037-26.502-12.794-42.073
				c0.244-15.569,17.395-74.61,16.698-90.685c-0.696-16.073,10.722-34.623,13.049-36.991c2.327-2.366,14.484-9.265,14.484-9.265
				s-6.609,7.091-7.269,9.586c-0.661,2.495-2.135,8.375,0.517,16.256c2.652,7.881,27.096,73.49,27.924,76.295
				c0.828,2.807,11.102,29.566-2.654,50.129c-13.756,20.563-23.398,25.266-25.367,27.27c-1.969,2.002-17.672,13.603-18.646,17.876
				l5.424-15.369L112.555,212.331z"/>
			<path fill="none" stroke="#B7E4DC" stroke-width="3" stroke-linecap="round" stroke-linejoin="round" stroke-miterlimit="10" d="
				M168.508,141.902c0,0,15.492-12.478,20.691-23.24c5.2-10.764,7.725-30.114,4.77-35.865c-2.953-5.75-13.709-36.033-13.374-42.94
				c0.335-6.905-4.624-23.387-0.463-26.161c4.161-2.774,4.396-7.025,4.396-7.025l-7.998,4.125c0,0-12.037-0.889-15.695,0.279
				c-3.657,1.168-23.712,21.209-24.068,27.408"/>
			<path fill="none" stroke="#B7E4DC" stroke-width="3" stroke-linecap="round" stroke-linejoin="round" stroke-miterlimit="10" d="
				M118.738,209.324c0,0-15.174,34.044-15.891,34.773"/>
			<path fill="none" stroke="#B7E4DC" stroke-width="3" stroke-linecap="round" stroke-linejoin="round" stroke-miterlimit="10" d="
				M99.885,249.667l-14.83,21.653c0,0-17.108,25.436-20.153,28.533c-3.041,3.095-19.933,40.084-19.933,40.084"/>
			<path fill="none" stroke="#B7E4DC" stroke-width="3" stroke-linecap="round" stroke-linejoin="round" stroke-miterlimit="10" d="
				M112.555,212.331l-15.781,32.474l-34.299,48.396c0,0-38.256,62.374-40.915,65.811"/>
			<path fill="none" stroke="#B7E4DC" stroke-width="3" stroke-linecap="round" stroke-linejoin="round" stroke-miterlimit="10" d="
				M9.697,410.746"/>
			<path fill="none" stroke="#B7E4DC" stroke-width="3" stroke-linecap="round" stroke-linejoin="round" stroke-miterlimit="10" d="
				M30.664,360.689"/>
			<path fill="none" stroke="#B7E4DC" stroke-width="3" stroke-linecap="round" stroke-linejoin="round" stroke-miterlimit="10" d="
				M168.88,223.248c0,0-4.263,5.431-4.126,9.668c0.133,4.244,2.578,40.428-18.044,65.789c-20.624,25.361-56.141,41.43-61.274,42.643
				c-5.134,1.209-29.545-5.328-34.131-4.313c-4.588,1.021-13.589,2.518-16.432,6.139"/>
			<path fill="none" stroke="#B7E4DC" stroke-width="3" stroke-linecap="round" stroke-linejoin="round" stroke-miterlimit="10" d="
				M38.383,325.74c0,0-5.898-16.984,17.421-50.561"/>
			<path fill="none" stroke="#B7E4DC" stroke-width="3" stroke-linecap="round" stroke-linejoin="round" stroke-miterlimit="10" d="
				M61.629,266.699c0,0,20.267-24.996,38.23-29.412"/>
			<path fill="none" stroke="#B7E4DC" stroke-width="3" stroke-linecap="round" stroke-linejoin="round" stroke-miterlimit="10" d="
				M7.482,411.647c-35.795,0.002-59.363-30.663-59.363-30.663"/>
			<path fill="none" stroke="#B7E4DC" stroke-width="3" stroke-linecap="round" stroke-linejoin="round" stroke-miterlimit="10" d="
				M-59.041,382.596c0,0,20.865,32.816,66.604,28.813c0,0-9.854-0.253-12.443-6.61c-2.592-6.357,3.566-15.194-7.127-24.03
				c-10.688-8.84-34.721-1.735-41.525-0.033c-6.803,1.709-29.057,11.289-52.575-10.978c-23.514-22.261-54.644-52.743-54.644-52.743
				s-10.914-6.699-14.67-4.932c0,0,12.889-1.581,21.183-1.799c8.294-0.219,19.371,9.273,26.302,9.798
				c6.932,0.526,45.77,18.731,53.026,26.854c7.255,8.125,22.284,31.287,22.284,31.287"/>
			<path fill="none" stroke="#B7E4DC" stroke-width="3" stroke-linecap="round" stroke-linejoin="round" stroke-miterlimit="10" d="
				M8.858,409.968"/>
			<path fill="none" stroke="#B7E4DC" stroke-linecap="round" stroke-linejoin="round" stroke-miterlimit="10" d="M-43.471,378.777
				c8.508-1.197,24.834,8.684,29.066,17.119c4.232,8.432,13.992,15.379,13.992,15.379s-12.568-6.945-22.154-13.601
				c-9.59-6.657-26.951-15.59-28.982-15.632"/>
			<path fill="none" stroke="#B7E4DC" stroke-linecap="round" stroke-linejoin="round" stroke-miterlimit="10" d="M57.452,470.979
				c0,0,0.636-9.037,12.942-17.18c12.303-8.139,24.057-27.761,24.838-32.204c0.783-4.445,3.731-22.036-0.486-32.706
				c-4.219-10.664-9.713-14.925-11.021-15.418c-1.309-0.492-20.908-6.818-26.613-6.123"/>
			<path fill="none" stroke="#B7E4DC" stroke-linecap="round" stroke-linejoin="round" stroke-miterlimit="10" d="M96.561,405.285
				c0,0-11.135-30.626-39.975-37.035"/>
			<path fill="none" stroke="#B7E4DC" stroke-linecap="round" stroke-linejoin="round" stroke-miterlimit="10" d="M92.514,429.103
				c0,0,4.238-17.813-12.835-31.813"/>
			<path fill="none" stroke="#B7E4DC" stroke-linecap="round" stroke-linejoin="round" stroke-miterlimit="10" d="M54.672,372.021
				c0,0,43.063,23.679,27.745,70.639"/>
			<path fill="none" stroke="#B7E4DC" stroke-linecap="round" stroke-linejoin="round" stroke-miterlimit="10" d="M54.384,380.338
				c0,0,4.624,23.389,4.346,32.063c-0.278,8.676,2.559,51.393-1.133,57.338c0,0,5.133-12.886,11.989-23.872
				c6.855-10.99,6.986-24.256,5.801-26.7c-1.186-2.441-17.79-24.948-18.596-27.047"/>
			<path fill="none" stroke="#B7E4DC" stroke-linecap="round" stroke-linejoin="round" stroke-miterlimit="10" d="M57.597,469.738
				c0,0-3.919-24.471-10.229-37.021c-6.312-12.55-1.941-31.954-0.32-39.076"/>
			<path fill="none" stroke="#B7E4DC" stroke-linecap="round" stroke-linejoin="round" stroke-miterlimit="10" d="M35.871,341.674
				c0,0,104.982-87.601,131.093-118.546"/>
			<path fill="none" stroke="#B7E4DC" stroke-linecap="round" stroke-linejoin="round" stroke-miterlimit="10" d="M163.344,248.701
				c-0.678,1.906,2.203,7.244-15.283,34.521c-17.484,27.272-45.215,38.221-54.194,42.491s-56.066,14.726-56.066,14.726
				s55.078-34.148,64.452-37.607c9.375-3.455,50.715-24.115,62.589-65.14"/>
			<path fill="none" stroke="#B7E4DC" stroke-linecap="round" stroke-linejoin="round" stroke-miterlimit="10" d="M38.891,339.816
				c0,0,33.268-15.119,53.969-22.563c20.699-7.44,47.141-28.019,48.893-31.019c1.754-3,25.278-37.877,23.313-49.257"/>
			<path fill="none" stroke="#B7E4DC" stroke-linecap="round" stroke-linejoin="round" stroke-miterlimit="10" d="M66.212,315.91
				c0,0,72.217-21.914,98.813-91.782"/>
			<path fill="none" stroke="#B7E4DC" stroke-linecap="round" stroke-linejoin="round" stroke-miterlimit="10" d="M47.703,314.798
				c0,0,5.695-18.444,10.57-27.78"/>
			<path fill="none" stroke="#B7E4DC" stroke-linecap="round" stroke-linejoin="round" stroke-miterlimit="10" d="M61.383,280.205
				c0,0,19.662-28.518,34.561-36.38"/>
			<path fill="none" stroke="#B7E4DC" stroke-linecap="round" stroke-linejoin="round" stroke-miterlimit="10" d="M89.949,295.408
				c0,0,8.761-41.993,64.617-67.205"/>
			<path fill="none" stroke="#B7E4DC" stroke-linecap="round" stroke-linejoin="round" stroke-miterlimit="10" d="M70.656,312.359
				c0,0,6.254-39.683,39.793-65.537"/>
			<path fill="none" stroke="#B7E4DC" stroke-linecap="round" stroke-linejoin="round" stroke-miterlimit="10" d="M47.492,238.64
				c0,0-13.17-53.972-12.56-61.889c0.61-7.917-10.862-78.208-17.868-85.433"/>
			<path fill="none" stroke="#B7E4DC" stroke-linecap="round" stroke-linejoin="round" stroke-miterlimit="10" d="M35.77,187.574
				c0,0-24.369-34.309-21.518-53.02c2.855-18.715,8.803-29.144,3.894-40.202"/>
			<path fill="none" stroke="#B7E4DC" stroke-linecap="round" stroke-linejoin="round" stroke-miterlimit="10" d="M34.986,186.18
				c0,0-23.151-15.357-26.361-38.847c-3.211-23.489,2.016-29.534,4.341-33.848"/>
			<path fill="none" stroke="#B7E4DC" stroke-linecap="round" stroke-linejoin="round" stroke-miterlimit="10" d="M34.791,176.167
				c0,0,18.803-24.485,11.619-41.253c-7.185-16.77-13.605-17.29-16.5-23.101c-2.895-5.812-9.221-14.94-9.221-14.94"/>
			<path fill="none" stroke="#B7E4DC" stroke-linecap="round" stroke-linejoin="round" stroke-miterlimit="10" d="M55.805,263.747
				c0,0-0.783-13.065,12.076-38.554c12.861-25.49,14.158-69.86-6.422-93.431c-20.578-23.571-28.216-23.584-28.216-23.584"/>
			<path fill="none" stroke="#B7E4DC" stroke-linecap="round" stroke-linejoin="round" stroke-miterlimit="10" d="M49.225,242.715
				c0,0,22.769-39.218,18.738-69.167c-4.033-29.948-3.735-39.979-36.599-66.376"/>
			<path fill="none" stroke="#B7E4DC" stroke-linecap="round" stroke-linejoin="round" stroke-miterlimit="10" d="M43.465,220.361
				c0,0,23.475-51.854,12.076-77.226c-11.398-25.371-35.909-40.807-37.578-46.893"/>
			<path fill="none" stroke="#B7E4DC" stroke-linecap="round" stroke-linejoin="round" stroke-miterlimit="10" d="M46.41,231.715
				c0,0-35.693-53.432-40.126-72.758c-4.431-19.325-2.862-31.869-2.377-36.01"/>
			<path fill="none" stroke="#B7E4DC" stroke-linecap="round" stroke-linejoin="round" stroke-miterlimit="10" d="M38.422,224.521
				c0,0-39.951-43.995-37.846-82.375"/>
			<path fill="none" stroke="#B7E4DC" stroke-linecap="round" stroke-linejoin="round" stroke-miterlimit="10" d="M122.863,196.006
				c0,0,28.856-33.738,32.865-50.95c4.008-17.214,1.299-48.263-0.883-54.801"/>
			<path fill="none" stroke="#B7E4DC" stroke-linecap="round" stroke-linejoin="round" stroke-miterlimit="10" d="M117.831,204.287
				c0,0,15.218-59.748,15.224-75.078c0.004-15.326-8.797-71.313-5.102-82.854c3.697-11.546-5.416-11.517,11.809-31.474"/>
			<path fill="none" stroke="#B7E4DC" stroke-linecap="round" stroke-linejoin="round" stroke-miterlimit="10" d="M120.313,193.25
				c0,0-8.963-30.04-7.611-61.088c1.354-31.051,4.861-56.266,3.594-61.299"/>
			<path fill="none" stroke="#B7E4DC" stroke-linecap="round" stroke-linejoin="round" stroke-miterlimit="10" d="M123.404,182.076
				c0,0,26.328-31.895,30.144-55.232c3.813-23.339-1.976-46.632-2.366-47.211"/>
			<path fill="none" stroke="#B7E4DC" stroke-linecap="round" stroke-linejoin="round" stroke-miterlimit="10" d="M127.28,164.514
				c0,0,20.89-36.334,22.067-45.801c1.177-9.467,1.792-36.604-4.648-57.049"/>
			<path fill="none" stroke="#B7E4DC" stroke-linecap="round" stroke-linejoin="round" stroke-miterlimit="10" d="M131.639,138.92
				c0,0,22.898-23.543,7.699-71.558c0,0-9.7-30.019-4.586-39.601"/>
			<path fill="none" stroke="#B7E4DC" stroke-linecap="round" stroke-linejoin="round" stroke-miterlimit="10" d="M131.299,108.862
				c0,0,0.434-36.681-0.256-50.573c-0.688-13.893-0.84-34.169,5.604-40.723"/>
			<path fill="none" stroke="#B7E4DC" stroke-linecap="round" stroke-linejoin="round" stroke-miterlimit="10" d="M130.73,149.084
				c0,0-10.845-50.499-11.676-68.869c-0.83-18.369,3.997-44.686,6.279-50.41"/>
			<path fill="none" stroke="#B7E4DC" stroke-linecap="round" stroke-linejoin="round" stroke-miterlimit="10" d="M120.694,201.374
				c0,0,50.737-31.19,45.716-80.564c0,0,28.453-23.112,23.662-45.964"/>
			<path fill="none" stroke="#B7E4DC" stroke-linecap="round" stroke-linejoin="round" stroke-miterlimit="10" d="M155.328,86.115
				c0,0,3.633-48.447,26.738-77.063"/>
			<path fill="none" stroke="#B7E4DC" stroke-linecap="round" stroke-linejoin="round" stroke-miterlimit="10" d="M160.617,101.407
				c0,0,18.194-66.911,18.057-86.716"/>
			<path fill="none" stroke="#B7E4DC" stroke-linecap="round" stroke-linejoin="round" stroke-miterlimit="10" d="M147.047,65.842
				c0,0,12.342-45.635,33.977-54.756"/>
			<path fill="none" stroke="#B7E4DC" stroke-linecap="round" stroke-linejoin="round" stroke-miterlimit="10" d="M141.077,48.566
				c0,0,9.161-29.508,33.524-38"/>
			<path fill="none" stroke="#B7E4DC" stroke-linecap="round" stroke-linejoin="round" stroke-miterlimit="10" d="M166.244,119.519
				c0,0,21.594-21.97,13.527-54.866c0,0-2.025-21.047-0.639-27.807"/>
			<path fill="none" stroke="#B7E4DC" stroke-linecap="round" stroke-linejoin="round" stroke-miterlimit="10" d="M169.029,133.468
				c0,0,12.752-5.678,21.064-19.243"/>
			<path fill="none" stroke="#B7E4DC" stroke-linecap="round" stroke-linejoin="round" stroke-miterlimit="10" d="M136.164,234.521
				c0,0,25.382-26.799,47.986-32.527c22.604-5.729,36.734-2.839,42.418,1.594"/>
			<path fill="none" stroke="#B7E4DC" stroke-linecap="round" stroke-linejoin="round" stroke-miterlimit="10" d="M110.377,240.816
				c0,0,28.379-33.252,38.371-40.501c9.992-7.247,30.933-14.934,38.563-11.265"/>
			<path fill="#B7E4DC" stroke="#B7E4DC" stroke-miterlimit="10" d="M100.447,257.637"/>
			<path fill="#B7E4DC" stroke="#B7E4DC" stroke-miterlimit="10" d="M20.123,363.439"/>
			<path fill="#CAEAE4" d="M-8.835,260.471c0,0,19.623,7.03,24.357,10.606c4.731,3.577,6.868,12.713,6.868,12.713l3.283,21.831
				l-3.789,20.275l-1.286,11.885l-0.153,12.562l-4.97-16.835l-4.879-14.005l-2.142-20.805l-1.636-16.577L-8.835,260.471z"/>
			<polygon fill="#CAEAE4" points="239.834,153.741 252.439,149.307 268.135,143.188 281.725,128.998 293.053,113.457 
				297.043,99.545 296.695,88.591 293.739,77.005 288.113,74.339 286.48,81.106 281.953,95.564 267.66,116.674 			"/>
			<path fill="#CAEAE4" d="M189.994,201.533l18.659-0.016l13.077-1.265l6.711-3.91c0,0,47.163,7.467,80.514,27.896
				c0,0-5.077-2.857-60.979-12.018c-55.901-9.158-23.415-4.27-23.415-4.27l-23.694-1.432l-10.817-3.221L189.994,201.533z"/>
			<polygon fill="#E1F6F3" stroke="#B7E4DC" stroke-miterlimit="10" points="158.061,225.631 187.41,201.606 206.07,207.431 
				197.391,213.344 169.336,225.833 			"/>
			<path fill="#E1F6F3" stroke="#B7E4DC" stroke-miterlimit="10" d="M189.994,201.533c0,0,43.963-35.484,53.393-38.53
				c0.304-0.099,0.57-0.163,0.8-0.192c7.36-0.92-24.716,36.095-26.314,38.085L189.994,201.533z"/>
			<path fill="#E1F6F3" stroke="#B7E4DC" stroke-miterlimit="10" d="M139.213,231.311c0,0,7.078-15.594,4.963-18.185
				c-2.113-2.592-7.265-30.915-7.265-30.915s13.296-29.217,22.735-40.279c9.439-11.064,23.756-25.629,23.756-25.629
				s29.049-16.059,61.938-15.957l9.619-5.409l-1.307,11.181l-14.336,37.204l-7.322,19.491l-15.525,11.419l-34.484,25.235
				l-27.605,20.789L139.213,231.311z"/>
			<path fill="#E1F6F3" stroke="#B7E4DC" stroke-miterlimit="10" d="M251.534,213.709c0,0,93.062,10.02,127.887,12.896
				c34.823,2.876,23.66,6.208,23.66,6.208s-15.214-2.033-20.403,3.248c-5.188,5.279-14.315,14.565-20,15.971
				c-5.681,1.401-36.367,0.883-37.832,1.278c-1.465,0.396-24.566-5.65-33.08-11.947C283.25,235.068,251.534,213.709,251.534,213.709
				z"/>
			<path fill="#E1F6F3" stroke="#B7E4DC" stroke-miterlimit="10" d="M341.979,89.216c0,0,68.878,10.548,107.988,26.21
				c0,0,25.146-16.828,27.661-24.859c2.515-8.031,2.122-15.066,2.122-15.066l2-9.75l-8,5.75c0,0-25.67,2.065-29.014,1.455
				c-3.346-0.61-45.599-10.52-45.599-10.52s-32.643,1.836-42.483,11.85C346.813,84.301,341.979,89.216,341.979,89.216z"/>
			<path fill="none" stroke="#B7E4DC" stroke-width="3" stroke-linecap="round" stroke-linejoin="round" stroke-miterlimit="10" d="
				M99.344,254.018"/>
			<path fill="none" stroke="#B7E4DC" stroke-width="3" stroke-linecap="round" stroke-linejoin="round" stroke-miterlimit="10" d="
				M188.888,201.563c0,0,28.849,0.929,34.665-2.072c5.818-2.999,27.761-27.515,63.345-29.79
				c35.585-2.275,70.578,17.572,81.195,26.105c10.619,8.534,17.691,27.605,23.141,30.453c5.448,2.848,12.005,5.662,12.005,5.662
				s-14.789-0.275-18.771,2.318c-3.98,2.592-10.055,14.971-21.644,16.546c-11.588,1.576-35.213,8.104-55.653-1.383
				c-20.438-9.484-40.085-23.063-50.726-32.298c-10.639-9.244-48.002-10.63-52.265-11.035
				C199.917,205.664,189.716,204.369,188.888,201.563z"/>
			<path fill="none" stroke="#B7E4DC" stroke-width="3" stroke-linecap="round" stroke-linejoin="round" stroke-miterlimit="10" d="
				M236.735,160.906c0,0-2.126-2.943,6.935-14.351c9.059-11.407,36.684-43.163,41.012-58.145
				c4.326-14.982,3.272-30.692,1.685-34.184c-1.591-3.491-10.296-15.793-16.246-17.034c0,0-19.438,85.813-28.89,102.357
				c-9.45,16.549-11.216,24.911-7.2,23.38C238.045,161.397,236.735,160.906,236.735,160.906z"/>
			<path fill="none" stroke="#B7E4DC" stroke-width="3" stroke-linecap="round" stroke-linejoin="round" stroke-miterlimit="10" d="
				M236.455,157.907c0,0,7.684-8.183,14.141-8.548c6.453-0.365,18.894-4.266,24.909-12.576c6.017-8.31,20.558-21.645,21.069-34.57
				c0.514-12.927-0.139-21.75-3.213-25.552c-3.078-3.801-5.965-1.595-5.965-1.595"/>
			<path fill="none" stroke="#B7E4DC" stroke-width="3" stroke-linecap="round" stroke-linejoin="round" stroke-miterlimit="10" d="
				M270.159,148.789c0,0,13.132-5.334,21.591-0.806c8.458,4.527,28.426,10.843,44.647,9.662
				c16.22-1.179,76.734-21.161,93.537-21.474c16.804-0.314,35.447-12.354,37.773-14.72c2.327-2.367,8.779-14.405,8.779-14.405
				s-6.988,6.748-9.552,7.529c-2.563,0.783-8.604,2.551-16.98,0.495c-8.379-2.055-78.275-21.415-81.252-22.037
				c-2.978-0.62-31.503-8.808-52.104,5.588c-20.604,14.396-24.919,23.896-26.89,25.897c-1.969,2.004-13.107,17.715-17.503,18.904
				l15.69-6.117L270.159,148.789z"/>
			<path fill="none" stroke="#B7E4DC" stroke-width="3" stroke-linecap="round" stroke-linejoin="round" stroke-miterlimit="10" d="
				M340.189,91.035c0,0,12.066-15.561,22.973-21.184c10.906-5.625,30.93-9.215,37.104-6.742
				c6.176,2.473,38.406,10.906,45.587,10.167c7.184-0.74,23.536,2.001,27.308-1.15c4.339-3.626,9.589-7.376,9.589-7.376L480,75.5
				c0,0,0.637,5.311-2.932,14.905c-3.569,9.594-20.67,23.948-27.112,24.666"/>
			<path fill="none" stroke="#B7E4DC" stroke-width="3" stroke-linecap="round" stroke-linejoin="round" stroke-miterlimit="10" d="
				M272.922,142.694c0,0-34.576,16.573-35.29,17.301"/>
			<path fill="none" stroke="#B7E4DC" stroke-width="3" stroke-linecap="round" stroke-linejoin="round" stroke-miterlimit="10" d="
				M232.006,163.166l-21.678,15.488c0,0-25.48,17.898-28.522,20.994"/>
			<path fill="none" stroke="#B7E4DC" stroke-width="3" stroke-linecap="round" stroke-linejoin="round" stroke-miterlimit="10" d="
				M270.159,148.789l-32.897,17.054l-48.374,35.721c0,0-47.772,27.935-51.196,30.687"/>
			<path fill="none" stroke="#B7E4DC" stroke-width="3" stroke-linecap="round" stroke-linejoin="round" stroke-miterlimit="10" d="
				M20.683,363.602"/>
			<path fill="none" stroke="#B7E4DC" stroke-width="3" stroke-linecap="round" stroke-linejoin="round" stroke-miterlimit="10" d="
				M255.352,95.633c0,0-5.401,4.402-9.832,4.531c-4.43,0.129-42.309-0.004-67.497,21.247
				c-25.188,21.249-39.782,56.162-40.731,61.142c-0.949,4.979,7.354,27.907,6.572,32.35c-0.783,4.445-1.799,13.141-5.4,16.076"/>
			<path fill="none" stroke="#B7E4DC" stroke-width="3" stroke-linecap="round" stroke-linejoin="round" stroke-miterlimit="10" d="
				M156.428,226.564c0,0,18.067,4.602,51.656-19.723"/>
			<path fill="none" stroke="#B7E4DC" stroke-width="3" stroke-linecap="round" stroke-linejoin="round" stroke-miterlimit="10" d="
				M216.574,200.757c0,0,24.83-20.886,28.341-38.321"/>
			<path fill="none" stroke="#B7E4DC" stroke-width="3" stroke-linecap="round" stroke-linejoin="round" stroke-miterlimit="10" d="
				M20.514,364.137"/>
			<path fill="none" stroke="#B7E4DC" stroke-width="3" stroke-linecap="round" stroke-linejoin="round" stroke-miterlimit="10" d="
				M-22.303,249.365c28.994,11.361,38.349,20.814,40.451,23.052c2.105,2.237,7.266,25.079,7.547,33.911
				c0.281,8.837-5.68,24.752-4.963,29.859c0.717,5.106-0.219,27.949-0.219,27.949s-2.42-29.643-7.377-40.285
				c-4.959-10.642-4.494-36.654-7.066-42.064c-2.576-5.404-11.314-24.605-43.041-40.482c-31.729-15.875-25.998-10.031-36.202-11.326
				c-10.202-1.291-21.646,4.879-22.898,6.152c-1.255,1.275-24.774,22.653-30.612,24.945c0,0,15.58-9.65,31.23-11.346
				c15.648-1.693,40.561-8.435,60.127-3.168c19.565,5.266,24.758,17.494,26.146,20.461c1.388,2.967,17.379,35.218,17.379,35.218"/>
			<path fill="none" stroke="#B7E4DC" stroke-linecap="round" stroke-linejoin="round" stroke-miterlimit="10" d="M20.109,345.579
				c0,0,2.605-69.05-18.217-84.714"/>
			<path fill="none" stroke="#B7E4DC" stroke-linecap="round" stroke-linejoin="round" stroke-miterlimit="10" d="M139.967,229.934
				c0,0,84.949-105.645,115.625-132.479"/>
			<path fill="none" stroke="#B7E4DC" stroke-linecap="round" stroke-linejoin="round" stroke-miterlimit="10" d="M229.148,102.472
				c-1.945,0.765-7.689-1.663-35.063,16.704c-27.374,18.365-37.102,45.53-41.009,54.37c-3.907,8.841-11.938,54.467-11.938,54.467
				s32.252-54.705,35.286-63.872c3.034-9.168,22.06-49.929,64.111-63.77"/>
			<path fill="none" stroke="#B7E4DC" stroke-linecap="round" stroke-linejoin="round" stroke-miterlimit="10" d="M141.72,226.934
				c0,0,13.739-32.705,20.239-52.939c6.499-20.234,26.347-46.751,29.367-48.608c3.021-1.856,37.955-26.456,49.94-25.272"/>
			<path fill="none" stroke="#B7E4DC" stroke-linecap="round" stroke-linejoin="round" stroke-miterlimit="10" d="M164.982,199.373
				c0,0,18.454-70.338,89.686-100.005"/>
			<path fill="none" stroke="#B7E4DC" stroke-linecap="round" stroke-linejoin="round" stroke-miterlimit="10" d="M167.271,216.99
				c0,0,18.882-6.563,28.321-11.791"/>
			<path fill="none" stroke="#B7E4DC" stroke-linecap="round" stroke-linejoin="round" stroke-miterlimit="10" d="M202.507,201.814
				c0,0,28.536-20.523,35.827-35.238"/>
			<path fill="none" stroke="#B7E4DC" stroke-linecap="round" stroke-linejoin="round" stroke-miterlimit="10" d="M184.916,175.445
				c0,0,43.253-10.93,66.139-65.834"/>
			<path fill="none" stroke="#B7E4DC" stroke-linecap="round" stroke-linejoin="round" stroke-miterlimit="10" d="M168.416,194.908
				c0,0,40.992-8.389,65.912-42.009"/>
			<path fill="none" stroke="#B7E4DC" stroke-linecap="round" stroke-linejoin="round" stroke-miterlimit="10" d="M246.691,212.555
				c0,0,57.074,9.303,65.293,8.236c8.219-1.065,82.207,5.62,90.166,11.873"/>
			<path fill="none" stroke="#B7E4DC" stroke-linecap="round" stroke-linejoin="round" stroke-miterlimit="10" d="M300.648,220.648
				c0,0,37.255,21.2,56.594,17.335c19.336-3.866,29.851-10.185,41.68-6.168"/>
			<path fill="none" stroke="#B7E4DC" stroke-linecap="round" stroke-linejoin="round" stroke-miterlimit="10" d="M302.148,221.314
				c0,0,17.424,21.185,42.11,22.825c24.686,1.639,30.672-3.726,35.027-6.209"/>
			<path fill="none" stroke="#B7E4DC" stroke-linecap="round" stroke-linejoin="round" stroke-miterlimit="10" d="M312.604,220.892
				c0,0,24.385-19.459,42.307-13.614c17.923,5.844,18.854,11.948,25.091,14.36c6.234,2.411,16.139,7.899,16.139,7.899"/>
			<path fill="none" stroke="#B7E4DC" stroke-linecap="round" stroke-linejoin="round" stroke-miterlimit="10" d="M220.007,206.141
				c0,0,13.67-0.045,39.464-13.885c25.793-13.84,71.979-17.779,97.811,0.449c25.827,18.23,26.307,25.526,26.307,25.526"/>
			<path fill="none" stroke="#B7E4DC" stroke-linecap="round" stroke-linejoin="round" stroke-miterlimit="10" d="M242.336,211.15
				c0,0,39.508-24.145,70.979-22.113c31.472,2.027,41.912,1.135,71.436,30.93"/>
			<path fill="none" stroke="#B7E4DC" stroke-linecap="round" stroke-linejoin="round" stroke-miterlimit="10" d="M265.994,215.293
				c0,0,52.639-25.588,79.785-16.238c27.146,9.348,44.735,31.825,51.18,33.054"/>
			<path fill="none" stroke="#B7E4DC" stroke-linecap="round" stroke-linejoin="round" stroke-miterlimit="10" d="M253.979,213.168
				c0,0,57.886,30.854,78.304,33.914c20.42,3.059,33.403,0.793,37.692,0.08"/>
			<path fill="none" stroke="#B7E4DC" stroke-linecap="round" stroke-linejoin="round" stroke-miterlimit="10" d="M261.965,220.363
				c0,0,48.305,35.497,88.195,31.148"/>
			<path fill="none" stroke="#B7E4DC" stroke-linecap="round" stroke-linejoin="round" stroke-miterlimit="10" d="M286.557,137.944
				c0,0,33.42-29.625,51.123-34.505c17.705-4.878,50.243-4.177,57.193-2.492"/>
			<path fill="none" stroke="#B7E4DC" stroke-linecap="round" stroke-linejoin="round" stroke-miterlimit="10" d="M278.229,143.258
				c0,0,61.372-18.179,77.354-19.116c15.982-0.938,74.891,4.063,86.703-0.171c11.813-4.235,12.336,4.474,32.098-13.198"/>
			<path fill="none" stroke="#B7E4DC" stroke-linecap="round" stroke-linejoin="round" stroke-miterlimit="10" d="M289.584,140.215
				c0,0,31.868,6.733,64.158,3.553c32.292-3.183,58.371-8.07,63.695-7.164"/>
			<path fill="none" stroke="#B7E4DC" stroke-linecap="round" stroke-linejoin="round" stroke-miterlimit="10" d="M301.046,136.579
				c0,0,31.653-27.099,55.757-32.165c24.104-5.065,48.742-0.947,49.369-0.613"/>
			<path fill="none" stroke="#B7E4DC" stroke-linecap="round" stroke-linejoin="round" stroke-miterlimit="10" d="M319.123,131.807
				c0,0,36.613-22.174,46.412-23.873c9.799-1.7,38.057-3.939,59.767,0.969"/>
			<path fill="none" stroke="#B7E4DC" stroke-linecap="round" stroke-linejoin="round" stroke-miterlimit="10" d="M345.545,126.084
				c0,0,23.153-23.313,74.144-11.712c0,0,31.89,7.441,41.567,1.97"/>
			<path fill="none" stroke="#B7E4DC" stroke-linecap="round" stroke-linejoin="round" stroke-miterlimit="10" d="M376.904,124.58
				c0,0,38.221-2.646,52.748-2.835c14.526-0.189,35.678-1.276,42.118-7.831"/>
			<path fill="none" stroke="#B7E4DC" stroke-linecap="round" stroke-linejoin="round" stroke-miterlimit="10" d="M335,127.57
				c0,0,53.314,7.288,72.52,6.965c19.203-0.325,46.35-6.539,52.18-9.068"/>
			<path fill="none" stroke="#B7E4DC" stroke-linecap="round" stroke-linejoin="round" stroke-miterlimit="10" d="M281.091,140.345
				c0,0,29.435-50.38,81.22-48.589c0,0,22.367-28.594,46.485-25.406"/>
			<path fill="none" stroke="#B7E4DC" stroke-linecap="round" stroke-linejoin="round" stroke-miterlimit="10" d="M399.16,100.234
				c0,0,50.293-6.42,78.725-30.24"/>
			<path fill="none" stroke="#B7E4DC" stroke-linecap="round" stroke-linejoin="round" stroke-miterlimit="10" d="M382.894,96.109
				c0,0,68.659-21.456,89.317-22.53"/>
			<path fill="none" stroke="#B7E4DC" stroke-linecap="round" stroke-linejoin="round" stroke-miterlimit="10" d="M420.803,106.913
				c0,0,51.756-17.938,59.947-39.163"/>
			<path fill="none" stroke="#B7E4DC" stroke-linecap="round" stroke-linejoin="round" stroke-miterlimit="10" d="M439.179,111.565
				c0,0,33.199-15.019,40.571-38.815"/>
			<path fill="none" stroke="#B7E4DC" stroke-linecap="round" stroke-linejoin="round" stroke-miterlimit="10" d="M363.666,91.836
				c0,0,21.594-21.969,56.386-16.264c0,0,22.067,0.654,29.032-1.082"/>
			<path fill="none" stroke="#B7E4DC" stroke-linecap="round" stroke-linejoin="round" stroke-miterlimit="10" d="M348.951,90.025
				c0,0,5.146-12.531,18.783-21.299"/>
			<path fill="none" stroke="#B7E4DC" stroke-linecap="round" stroke-linejoin="round" stroke-miterlimit="10" d="M245.588,127.578
				c0,0,26.395-25.883,30.992-47.829c4.598-21.948,0.727-35.275-4.242-40.437"/>
			<path fill="none" stroke="#B7E4DC" stroke-linecap="round" stroke-linejoin="round" stroke-miterlimit="10" d="M240.595,152.604
				c0,0,32.944-29.142,39.891-39.131c6.949-9.988,13.689-30.465,9.398-37.531"/>
			<path fill="none" stroke="#B7E4DC" stroke-width="3" stroke-linecap="round" stroke-linejoin="round" stroke-miterlimit="10" d="
				M22.09,361.544"/>
			<path fill="none" stroke="#B7E4DC" stroke-width="3" stroke-linecap="round" stroke-linejoin="round" stroke-miterlimit="10" d="
				M183.529,198.018"/>
		</g>
		<path fill="none" stroke="#B7E4DC" stroke-width="3" stroke-linecap="round" stroke-linejoin="round" stroke-miterlimit="10" d="
			M34.23,354.719"/>
		<path fill="none" stroke="#B7E4DC" stroke-width="3" stroke-linecap="round" stroke-linejoin="round" stroke-miterlimit="10" d="
			M13.365,412.907"/>
		<path fill="#E1F6F3" stroke="#B7E4DC" stroke-width="3" stroke-miterlimit="10" d="M19.986,360.525
			c0,0-18.178,41.765-18.449,47.561c-0.269,5.793,2.874,12.859,2.874,12.859s19.347-54.424,27.261-60.971L19.986,360.525z"/>
	</g>
</g>
</svg>
