<?xml version="1.0" encoding="utf-8"?>
<!-- Generator: Adobe Illustrator 16.0.0, SVG Export Plug-In . SVG Version: 6.00 Build 0)  -->
<!DOCTYPE svg PUBLIC "-//W3C//DTD SVG 1.1//EN" "http://www.w3.org/Graphics/SVG/1.1/DTD/svg11.dtd">
<svg version="1.1" id="Layer_1" xmlns="http://www.w3.org/2000/svg" xmlns:xlink="http://www.w3.org/1999/xlink" x="0px" y="0px"
	 width="390px" height="468px" viewBox="0 0 390 468" enable-background="new 0 0 390 468" xml:space="preserve">
<g>
	<path fill="#B7E4DC" d="M38.956,243.623c1.176,0,2.191-0.65,2.738-1.605h41.318l-26.514,6.364
		c-0.578-0.618-1.396-1.012-2.309-1.012c-1.748,0-3.17,1.42-3.17,3.168s1.422,3.169,3.17,3.169c1.486,0,2.727-1.03,3.068-2.415
		l37.439-8.985l43.127,23.583c-0.91,2.554-1.814,5.347-2.693,8.422c-0.203,0.702,0.012,1.192,0.23,1.481
		c0.211,0.28,0.518,0.478,0.855,0.563h-0.002c9.049,2.225,16.977,3.359,23.578,3.383l20.914,38.233
		c1.91,4.204,2.348,8.896,1.193,13.439c-1.342,5.282-4.66,9.727-9.346,12.514c-6.553,3.9-15.061,1.738-18.961-4.817
		c-1.262-2.119-1.623-4.604-1.016-6.995c0.607-2.388,2.107-4.399,4.23-5.66c2.846-1.694,6.545-0.757,8.242,2.094
		c0.637,1.07,0.668,2.331,0.211,3.398c-0.322-0.11-0.664-0.184-1.021-0.184c-1.748,0-3.17,1.422-3.17,3.168
		c0,1.749,1.422,3.172,3.17,3.172c1.746,0,3.168-1.423,3.168-3.172c0-0.195-0.023-0.389-0.059-0.576
		c1.48-2.114,1.686-4.985,0.285-7.346c-2.543-4.271-8.092-5.681-12.363-3.139c-2.811,1.67-4.803,4.336-5.607,7.505
		s-0.328,6.461,1.346,9.269c3.146,5.291,8.754,8.229,14.504,8.229c2.924,0,5.887-0.762,8.578-2.362
		c5.375-3.196,9.184-8.297,10.723-14.358c0.453-1.785,0.67-3.587,0.701-5.384l8.238,15.063c0.266,0.483,0.77,0.781,1.318,0.781
		c0.551,0,1.057-0.298,1.32-0.781l8.105-14.822c0.219,7.76,4.258,15.25,11.406,19.502c2.641,1.572,5.59,2.374,8.58,2.374
		c1.393,0,2.795-0.173,4.178-0.526c4.359-1.106,8.027-3.848,10.326-7.711c1.672-2.812,2.148-6.104,1.346-9.272
		c-0.805-3.169-2.795-5.832-5.605-7.505c-2.07-1.231-4.496-1.583-6.834-0.991c-2.334,0.594-4.299,2.06-5.529,4.132
		c-1.402,2.358-1.197,5.231,0.285,7.346c-0.037,0.186-0.059,0.379-0.059,0.574c0,1.749,1.42,3.172,3.168,3.172
		c1.746,0,3.166-1.423,3.166-3.172c0-1.746-1.42-3.168-3.166-3.168c-0.359,0-0.699,0.073-1.023,0.186
		c-0.455-1.069-0.424-2.33,0.213-3.4c0.82-1.382,2.129-2.359,3.686-2.754c1.559-0.397,3.176-0.162,4.559,0.66
		c2.117,1.261,3.619,3.272,4.225,5.66c0.607,2.391,0.246,4.876-1.014,6.995c-1.889,3.174-4.902,5.425-8.482,6.336
		c-3.582,0.909-7.305,0.37-10.48-1.519c-8.678-5.161-12.111-15.791-8.574-24.908l21.787-39.84c6.721-0.05,14.699-1.248,23.744-3.583
		c0.766-0.201,1.061-0.714,1.168-1.001c0.115-0.31,0.123-0.653,0.029-0.968c-0.877-2.938-1.766-5.618-2.656-8.076l42.459-23.218
		l37.344,8.961c0.342,1.385,1.58,2.415,3.068,2.415c1.746,0,3.166-1.421,3.166-3.169s-1.42-3.168-3.166-3.168
		c-0.912,0-1.73,0.394-2.311,1.012l-26.514-6.364h41.318c0.547,0.955,1.564,1.605,2.74,1.605c1.746,0,3.166-1.421,3.166-3.172
		c0-1.745-1.42-3.166-3.166-3.166c-1.227,0-2.281,0.707-2.807,1.726h-42.922l27.906-6.696c0.574,0.813,1.516,1.349,2.586,1.349
		c1.746,0,3.168-1.422,3.168-3.172c0-1.745-1.422-3.166-3.168-3.166c-1.328,0-2.465,0.821-2.936,1.982l-37.738,9.056l-42.508-23.249
		c0.842-2.411,1.676-5.031,2.494-7.889c0.201-0.7-0.014-1.19-0.232-1.479c-0.209-0.282-0.518-0.479-0.855-0.563l0,0
		c-8.943-2.198-16.773-3.333-23.305-3.388l-3.357-6.144c-3.881-9.295-4.158-19.556-0.746-29.107
		c1.555-4.348,3.797-8.324,6.615-11.815l0.09,0.068c0.209-0.279,0.377-0.574,0.572-0.857c3.66-4.301,8.217-7.823,13.475-10.312
		c15.951-7.557,35.078-0.72,42.633,15.235c2.896,6.109,3.236,12.98,0.963,19.349c-2.273,6.366-6.893,11.467-13.002,14.358
		c-4.814,2.28-10.234,2.549-15.25,0.756c-5.018-1.792-9.037-5.432-11.316-10.249c-3.695-7.801-0.355-17.155,7.447-20.851
		c6.092-2.885,13.398-0.277,16.283,5.814c1.084,2.287,1.211,4.862,0.359,7.249c-0.557,1.557-1.494,2.905-2.711,3.961
		c-0.502-0.338-1.107-0.538-1.76-0.538c-1.748,0-3.168,1.424-3.168,3.168c0,1.748,1.42,3.172,3.168,3.172
		c1.711,0,3.098-1.365,3.156-3.061c1.885-1.445,3.326-3.399,4.146-5.689c1.123-3.144,0.953-6.532-0.475-9.549
		c-3.594-7.59-12.691-10.837-20.287-7.244c-9.301,4.403-13.283,15.555-8.879,24.854c2.625,5.541,7.248,9.73,13.023,11.795
		c5.773,2.063,12.006,1.753,17.549-0.871c6.836-3.234,12.002-8.94,14.545-16.065c2.545-7.123,2.162-14.811-1.074-21.647
		c-8.266-17.454-29.189-24.928-46.641-16.665c-3.133,1.484-6.035,3.313-8.67,5.432c2.664-9.798-0.705-20.679-9.336-27.092
		c-8.072-5.995-19.518-4.306-25.514,3.766c-4.346,5.85-3.121,14.146,2.727,18.489c2.082,1.547,4.646,2.19,7.203,1.812
		c2.564-0.378,4.828-1.733,6.373-3.815c1.885-2.538,1.852-5.913,0.168-8.392c0.074-0.271,0.127-0.549,0.127-0.844
		c0-1.746-1.422-3.168-3.17-3.168s-3.168,1.422-3.168,3.168c0,1.747,1.42,3.17,3.168,3.17c0.293,0,0.57-0.053,0.84-0.127
		c0.682,1.381,0.602,3.081-0.377,4.4c-2.203,2.964-6.402,3.586-9.371,1.384c-4.518-3.356-5.463-9.765-2.105-14.285
		c5.006-6.739,14.564-8.15,21.307-3.146c9.617,7.146,11.832,20.578,5.234,30.429c-3.318,3.928-5.947,8.454-7.73,13.441
		c-2.26,6.324-3.002,12.936-2.273,19.42l-25.127-45.951c-0.264-0.481-0.77-0.781-1.32-0.781c-0.549,0-1.053,0.3-1.318,0.781
		l-25.316,46.282c0.793-6.587,0.066-13.319-2.234-19.751c-1.781-4.99-4.412-9.517-7.734-13.444c-6.592-9.85-4.375-23.28,5.24-30.426
		c6.74-5.008,16.299-3.595,21.309,3.146c3.355,4.521,2.41,10.929-2.109,14.285c-1.436,1.066-3.203,1.512-4.969,1.249
		c-1.77-0.262-3.332-1.196-4.398-2.633c-0.676-0.909-0.957-2.024-0.791-3.146c0.066-0.446,0.217-0.862,0.41-1.255
		c0.27,0.074,0.547,0.127,0.84,0.127c1.748,0,3.168-1.423,3.168-3.17c0-1.746-1.42-3.168-3.168-3.168
		c-1.746,0-3.168,1.422-3.168,3.168c0,0.292,0.055,0.57,0.129,0.84c-0.611,0.893-1.023,1.917-1.186,3.021
		c-0.283,1.915,0.199,3.823,1.354,5.375c3.189,4.295,9.279,5.194,13.572,2.004c5.85-4.343,7.074-12.638,2.73-18.489
		c-6-8.072-17.445-9.761-25.514-3.766c-8.633,6.412-12.004,17.293-9.338,27.092c-2.639-2.118-5.537-3.947-8.672-5.432
		c-17.449-8.261-38.373-0.788-46.641,16.665c-3.236,6.837-3.619,14.524-1.074,21.647c2.545,7.125,7.711,12.831,14.545,16.065
		c11.445,5.417,25.158,0.517,30.574-10.924c4.404-9.3,0.422-20.451-8.879-24.854c-7.594-3.598-16.693-0.344-20.289,7.246
		c-1.426,3.015-1.594,6.403-0.471,9.547c0.82,2.29,2.258,4.242,4.143,5.687c0.059,1.698,1.447,3.063,3.158,3.063
		c1.748,0,3.17-1.424,3.17-3.172c0-1.744-1.422-3.168-3.17-3.168c-0.65,0-1.256,0.2-1.762,0.538
		c-1.215-1.056-2.15-2.404-2.707-3.961c-0.854-2.387-0.727-4.962,0.357-7.249c2.885-6.089,10.188-8.699,16.281-5.814
		c7.803,3.695,11.146,13.05,7.451,20.851c-4.707,9.941-16.629,14.201-26.568,9.493c-6.111-2.892-10.729-7.992-13.002-14.358
		c-2.273-6.368-1.934-13.239,0.961-19.349c7.555-15.955,26.684-22.792,42.635-15.235c5.256,2.488,9.811,6.009,13.471,10.31
		c0.195,0.285,0.365,0.58,0.574,0.859l0.09-0.068c2.818,3.491,5.063,7.468,6.617,11.815c3.578,10.015,3.094,20.807-1.34,30.452
		l-3.104,5.673c-6.625,0.061-14.418,1.229-23.203,3.498c-0.768,0.201-1.061,0.711-1.168,1c-0.115,0.31-0.123,0.653-0.031,0.969
		c0.787,2.633,1.588,5.055,2.393,7.3l-41.959,22.951l-37.838-9.079c-0.471-1.161-1.605-1.982-2.934-1.982
		c-1.748,0-3.166,1.421-3.166,3.166c0,1.75,1.418,3.172,3.166,3.172c1.068,0,2.01-0.536,2.584-1.349l27.91,6.696H41.761
		c-0.525-1.019-1.578-1.726-2.805-1.726c-1.748,0-3.168,1.421-3.168,3.166C35.788,242.202,37.208,243.623,38.956,243.623z
		 M138.884,263.04l-38.445-21.022h51.75c-1.301,1.021-2.807,2.472-4.439,4.537c-0.035,0.045-0.072,0.091-0.107,0.137
		c-0.285,0.363-0.57,0.739-0.861,1.139c-0.006,0.007-0.01,0.017-0.016,0.023c-0.264,0.364-0.533,0.752-0.803,1.151
		c-0.074,0.11-0.15,0.221-0.227,0.336c-0.258,0.39-0.52,0.791-0.781,1.214c-0.086,0.137-0.172,0.282-0.258,0.421
		c-0.203,0.336-0.41,0.681-0.615,1.033c-0.09,0.157-0.18,0.308-0.27,0.465c-0.25,0.441-0.504,0.902-0.756,1.375
		c-0.109,0.206-0.221,0.415-0.332,0.629c-0.227,0.433-0.451,0.877-0.678,1.335c-0.115,0.229-0.229,0.465-0.342,0.7
		c-0.209,0.432-0.416,0.873-0.623,1.325c-0.1,0.218-0.201,0.432-0.301,0.654c-0.268,0.597-0.537,1.215-0.803,1.849
		c-0.076,0.182-0.154,0.367-0.229,0.551c-0.268,0.643-0.535,1.306-0.803,1.989C138.925,262.938,138.903,262.986,138.884,263.04z
		 M195.073,337.974l-11.662-21.322c-0.35-0.758-0.73-1.508-1.166-2.236l-0.043,0.025l-19.031-34.795
		c5.51-0.331,9.004-1.497,11.135-2.623c0.242,3.997,2.176,11.262,10.518,22.136c0.076,0.101,0.15,0.199,0.229,0.3
		c0.674,0.872,1.389,1.767,2.146,2.684c0.01,0.014,0.02,0.025,0.029,0.037c0.225,0.27,0.457,0.545,0.688,0.817
		c0.168,0.199,0.33,0.396,0.504,0.6c0.096,0.112,0.201,0.229,0.299,0.343c0.314,0.366,0.629,0.732,0.959,1.106
		c0.178,0.202,0.365,0.408,0.549,0.613c0.258,0.291,0.512,0.577,0.777,0.871c0.91,1.003,1.867,2.029,2.875,3.08
		c0.439,0.455,0.902,0.552,1.211,0.552c0.416,0,0.814-0.177,1.1-0.468l0,0c1.902-1.966,3.615-3.848,5.174-5.647
		c0.139-0.161,0.285-0.329,0.424-0.488c11.668-13.63,13.959-22.472,14.121-27.02c0.498,0.249,1.092,0.498,1.74,0.743
		c0.078,0.029,0.152,0.061,0.234,0.089c0.283,0.105,0.592,0.204,0.908,0.305c0.115,0.038,0.23,0.073,0.348,0.109
		c0.322,0.096,0.66,0.188,1.012,0.278c0.131,0.036,0.266,0.066,0.4,0.099c0.371,0.09,0.752,0.176,1.156,0.259
		c0.119,0.023,0.246,0.045,0.369,0.065c1.502,0.285,3.217,0.503,5.195,0.613l-19.363,35.408l-0.154-0.092
		c-0.635,1.066-1.145,2.168-1.59,3.284L195.073,337.974z M239.126,242.018h50.576l-37.832,20.691
		C247.202,250.773,242.567,244.903,239.126,242.018z M251.589,217.974l38.467,21.037h-50.859c2.988-2.73,6.873-7.803,10.826-17.136
		c0.1-0.234,0.197-0.467,0.299-0.705c0.131-0.323,0.266-0.646,0.4-0.977c0.277-0.688,0.553-1.396,0.83-2.126
		C251.563,218.034,251.577,218.006,251.589,217.974z M195.073,142.856l29.604,54.135c0.244,0.578,0.494,1.151,0.764,1.72
		l0.139-0.065l1.76,3.215c-0.012,0.002-0.021,0.002-0.031,0.002c-1.383,0.078-2.637,0.207-3.775,0.377
		c-0.018,0.002-0.035,0.004-0.053,0.007c-0.564,0.085-1.1,0.179-1.609,0.282c-0.012,0.002-0.021,0.004-0.033,0.006
		c-1.545,0.313-2.836,0.698-3.91,1.109c-0.002,0.003-0.006,0.003-0.008,0.005c-0.715,0.274-1.338,0.559-1.869,0.844
		c-0.115-1.422-0.457-3.263-1.236-5.545c-0.006-0.017-0.01-0.029-0.014-0.044c-2.025-5.887-6.98-14.696-18.563-26.766
		c-0.68-0.693-1.711-0.677-2.301-0.073l0,0c-1.559,1.612-2.994,3.17-4.318,4.673c-12.807,14.531-15.172,24.003-15.287,28.798
		c-0.273-0.142-0.574-0.285-0.889-0.428c-0.025-0.01-0.049-0.022-0.072-0.031c-0.311-0.138-0.643-0.274-0.996-0.41
		c-0.041-0.017-0.084-0.031-0.125-0.048c-0.359-0.136-0.74-0.268-1.143-0.396c-0.029-0.01-0.059-0.019-0.086-0.028
		c-0.836-0.263-1.771-0.507-2.813-0.724c-0.053-0.012-0.107-0.024-0.162-0.033c-0.504-0.103-1.035-0.196-1.588-0.282
		c-0.066-0.009-0.133-0.019-0.199-0.027c-0.572-0.088-1.17-0.162-1.801-0.229c-0.02,0-0.041-0.002-0.063-0.004
		c-0.66-0.066-1.348-0.12-2.068-0.16c0,0-0.004,0-0.006,0l2.209-4.038l0.031,0.015c0.059-0.122,0.107-0.25,0.166-0.371
		L195.073,142.856z M159.47,205.663c0.361,0,0.691,0.015,1.037,0.022c0.438,0.009,0.877,0.016,1.289,0.034
		c0.256,0.012,0.492,0.031,0.74,0.048c0.398,0.025,0.805,0.049,1.18,0.082c0.227,0.021,0.434,0.047,0.65,0.07
		c0.371,0.04,0.746,0.078,1.094,0.126c0.193,0.027,0.365,0.06,0.551,0.088c0.348,0.052,0.699,0.105,1.023,0.164
		c0.145,0.028,0.271,0.059,0.412,0.087c0.342,0.068,0.686,0.139,1.002,0.214c0.074,0.017,0.139,0.038,0.213,0.055
		c4.662,1.155,6.336,2.919,6.4,2.99c0.018,0.019,0.043,0.025,0.063,0.046c0.119,0.128,0.254,0.23,0.404,0.306
		c0.059,0.029,0.117,0.042,0.18,0.063c0.125,0.045,0.25,0.073,0.381,0.083c0.035,0.002,0.066,0.023,0.102,0.023
		c0.059,0,0.117-0.017,0.176-0.023c0.047-0.008,0.092-0.01,0.139-0.019c0.15-0.033,0.301-0.083,0.441-0.163
		c0.004-0.002,0.008-0.002,0.012-0.004c0.477-0.277,0.748-0.792,0.742-1.323c-0.002-0.176-0.033-0.354-0.1-0.526
		c-0.039-0.105-3.684-10.526,17.447-32.854c20.82,22.078,17.928,31.787,17.908,31.855c-0.066,0.174-0.098,0.353-0.098,0.529
		c0,0.077,0.029,0.15,0.041,0.228c0.016,0.097,0.018,0.192,0.053,0.281c0.016,0.046,0.053,0.082,0.072,0.125
		c0.133,0.271,0.33,0.51,0.609,0.667c0.131,0.072,0.27,0.11,0.41,0.138c0.035,0.011,0.066,0.031,0.102,0.036
		c0.352,0.052,0.715-0.025,1.02-0.214c0.059-0.035,0.102-0.094,0.154-0.137c0.086-0.07,0.18-0.134,0.25-0.222v-0.004
		c0.002,0,0.002,0,0.002,0c0.002-0.002,0.014-0.019,0.039-0.046c0.156-0.172,0.77-0.783,2.121-1.46
		c0.002-0.002,0.006-0.004,0.01-0.007c0.207-0.103,0.436-0.206,0.68-0.312c0.023-0.013,0.043-0.021,0.068-0.033
		c0.23-0.099,0.484-0.195,0.748-0.294c0.045-0.017,0.086-0.035,0.135-0.052c0.256-0.092,0.537-0.183,0.824-0.272
		c0.068-0.021,0.129-0.042,0.197-0.063c0.281-0.086,0.588-0.165,0.9-0.243c0.094-0.023,0.178-0.049,0.275-0.072
		c0.305-0.072,0.635-0.141,0.967-0.206c0.123-0.027,0.238-0.055,0.365-0.078c0.33-0.061,0.688-0.115,1.045-0.169
		c0.154-0.023,0.297-0.05,0.455-0.071c0.354-0.049,0.738-0.089,1.119-0.128c0.186-0.02,0.363-0.043,0.555-0.063
		c0.379-0.032,0.785-0.055,1.189-0.082c0.225-0.014,0.438-0.029,0.67-0.042c0.402-0.017,0.83-0.023,1.258-0.033
		c0.342-0.007,0.668-0.021,1.027-0.021c6.033,0,13.301,0.994,21.617,2.955c-0.813,2.749-1.635,5.257-2.461,7.548
		c-0.002,0.007-0.008,0.009-0.01,0.017c-0.709,1.965-1.416,3.766-2.121,5.424c-0.045,0.104-0.09,0.214-0.135,0.316
		c-0.193,0.45-0.385,0.882-0.578,1.312c-0.063,0.142-0.127,0.286-0.191,0.427c-0.184,0.399-0.365,0.787-0.547,1.168
		c-0.072,0.153-0.145,0.304-0.215,0.451c-0.178,0.366-0.354,0.724-0.529,1.071c-0.072,0.146-0.146,0.287-0.221,0.43
		c-0.174,0.341-0.35,0.674-0.523,0.999c-0.07,0.129-0.139,0.255-0.207,0.383c-0.178,0.324-0.355,0.646-0.529,0.953
		c-0.059,0.101-0.115,0.194-0.172,0.293c-0.188,0.325-0.373,0.645-0.557,0.947c-0.025,0.041-0.049,0.077-0.072,0.118
		c-0.893,1.46-1.754,2.708-2.566,3.766c-0.006,0.009-0.014,0.019-0.021,0.027c-0.186,0.238-0.363,0.463-0.543,0.685
		c-0.033,0.039-0.066,0.082-0.098,0.121c-0.17,0.207-0.338,0.402-0.504,0.593c-0.035,0.042-0.074,0.086-0.111,0.129
		c-0.162,0.186-0.322,0.361-0.479,0.531c-0.035,0.037-0.072,0.077-0.109,0.117c-0.156,0.167-0.313,0.329-0.465,0.481
		c-0.029,0.031-0.059,0.059-0.088,0.09c-0.158,0.155-0.313,0.308-0.463,0.448c-0.018,0.015-0.033,0.03-0.049,0.044
		c-1.359,1.27-2.445,1.938-3.133,2.279c-0.002,0.002-0.008,0.005-0.01,0.005c-0.082,0.042-0.158,0.077-0.23,0.107
		c-0.004,0.005-0.01,0.008-0.016,0.01c-0.068,0.03-0.131,0.057-0.188,0.08c-0.004,0-0.008,0.002-0.012,0.004
		c-0.234,0.095-0.365,0.126-0.371,0.128c-0.066,0.011-0.119,0.047-0.184,0.065c-0.109,0.035-0.225,0.061-0.32,0.117
		c-0.117,0.068-0.211,0.163-0.303,0.259c-0.027,0.03-0.064,0.049-0.092,0.08c-0.102,0.124-0.178,0.27-0.236,0.423
		c-0.004,0.011-0.014,0.021-0.018,0.032c-0.059,0.167-0.09,0.348-0.084,0.533c0.002,0.188,0.041,0.366,0.107,0.53
		c0.01,0.024,0.029,0.041,0.039,0.063c0.066,0.138,0.143,0.272,0.244,0.387c0.008,0.007,0.021,0.012,0.031,0.021
		c0.115,0.12,0.242,0.226,0.389,0.304c0.02,0.009,0.045,0.009,0.064,0.019c0.141,0.067,0.291,0.124,0.451,0.146
		c0.01,0,0.143,0.021,0.381,0.098c0.004,0.003,0.004,0.003,0.008,0.003c0.055,0.019,0.117,0.039,0.184,0.066
		c0.01,0.002,0.02,0.006,0.031,0.011c0.063,0.024,0.133,0.05,0.205,0.08c0.016,0.008,0.033,0.014,0.049,0.021
		c0.072,0.032,0.15,0.065,0.234,0.105c0.016,0.007,0.033,0.017,0.051,0.023c0.088,0.042,0.176,0.087,0.271,0.136
		c0.012,0.006,0.025,0.015,0.037,0.02c0.418,0.221,0.918,0.526,1.486,0.944c0.031,0.022,0.061,0.045,0.094,0.068
		c0.107,0.082,0.223,0.171,0.336,0.263c0.057,0.043,0.109,0.085,0.166,0.129c0.109,0.09,0.223,0.188,0.336,0.285
		c0.064,0.056,0.129,0.11,0.193,0.167c0.113,0.099,0.229,0.203,0.346,0.314c0.072,0.063,0.143,0.132,0.215,0.199
		c0.117,0.11,0.236,0.228,0.355,0.348c0.078,0.075,0.154,0.152,0.232,0.232c0.121,0.125,0.244,0.253,0.369,0.388
		c0.08,0.085,0.16,0.174,0.24,0.261c0.129,0.141,0.258,0.284,0.387,0.435c0.078,0.089,0.16,0.186,0.24,0.277
		c0.137,0.164,0.275,0.324,0.416,0.498c0.064,0.08,0.131,0.169,0.197,0.252c0.557,0.697,1.135,1.479,1.73,2.36
		c0.029,0.042,0.059,0.082,0.088,0.125c0.164,0.245,0.332,0.509,0.5,0.77c0.076,0.115,0.148,0.228,0.225,0.348
		c0.16,0.254,0.322,0.522,0.486,0.789c0.084,0.14,0.168,0.277,0.252,0.421c0.16,0.272,0.324,0.557,0.488,0.844
		c0.086,0.152,0.174,0.306,0.262,0.463c0.166,0.298,0.332,0.603,0.498,0.918c0.086,0.158,0.17,0.317,0.254,0.477
		c0.176,0.331,0.348,0.67,0.523,1.018c0.078,0.155,0.154,0.313,0.234,0.47c0.182,0.371,0.367,0.747,0.551,1.139
		c0.064,0.134,0.129,0.273,0.191,0.41c0.201,0.429,0.402,0.866,0.605,1.319c0.031,0.07,0.063,0.146,0.096,0.216
		c0.734,1.658,1.475,3.468,2.219,5.45c0.004,0.005,0.008,0.007,0.008,0.015c0.867,2.306,1.736,4.842,2.6,7.632
		c-8.416,2.089-15.828,3.147-22.049,3.147h-0.002c-0.162,0-0.305-0.007-0.463-0.009c-11.156-0.097-14.527-3.672-14.541-3.688
		c-0.096-0.112-0.211-0.192-0.326-0.27c-0.479-0.318-1.102-0.357-1.611-0.042c-0.59,0.36-0.83,1.07-0.631,1.719
		c0.012,0.04,0.008,0.082,0.023,0.122c0.021,0.057,1.1,3.202-1.561,9.8c-0.035,0.088-0.064,0.17-0.102,0.26
		c-0.076,0.185-0.164,0.38-0.246,0.567c-0.086,0.203-0.168,0.397-0.262,0.604c-0.039,0.088-0.084,0.182-0.125,0.268
		c-2.375,5.152-6.879,12.102-15.303,20.997c-20.818-22.092-17.635-32.037-17.611-32.11c0.279-0.692-0.006-1.47-0.652-1.844
		c0,0-0.002,0-0.002-0.002l0,0c-0.145-0.082-0.299-0.129-0.455-0.16c-0.047-0.009-0.092-0.015-0.137-0.019
		c-0.051-0.005-0.098-0.019-0.148-0.019c-0.08,0-0.162,0.014-0.244,0.028c-0.023,0.002-0.049,0.002-0.074,0.007
		c-0.148,0.033-0.289,0.092-0.422,0.164c-0.035,0.019-0.066,0.041-0.1,0.062c-0.131,0.087-0.254,0.188-0.355,0.314
		c-0.002,0.002-0.004,0.002-0.004,0.005c-0.018,0.021-1.189,1.433-4.768,2.529c-0.018,0.006-0.031,0.01-0.049,0.015
		c-0.326,0.099-0.68,0.194-1.051,0.289c-0.039,0.01-0.078,0.021-0.121,0.033c-0.354,0.086-0.734,0.166-1.127,0.247
		c-0.07,0.013-0.135,0.027-0.207,0.042c-0.379,0.073-0.785,0.138-1.201,0.201c-0.1,0.017-0.195,0.033-0.297,0.048
		c-0.406,0.057-0.84,0.107-1.279,0.152c-0.133,0.014-0.26,0.03-0.395,0.045c-0.434,0.039-0.889,0.07-1.354,0.101
		c-0.168,0.01-0.332,0.021-0.504,0.03c-0.459,0.023-0.947,0.038-1.439,0.047c-0.359,0.007-0.703,0.021-1.08,0.021
		c-6.045,0-13.301-0.989-21.586-2.94c0.896-3.03,1.811-5.754,2.729-8.228c1.168-3.152,2.342-5.872,3.494-8.222
		c0.059-0.125,0.119-0.251,0.182-0.371c0.176-0.357,0.352-0.697,0.527-1.036c0.078-0.152,0.156-0.306,0.234-0.45
		c0.168-0.318,0.334-0.623,0.5-0.926c0.084-0.15,0.17-0.304,0.252-0.451c0.162-0.289,0.324-0.568,0.484-0.843
		c0.084-0.144,0.168-0.285,0.252-0.427c0.162-0.267,0.32-0.53,0.48-0.783c0.078-0.128,0.156-0.249,0.234-0.374
		c0.162-0.254,0.324-0.505,0.484-0.744c0.066-0.102,0.133-0.197,0.203-0.297c0.168-0.251,0.338-0.499,0.504-0.735
		c0.027-0.038,0.055-0.072,0.08-0.111c0.633-0.882,1.242-1.656,1.824-2.339c0.008-0.009,0.018-0.021,0.025-0.029
		c0.17-0.197,0.338-0.384,0.502-0.567c0.041-0.046,0.086-0.093,0.125-0.139c0.156-0.169,0.309-0.328,0.457-0.483
		c0.049-0.049,0.096-0.099,0.145-0.148c0.146-0.147,0.291-0.291,0.432-0.428c0.047-0.044,0.092-0.088,0.139-0.131
		c0.141-0.135,0.281-0.261,0.416-0.383c0.041-0.037,0.082-0.072,0.123-0.108c0.139-0.121,0.275-0.242,0.408-0.352
		c0.029-0.024,0.059-0.048,0.088-0.071c0.141-0.115,0.281-0.228,0.414-0.329c0.01-0.01,0.02-0.014,0.027-0.021
		c0.912-0.697,1.654-1.109,2.174-1.346c0.008-0.003,0.012-0.005,0.02-0.01c0.08-0.035,0.154-0.068,0.223-0.096
		c0.01-0.004,0.016-0.008,0.025-0.01c0.066-0.026,0.129-0.053,0.184-0.071c0.006-0.002,0.012-0.005,0.016-0.007
		c0.057-0.019,0.109-0.037,0.154-0.052l0,0c0.139-0.045,0.215-0.062,0.219-0.062c0.1-0.013,0.182-0.058,0.273-0.088
		c0.08-0.029,0.17-0.04,0.244-0.08c0.078-0.045,0.137-0.113,0.207-0.169c0.066-0.057,0.145-0.099,0.201-0.165
		c0.033-0.04,0.051-0.095,0.078-0.137c0.07-0.103,0.145-0.201,0.188-0.318c0.016-0.035,0.01-0.077,0.021-0.115
		c0.039-0.137,0.074-0.275,0.074-0.423l0,0l0,0c0-0.184-0.037-0.36-0.1-0.521c-0.002-0.006-0.002-0.012-0.002-0.017
		c-0.041-0.099-0.109-0.182-0.168-0.269c-0.039-0.061-0.064-0.131-0.115-0.186c-0.006-0.009-0.018-0.011-0.025-0.021
		c-0.236-0.252-0.555-0.43-0.918-0.478c-0.002,0-0.018-0.002-0.037-0.007c-0.004,0-0.01-0.002-0.016-0.002
		c-0.02-0.005-0.043-0.009-0.074-0.017c-0.008-0.002-0.021-0.007-0.031-0.009c-0.033-0.008-0.068-0.017-0.111-0.029
		c-0.014-0.004-0.029-0.009-0.045-0.014c-0.045-0.014-0.094-0.028-0.148-0.047c-0.02-0.005-0.039-0.012-0.059-0.019
		c-0.059-0.021-0.121-0.045-0.189-0.071c-0.02-0.007-0.039-0.014-0.061-0.023c-0.074-0.027-0.156-0.063-0.242-0.098
		c-0.016-0.01-0.033-0.017-0.051-0.023c-0.096-0.042-0.195-0.09-0.303-0.141c-0.012-0.008-0.025-0.013-0.039-0.02
		c-0.988-0.493-2.447-1.44-4.207-3.239c-0.004-0.005-0.008-0.008-0.01-0.012c-0.217-0.221-0.434-0.453-0.656-0.698
		c-0.01-0.012-0.018-0.021-0.027-0.03c-0.221-0.244-0.445-0.501-0.674-0.773c-0.01-0.009-0.02-0.021-0.027-0.031
		c-0.234-0.278-0.473-0.569-0.711-0.877c-0.002-0.003-0.006-0.005-0.008-0.01c-1.465-1.873-3.063-4.311-4.721-7.479
		c-0.043-0.083-0.088-0.171-0.131-0.257c-0.223-0.427-0.443-0.865-0.668-1.321c-0.07-0.146-0.145-0.296-0.215-0.446
		c-0.197-0.404-0.393-0.82-0.59-1.248c-0.092-0.194-0.182-0.395-0.271-0.595c-0.18-0.394-0.359-0.8-0.537-1.214
		c-0.105-0.239-0.211-0.484-0.314-0.73c-0.164-0.386-0.328-0.782-0.492-1.185c-0.117-0.291-0.236-0.58-0.355-0.878
		c-0.148-0.376-0.299-0.762-0.447-1.148c-0.129-0.344-0.262-0.684-0.395-1.039c-0.816-2.185-1.631-4.564-2.439-7.17
		C146.058,206.695,153.325,205.663,159.47,205.663z M138.548,219.709c4.246,10.531,8.492,16.232,11.838,19.302h-50.301
		l37.891-20.726c0.105,0.271,0.211,0.518,0.314,0.78C138.376,219.284,138.462,219.496,138.548,219.709z"/>
	<path fill="#B7E4DC" d="M159.155,224.104c0.482,0.281,1.033,0.43,1.59,0.43c0.689,0,1.336-0.249,1.875-0.646l21.205,12.321
		c-0.197,0.473-0.355,0.966-0.492,1.466l-13.863-3.441c-0.26-0.674-0.723-1.243-1.355-1.611c-0.482-0.279-1.031-0.43-1.59-0.43
		c-1.125,0-2.176,0.605-2.74,1.578c-0.426,0.733-0.541,1.586-0.322,2.405c0.217,0.818,0.74,1.501,1.471,1.927
		c0.484,0.279,1.035,0.431,1.592,0.431c1.01,0,1.938-0.503,2.529-1.305l13.85,3.437c-0.002,0.071-0.012,0.139-0.012,0.209
		c0,0.08,0.012,0.155,0.012,0.235l-13.869,3.324c-0.92-1.245-2.752-1.685-4.125-0.902c-1.514,0.865-2.045,2.803-1.182,4.322
		c0.563,0.984,1.619,1.598,2.756,1.598c0.547,0,1.088-0.144,1.568-0.418c0.652-0.371,1.109-0.949,1.363-1.601l13.924-3.338
		c0.137,0.498,0.293,0.986,0.49,1.454l-21.346,12.176c-0.543-0.406-1.193-0.66-1.893-0.66c-0.547,0-1.09,0.144-1.568,0.418
		c-1.52,0.864-2.049,2.802-1.184,4.32c0.563,0.986,1.617,1.6,2.752,1.6c0.551,0,1.092-0.146,1.57-0.419
		c0.951-0.542,1.514-1.506,1.59-2.52l21.58-12.309c0.43,0.574,0.906,1.107,1.43,1.599l-9.789,10.105
		c-0.336-0.119-0.688-0.204-1.055-0.204c-0.551,0-1.094,0.144-1.57,0.416c-1.516,0.862-2.049,2.801-1.186,4.319
		c0.563,0.986,1.619,1.601,2.754,1.601c0.549,0,1.092-0.144,1.568-0.416c1.246-0.712,1.813-2.143,1.502-3.472l10.217-10.55
		l-3.992,13.728c-1.586,0.171-2.83,1.503-2.83,3.136c0,1.749,1.422,3.169,3.168,3.169c1.748,0,3.17-1.42,3.17-3.169
		c0-0.751-0.275-1.435-0.713-1.977l4.01-13.79c0.488,0.125,0.984,0.226,1.492,0.292v24.588c-1.131,0.483-1.926,1.606-1.926,2.915
		c0,1.747,1.42,3.169,3.166,3.169c1.748,0,3.17-1.422,3.17-3.169c0-1.095-0.557-2.061-1.402-2.632v-24.854
		c0.719-0.086,1.422-0.229,2.098-0.436l3.926,13.5c-0.676,0.583-1.115,1.433-1.115,2.394c0,1.749,1.422,3.169,3.168,3.169
		c1.748,0,3.168-1.42,3.168-3.169c0-1.435-0.963-2.636-2.273-3.025l-4.043-13.902l9.725,10.202
		c-0.646,1.459-0.121,3.202,1.289,4.022c0.482,0.281,1.033,0.43,1.59,0.43h0.002c1.125,0,2.174-0.604,2.74-1.579
		c0.879-1.51,0.363-3.453-1.148-4.331c-0.482-0.28-1.033-0.431-1.59-0.431c-0.162,0-0.314,0.041-0.469,0.064l-9.902-10.388
		c0.359-0.359,0.689-0.75,1-1.154l21.246,12.345c-0.148,1.222,0.424,2.475,1.555,3.13c0.482,0.281,1.031,0.43,1.59,0.43
		c1.125,0,2.176-0.604,2.742-1.577c0.877-1.51,0.361-3.453-1.15-4.331c-0.902-0.524-2.02-0.515-2.945-0.09l-21.492-12.484
		c0.287-0.653,0.512-1.338,0.678-2.044l13.613,3.38c0.014,0.078,0.018,0.159,0.037,0.237c0.219,0.818,0.742,1.503,1.473,1.926
		c0.482,0.282,1.033,0.43,1.59,0.43c1.127,0,2.176-0.604,2.74-1.575c0.877-1.512,0.363-3.453-1.146-4.33
		c-0.484-0.281-1.035-0.432-1.594-0.432c-0.816,0-1.59,0.326-2.172,0.876l-12.988-3.226l13.014-3.122
		c0.582,0.56,1.361,0.893,2.189,0.893c0.551,0,1.092-0.145,1.57-0.418c1.518-0.864,2.049-2.805,1.184-4.321
		c-0.563-0.984-1.619-1.598-2.754-1.598c-0.549,0-1.092,0.143-1.568,0.417c-0.834,0.476-1.357,1.278-1.527,2.154l-13.605,3.263
		c-0.158-0.714-0.371-1.407-0.648-2.066l21.533-12.284c0.428,0.212,0.896,0.346,1.389,0.346c0.549,0,1.092-0.145,1.57-0.418
		c1.516-0.864,2.047-2.803,1.182-4.322c-0.563-0.984-1.617-1.597-2.752-1.597c-0.549,0-1.094,0.145-1.566,0.415
		c-0.738,0.421-1.268,1.102-1.49,1.92c-0.109,0.396-0.137,0.803-0.092,1.2l-21.279,12.135c-0.311-0.413-0.641-0.811-1.002-1.182
		l9.93-10.252c0.164,0.029,0.326,0.069,0.494,0.069c0.549,0,1.092-0.146,1.57-0.419c0.736-0.421,1.264-1.102,1.488-1.919
		c0.221-0.815,0.111-1.67-0.307-2.4c-0.563-0.989-1.617-1.603-2.754-1.603c-0.551,0-1.092,0.144-1.568,0.416
		c-1.418,0.809-1.957,2.549-1.322,4.013l-9.889,10.209c-0.012-0.007-0.021-0.013-0.031-0.02l4.074-14.02
		c1.311-0.387,2.273-1.59,2.273-3.025c0-1.745-1.42-3.169-3.168-3.169c-1.746,0-3.168,1.424-3.168,3.169
		c0,0.961,0.439,1.813,1.115,2.394l-3.893,13.389c-0.686-0.212-1.398-0.357-2.131-0.444v-24.734c0.846-0.57,1.402-1.535,1.402-2.631
		c0-1.745-1.422-3.169-3.17-3.169c-1.746,0-3.166,1.424-3.166,3.169c0,1.309,0.795,2.432,1.926,2.918v24.465
		c-0.52,0.066-1.027,0.17-1.525,0.302l-3.977-13.677c0.439-0.545,0.713-1.227,0.713-1.98c0-1.745-1.422-3.169-3.17-3.169
		c-1.746,0-3.168,1.424-3.168,3.169c0,1.633,1.244,2.965,2.83,3.137l3.934,13.53l-9.986-10.478c0.32-1.327-0.234-2.764-1.477-3.488
		c-1.463-0.845-3.488-0.3-4.328,1.149c-0.426,0.732-0.541,1.588-0.324,2.405c0.215,0.817,0.74,1.504,1.473,1.927
		c0.482,0.281,1.033,0.43,1.59,0.43c0.361,0,0.703-0.08,1.033-0.195l9.646,10.12c-0.529,0.493-1.012,1.033-1.445,1.613
		l-21.416-12.442c-0.014-0.205-0.045-0.406-0.1-0.609c-0.217-0.816-0.738-1.503-1.469-1.925c-0.484-0.28-1.035-0.431-1.592-0.431
		c-1.127,0-2.176,0.604-2.742,1.576c-0.426,0.73-0.541,1.586-0.322,2.403C157.899,222.995,158.425,223.682,159.155,224.104z
		 M195.069,231.704c5.057,0,9.172,4.115,9.172,9.17c0,5.058-4.115,9.172-9.172,9.172s-9.17-4.114-9.17-9.172
		C185.899,235.819,190.013,231.704,195.069,231.704z"/>
	<path fill="#B7E4DC" d="M143.782,131.724h0.9l0.428-0.789c0.459-0.847,0.664-10.563-3.865-17.526
		c-4.699-7.226-13.475-10.636-14.336-10.636l-0.9,0.002l-0.426,0.787c-0.381,0.703-0.996,10.06,3.861,17.528
		C134.05,128.168,142.956,131.722,143.782,131.724z M138.726,115.048c2.799,4.301,3.494,9.898,3.604,12.938
		c-2.73-1.325-7.553-4.22-10.365-8.536c-3.014-4.637-3.563-10.113-3.621-12.966C130.927,107.691,135.708,110.41,138.726,115.048z"/>
	<path fill="#B7E4DC" d="M87.981,222.509l0.025,0.362l0.184,0.311c0.875,1.468,8.369,1.613,8.443,1.613
		c3.621,0,6.934-0.61,9.842-1.82c7.559-3.141,13.105-11.337,13.09-12.46l-0.006-0.39l-0.191-0.337
		c-0.85-1.486-8.436-1.58-8.512-1.58c-3.672,0-6.963,0.594-9.783,1.767C93.138,213.271,87.907,221.36,87.981,222.509z
		 M110.856,211.215c1.855,0,3.508,0.171,4.715,0.35c-1.738,2.361-5.373,6.608-10.25,8.633c-2.541,1.056-5.463,1.591-8.688,1.591
		c-1.875,0-3.531-0.188-4.723-0.38c1.654-2.318,5.201-6.533,10.314-8.657C104.679,211.731,107.583,211.215,110.856,211.215z"/>
	<path fill="#B7E4DC" d="M129.476,319.931l0.025,0.362l0.184,0.31c0.875,1.469,8.369,1.613,8.445,1.613
		c3.621,0,6.932-0.612,9.84-1.819c7.559-3.142,13.105-11.338,13.09-12.46l-0.006-0.39l-0.191-0.337
		c-0.85-1.486-8.436-1.581-8.512-1.581c-3.67,0-6.963,0.595-9.783,1.768C134.634,310.692,129.401,318.781,129.476,319.931z
		 M143.72,310.173c2.453-1.02,5.357-1.537,8.631-1.537c1.855,0,3.508,0.172,4.715,0.351c-1.738,2.361-5.373,6.608-10.25,8.633
		c-2.541,1.056-5.463,1.59-8.686,1.59c-1.877,0-3.533-0.187-4.725-0.38C135.06,316.511,138.606,312.296,143.72,310.173z"/>
	<path fill="#B7E4DC" d="M116.353,132.882c1.244,0.438,2.641,0.66,4.148,0.66c2.727,0,7.029-0.969,7.691-1.959l0.277-0.416
		l-0.023-0.497c-0.047-0.919-3.549-6.498-8.438-8.214c-1.297-0.455-2.73-0.687-4.26-0.687c-2.715,0-6.973,1.004-7.609,2.033
		l-0.246,0.399l0.023,0.467C107.96,125.509,111.128,131.049,116.353,132.882z M115.749,124.776c1.189,0,2.287,0.175,3.264,0.519
		c2.486,0.871,4.514,3.098,5.648,4.646c-1.063,0.292-2.553,0.595-4.16,0.595c-1.168,0-2.229-0.164-3.154-0.488
		c-2.588-0.91-4.598-3.139-5.691-4.666C112.716,125.08,114.192,124.776,115.749,124.776z"/>
	<path fill="#B7E4DC" d="M93.198,204.444c1.246,0.438,2.641,0.661,4.148,0.661c2.729,0,7.031-0.971,7.693-1.96l0.279-0.416
		l-0.025-0.497c-0.047-0.919-3.549-6.498-8.438-8.213c-1.297-0.456-2.73-0.688-4.26-0.688c-2.715,0-6.973,1.005-7.609,2.035
		l-0.246,0.398l0.023,0.467C84.808,197.071,87.976,202.61,93.198,204.444z M92.597,196.338c1.189,0,2.287,0.176,3.264,0.52
		c2.486,0.871,4.514,3.099,5.648,4.646c-1.063,0.291-2.553,0.595-4.162,0.595c-1.166,0-2.227-0.165-3.152-0.489
		c-2.588-0.911-4.598-3.138-5.691-4.666C89.563,196.644,91.038,196.338,92.597,196.338z"/>
	<path fill="#B7E4DC" d="M145.519,298.859c1.244,0.438,2.641,0.66,4.148,0.66c2.727,0,7.029-0.971,7.691-1.959l0.279-0.416
		l-0.025-0.497c-0.045-0.92-3.549-6.498-8.436-8.213c-1.299-0.456-2.732-0.688-4.262-0.688c-2.713,0-6.973,1.005-7.607,2.034
		l-0.248,0.398l0.023,0.469C137.126,291.485,140.294,297.024,145.519,298.859z M144.915,290.753c1.189,0,2.287,0.176,3.266,0.519
		c2.484,0.872,4.514,3.1,5.648,4.647c-1.064,0.291-2.555,0.594-4.162,0.594c-1.168,0-2.229-0.165-3.152-0.489
		c-2.59-0.911-4.6-3.138-5.693-4.665C141.882,291.059,143.358,290.753,144.915,290.753z"/>
	<path fill="#B7E4DC" d="M150.675,119.901l0.73,0.008c1.229,0,6.285-4.452,7.355-9.418c1.141-5.282-1.803-10.605-2.262-11.175
		l-0.459-0.569h-0.721c-1.266,0-6.264,4.344-7.359,9.417c-1.115,5.177,1.828,10.625,2.264,11.173L150.675,119.901z M150.899,108.798
		c0.58-2.686,2.537-4.956,3.916-6.229c0.711,1.652,1.613,4.49,1.006,7.289c-0.555,2.573-2.506,4.861-3.9,6.18
		C151.216,114.333,150.325,111.461,150.899,108.798z"/>
	<path fill="#B7E4DC" d="M207.28,381.596c0-6.159-9.809-22.319-10.926-24.145l-1.283-2.088l-1.281,2.088
		c-1.117,1.825-10.928,17.985-10.928,24.145c0,6.733,5.477,12.208,12.209,12.208S207.28,388.329,207.28,381.596z M195.071,390.798
		c-5.074,0-9.203-4.127-9.203-9.202c0-3.939,5.803-14.64,9.203-20.431c3.4,5.789,9.203,16.489,9.203,20.431
		C204.274,386.671,200.146,390.798,195.071,390.798z"/>
	<path fill="#B7E4DC" d="M195.071,109.21l1.283-2.089c1.117-1.821,10.926-17.982,10.926-24.142c0-6.732-5.477-12.21-12.209-12.21
		s-12.209,5.478-12.209,12.21c0,6.159,9.811,22.32,10.928,24.142L195.071,109.21z M195.071,73.777c5.074,0,9.203,4.128,9.203,9.202
		c0,3.94-5.803,14.641-9.203,20.431c-3.4-5.79-9.203-16.49-9.203-20.431C185.868,77.905,189.997,73.777,195.071,73.777z"/>
	<path fill="#B7E4DC" d="M85.36,261.763c0,5.25,4.271,9.523,9.523,9.523c5.25,0,9.52-4.273,9.52-9.523
		c0-5.248-4.27-9.521-9.52-9.521C89.632,252.241,85.36,256.515,85.36,261.763z M101.397,261.763c0,3.594-2.922,6.517-6.514,6.517
		c-3.594,0-6.518-2.923-6.518-6.517c0-3.592,2.924-6.515,6.518-6.515C98.476,255.248,101.397,258.171,101.397,261.763z"/>
	<path fill="#B7E4DC" d="M244.728,130.439l0.193,1.284h1.295c0.826,0,9.727-3.549,14.338-10.634
		c4.277-6.575,4.313-14.614,3.998-16.924l0.041-0.002l-0.107-1.392h-1.395c-0.861,0-9.635,3.41-14.336,10.636
		c-4.092,6.29-4.32,14.771-3.986,17.026L244.728,130.439z M251.274,115.048c3.016-4.635,7.799-7.355,10.383-8.563
		c-0.057,2.849-0.604,8.321-3.623,12.966c-2.811,4.315-7.635,7.211-10.365,8.536C247.778,124.949,248.474,119.357,251.274,115.048z"
		/>
	<path fill="#B7E4DC" d="M288.929,209.975c-2.82-1.173-6.113-1.767-9.783-1.767c-0.076,0-7.645,0.114-8.502,1.558l-0.205,0.348
		l-0.006,0.401c-0.014,1.12,5.531,9.316,13.092,12.46c2.908,1.21,6.221,1.82,9.84,1.82c0.076,0,7.57-0.146,8.445-1.613l0.186-0.313
		l0.023-0.359C302.095,221.36,296.864,213.271,288.929,209.975z M293.364,221.788c-3.223,0-6.145-0.535-8.688-1.591
		c-4.875-2.024-8.51-6.271-10.246-8.633c1.205-0.179,2.857-0.35,4.715-0.35c3.273,0,6.176,0.517,8.629,1.536
		c5.115,2.124,8.662,6.339,10.316,8.657C296.899,221.601,295.243,221.788,293.364,221.788z"/>
	<path fill="#B7E4DC" d="M229.149,307.187l-0.205,0.348l-0.006,0.402c-0.016,1.12,5.531,9.316,13.092,12.46
		c2.908,1.207,6.219,1.819,9.84,1.819c0.076,0,7.57-0.145,8.445-1.613l0.186-0.312l0.023-0.36c0.076-1.149-5.156-9.238-13.09-12.534
		c-2.82-1.173-6.113-1.768-9.783-1.768C237.575,305.629,230.005,305.744,229.149,307.187z M237.651,308.636
		c3.271,0,6.176,0.518,8.629,1.537c5.115,2.123,8.66,6.338,10.316,8.656c-1.193,0.193-2.85,0.38-4.727,0.38
		c-3.223,0-6.146-0.534-8.688-1.59c-4.875-2.024-8.51-6.271-10.248-8.633C234.142,308.808,235.794,308.636,237.651,308.636z"/>
	<path fill="#B7E4DC" d="M261.532,131.169l0.275,0.414c0.664,0.99,4.967,1.959,7.691,1.959c1.508,0,2.904-0.222,4.15-0.66
		c5.223-1.833,8.393-7.373,8.434-8.213l0.023-0.469l-0.246-0.397c-0.635-1.029-4.895-2.033-7.611-2.033
		c-1.529,0-2.961,0.231-4.26,0.687c-4.887,1.719-8.389,7.295-8.434,8.214L261.532,131.169z M270.985,125.295
		c0.979-0.344,2.076-0.519,3.264-0.519c1.559,0,3.037,0.304,4.096,0.604c-1.094,1.527-3.102,3.756-5.691,4.665
		c-0.924,0.325-1.984,0.489-3.154,0.489c-1.607,0-3.098-0.303-4.16-0.595C266.474,128.393,268.501,126.166,270.985,125.295z"/>
	<path fill="#B7E4DC" d="M284.708,202.232l-0.023,0.499l0.277,0.414c0.662,0.989,4.965,1.96,7.689,1.96
		c1.51,0,2.904-0.224,4.15-0.661c5.223-1.834,8.393-7.373,8.436-8.213l0.021-0.469l-0.246-0.396
		c-0.635-1.03-4.895-2.035-7.609-2.035c-1.531,0-2.963,0.232-4.262,0.688C288.255,195.737,284.753,201.313,284.708,202.232z
		 M297.403,196.338c1.557,0,3.035,0.306,4.094,0.605c-1.094,1.528-3.102,3.755-5.691,4.663c-0.924,0.327-1.984,0.492-3.154,0.492
		c-1.607,0-3.098-0.304-4.158-0.595c1.133-1.548,3.162-3.775,5.645-4.646C295.116,196.514,296.214,196.338,297.403,196.338z"/>
	<path fill="#B7E4DC" d="M240.333,299.52c1.508,0,2.904-0.223,4.15-0.66c5.223-1.835,8.393-7.374,8.434-8.212l0.021-0.471
		l-0.244-0.396c-0.635-1.029-4.895-2.034-7.611-2.034c-1.529,0-2.963,0.232-4.26,0.688c-4.887,1.717-8.389,7.293-8.434,8.213
		l-0.023,0.5l0.275,0.413C233.304,298.549,237.606,299.52,240.333,299.52z M241.819,291.271c0.979-0.343,2.074-0.519,3.264-0.519
		c1.559,0,3.035,0.306,4.096,0.605c-1.094,1.527-3.102,3.754-5.691,4.663c-0.926,0.326-1.986,0.491-3.154,0.491
		c-1.607,0-3.098-0.303-4.16-0.594C237.308,294.371,239.335,292.144,241.819,291.271z"/>
	<path fill="#B7E4DC" d="M238.597,119.909h0.002l0.723-0.006l0.451-0.56c0.377-0.465,3.383-6.012,2.266-11.181
		c-1.098-5.079-6.092-9.416-7.357-9.416l0,0l-0.727,0.008l-0.451,0.559c-0.459,0.57-3.408,5.886-2.266,11.179
		C232.312,115.461,237.368,119.909,238.597,119.909z M235.175,102.568c1.33,1.214,3.32,3.428,3.926,6.229
		c0.576,2.667-0.314,5.536-1.021,7.239c-1.395-1.318-3.346-3.606-3.902-6.18C233.599,107.172,234.446,104.298,235.175,102.568z"/>
	<path fill="#B7E4DC" d="M285.597,261.763c0,5.25,4.271,9.523,9.521,9.523s9.521-4.273,9.521-9.523c0-5.248-4.271-9.521-9.521-9.521
		S285.597,256.515,285.597,261.763z M301.632,261.763c0,3.594-2.922,6.517-6.514,6.517s-6.516-2.923-6.516-6.517
		c0-3.592,2.924-6.515,6.516-6.515S301.632,258.171,301.632,261.763z"/>
	<path fill="#B7E4DC" d="M195.069,62.127c2.109,0,3.824-1.717,3.824-3.826c0-2.108-1.715-3.823-3.824-3.823
		c-2.105,0-3.822,1.715-3.822,3.823C191.247,60.41,192.964,62.127,195.069,62.127z"/>
	<path fill="#B7E4DC" d="M195.069,47.291c2.109,0,3.824-1.716,3.824-3.824c0-2.107-1.715-3.824-3.824-3.824
		c-2.105,0-3.822,1.717-3.822,3.824C191.247,45.575,192.964,47.291,195.069,47.291z"/>
	<path fill="#B7E4DC" d="M195.069,32.458c2.109,0,3.824-1.716,3.824-3.825c0-2.108-1.715-3.824-3.824-3.824
		c-2.105,0-3.822,1.716-3.822,3.824C191.247,30.742,192.964,32.458,195.069,32.458z"/>
	<path fill="#B7E4DC" d="M195.069,435.544c-2.105,0-3.822,1.714-3.822,3.825c0,2.108,1.717,3.822,3.822,3.822
		c2.109,0,3.824-1.714,3.824-3.822C198.894,437.258,197.179,435.544,195.069,435.544z"/>
	<path fill="#B7E4DC" d="M195.069,420.709c-2.105,0-3.822,1.718-3.822,3.824c0,2.109,1.717,3.825,3.822,3.825
		c2.109,0,3.824-1.716,3.824-3.825C198.894,422.427,197.179,420.709,195.069,420.709z"/>
	<path fill="#B7E4DC" d="M195.069,405.874c-2.105,0-3.822,1.718-3.822,3.824c0,2.109,1.717,3.827,3.822,3.827
		c2.109,0,3.824-1.718,3.824-3.827C198.894,407.592,197.179,405.874,195.069,405.874z"/>
</g>
</svg>
