<?xml version="1.0" encoding="utf-8"?>
<!-- Generator: Adobe Illustrator 16.0.0, SVG Export Plug-In . SVG Version: 6.00 Build 0)  -->
<!DOCTYPE svg PUBLIC "-//W3C//DTD SVG 1.1//EN" "http://www.w3.org/Graphics/SVG/1.1/DTD/svg11.dtd">
<svg version="1.1" id="Layer_1" xmlns="http://www.w3.org/2000/svg" xmlns:xlink="http://www.w3.org/1999/xlink" x="0px" y="0px"
	 width="199.16px" height="198.41px" viewBox="0 0 199.16 198.41" enable-background="new 0 0 199.16 198.41" xml:space="preserve">
<g>
	<path fill="#B7E4DC" d="M191.104,91.623c-3.557-44.74-39.297-80.532-84.014-84.171c-0.834-3.383-3.873-5.907-7.51-5.907
		c-3.638,0-6.677,2.524-7.511,5.907C47.353,11.091,11.612,46.883,8.057,91.623c-3.502,0.75-6.137,3.859-6.137,7.58
		c0,3.734,2.653,6.861,6.173,7.596c3.779,44.473,39.365,79.992,83.864,83.666c0.647,3.629,3.81,6.4,7.623,6.4
		c3.813,0,6.975-2.771,7.623-6.4c44.498-3.674,80.084-39.193,83.863-83.666c3.52-0.734,6.174-3.861,6.174-7.596
		C197.24,95.482,194.604,92.373,191.104,91.623z M106.885,186.596c-1.049-3.039-3.91-5.246-7.305-5.246
		c-3.396,0-6.256,2.207-7.306,5.246c-42.578-3.52-76.635-37.482-80.304-80.02c3.154-0.982,5.465-3.896,5.465-7.373
		c0-3.486-2.329-6.408-5.501-7.383c3.451-42.707,37.524-76.879,80.192-80.479c0.901,3.284,3.884,5.72,7.453,5.72
		c3.568,0,6.551-2.436,7.453-5.72c42.668,3.601,76.74,37.772,80.191,80.479c-3.172,0.975-5.5,3.896-5.5,7.383
		c0,3.477,2.311,6.391,5.465,7.373C183.52,149.113,149.463,183.076,106.885,186.596z"/>
	<path fill="#B7E4DC" d="M107.234,39.65c-0.512-3.786-3.729-6.726-7.652-6.726c-3.926,0-7.144,2.939-7.655,6.726
		c-29.581,3.773-52.527,29.087-52.527,59.674c0,30.598,22.959,55.92,52.552,59.682c0.614,3.668,3.79,6.479,7.631,6.479
		c3.838,0,7.014-2.811,7.627-6.479c29.592-3.762,52.551-29.08,52.551-59.682C159.76,68.737,136.814,43.424,107.234,39.65z
		 M106.861,155.137c-1.072-3-3.916-5.168-7.279-5.168c-3.366,0-6.21,2.168-7.282,5.168c-27.613-3.586-49.018-27.238-49.018-55.813
		c0-28.597,21.442-52.266,49.091-55.815c1.134,2.88,3.929,4.933,7.209,4.933c3.277,0,6.072-2.053,7.205-4.933
		c27.648,3.55,49.09,27.219,49.09,55.815C155.877,127.898,134.473,151.553,106.861,155.137z"/>
	<path fill="#B7E4DC" d="M25.704,96.433c0.035,0,0.071,0.003,0.105,0.003c1.024,0,1.891-0.871,1.951-1.905
		c0.063-1.071-0.754-1.991-1.824-2.055c-1.068-0.061-1.991,0.756-2.053,1.827l-0.01,0.154
		C23.812,95.528,24.633,96.369,25.704,96.433z"/>
	<path fill="#B7E4DC" d="M28.761,77.85c0.207,0.069,0.416,0.103,0.622,0.103c0.811,0,1.565-0.511,1.839-1.319l0.065-0.199
		c0.315-1.025-0.26-2.111-1.285-2.428c-1.03-0.318-2.11,0.262-2.426,1.284l-0.032,0.097C27.2,76.403,27.744,77.505,28.761,77.85z"/>
	<path fill="#B7E4DC" d="M164.951,133.781c-0.932-0.527-2.117-0.203-2.646,0.732l-0.092,0.166c-0.512,0.943-0.164,2.125,0.781,2.635
		c0.293,0.16,0.611,0.236,0.924,0.236c0.688,0,1.355-0.371,1.707-1.018l0.061-0.105
		C166.213,135.496,165.885,134.311,164.951,133.781z"/>
	<path fill="#B7E4DC" d="M25.94,105.977c1.071-0.061,1.888-0.98,1.825-2.053c-0.001-0.018-0.014-0.193-0.015-0.211
		c-0.095-1.068-0.992-1.861-2.106-1.764c-1.067,0.094-1.856,1.037-1.763,2.105l1.945-0.018l-1.939,0.115
		c0.061,1.031,0.916,1.826,1.938,1.826C25.863,105.979,25.902,105.979,25.94,105.977z"/>
	<path fill="#B7E4DC" d="M31.249,121.857c-0.32-1.023-1.409-1.6-2.434-1.275c-1.023,0.318-1.595,1.408-1.274,2.434
		c0.005,0.016,0.058,0.176,0.063,0.191c0.268,0.793,0.983,1.254,1.771,1.254c0.213,0,0.43-0.033,0.646-0.104
		C31.032,124.027,31.566,122.873,31.249,121.857z"/>
	<path fill="#B7E4DC" d="M32.144,129.445c-0.977,0.441-1.412,1.59-0.971,2.568c0.01,0.02,0.085,0.178,0.094,0.197
		c0.33,0.666,0.975,1.031,1.662,1.031c0.291,0,0.592-0.066,0.877-0.201c0.959-0.451,1.344-1.66,0.908-2.627
		C34.272,129.439,33.122,129,32.144,129.445z"/>
	<path fill="#B7E4DC" d="M28.94,113.031l-0.031-0.152c-0.217-1.047-1.227-1.682-2.277-1.469c-1.045,0.209-1.719,1.262-1.516,2.313
		c0.004,0.008,0.021,0.094,0.021,0.104c0.191,0.916,0.998,1.543,1.899,1.543c0.131,0,0.266-0.012,0.399-0.041
		C28.486,115.109,29.16,114.08,28.94,113.031z"/>
	<path fill="#B7E4DC" d="M43.243,53.233c0.584,0,1.173-0.252,1.57-0.722c0.693-0.819,0.59-2.045-0.228-2.737
		c-0.822-0.694-2.046-0.59-2.737,0.228l-0.1,0.118c-0.693,0.819-0.54,1.984,0.277,2.678C42.376,53.094,42.808,53.233,43.243,53.233z
		"/>
	<path fill="#B7E4DC" d="M128.564,33.313l0.188,0.083c0.246,0.104,0.504,0.151,0.754,0.151c0.758,0,1.477-0.445,1.789-1.187
		c0.418-0.989-0.045-2.127-1.033-2.545l-0.098-0.043c-0.979-0.442-2.129-0.006-2.57,0.971
		C127.152,31.721,127.588,32.87,128.564,33.313z"/>
	<path fill="#B7E4DC" d="M110.922,28.125c0.006,0.002,0.166,0.027,0.172,0.027c0.098,0.015,0.197,0.021,0.295,0.021
		c0.943,0,1.771-0.689,1.916-1.651c0.16-1.059-0.568-2.05-1.629-2.21l-0.443,1.895l0.309-1.916
		c-1.057-0.178-2.055,0.548-2.227,1.606C109.145,26.957,109.863,27.953,110.922,28.125z"/>
	<path fill="#B7E4DC" d="M120.037,30.186c0.193,0.061,0.389,0.089,0.58,0.089c0.826,0,1.594-0.532,1.854-1.363
		c0.32-1.022-0.25-2.112-1.275-2.433c-0.014-0.004-0.176-0.053-0.189-0.056c-1.029-0.294-2.018,0.311-2.324,1.329
		C118.375,28.771,119.021,29.868,120.037,30.186z"/>
	<path fill="#B7E4DC" d="M136.764,37.575l0.137,0.083c0.314,0.188,0.658,0.276,0.998,0.276c0.66,0,1.303-0.337,1.668-0.943
		c0.551-0.92,0.252-2.112-0.666-2.664l-0.131-0.077c-0.92-0.555-2.111-0.26-2.666,0.659
		C135.551,35.827,135.844,37.021,136.764,37.575z"/>
	<path fill="#B7E4DC" d="M157.277,56.183c0.371,0.477,0.912,0.72,1.463,0.72c0.418,0,0.842-0.137,1.205-0.413
		c0.848-0.644,0.984-1.895,0.354-2.749c-0.002-0.003-0.021-0.029-0.021-0.029c-0.641-0.862-1.844-1.031-2.707-0.393
		c-0.861,0.638-1.033,1.863-0.396,2.727C157.184,56.059,157.266,56.169,157.277,56.183z"/>
	<path fill="#B7E4DC" d="M152.67,49.728c0.477,0,0.955-0.175,1.33-0.526c0.781-0.734,0.82-1.963,0.086-2.744
		c-0.008-0.011-0.125-0.133-0.137-0.142c-0.742-0.76-1.908-0.722-2.676,0.012c-0.77,0.737-0.746,2.012-0.018,2.787
		C151.637,49.522,152.154,49.728,152.67,49.728z"/>
	<path fill="#B7E4DC" d="M145.662,43.36c0.566,0,1.129-0.246,1.512-0.723c0.674-0.834,0.543-2.057-0.291-2.73l-0.133-0.106
		c-0.834-0.664-2.004-0.484-2.672,0.355c-0.668,0.839-0.475,2.105,0.365,2.773C144.803,43.219,145.234,43.36,145.662,43.36z"/>
	<path fill="#B7E4DC" d="M101.902,27.273c0.02,0.002,0.039,0.002,0.061,0.002c1.045,0,1.908-0.833,1.938-1.886
		c0.033-1.073-0.811-1.966-1.883-1.998l-0.154-0.005c-1.084-0.031-1.891,0.814-1.92,1.886
		C99.91,26.346,100.832,27.242,101.902,27.273z"/>
	<path fill="#B7E4DC" d="M65.371,35.599c0.318,0,0.64-0.073,0.937-0.225c0.952-0.492,1.325-1.663,0.832-2.616
		c-0.491-0.955-1.667-1.328-2.617-0.834c-0.008,0.003-0.15,0.079-0.157,0.084c-0.942,0.502-1.233,1.634-0.737,2.58
		C63.97,35.24,64.663,35.599,65.371,35.599z"/>
	<path fill="#B7E4DC" d="M74.044,31.76c0.229,0,0.461-0.036,0.685-0.118c1.009-0.361,1.534-1.475,1.171-2.483
		s-1.477-1.534-2.484-1.17c-0.008,0.003-0.162,0.06-0.17,0.063c-1,0.375-1.438,1.458-1.07,2.461
		C72.462,31.291,73.24,31.76,74.044,31.76z"/>
	<path fill="#B7E4DC" d="M57.262,40.516c0.408,0,0.822-0.12,1.173-0.363c0.88-0.612,1.096-1.823,0.482-2.703
		c-0.611-0.88-1.824-1.096-2.703-0.485l-0.128,0.09c-0.88,0.612-1.032,1.779-0.419,2.659C56.036,40.242,56.645,40.516,57.262,40.516
		z"/>
	<path fill="#B7E4DC" d="M82.995,29.105c0.143,0,0.287-0.016,0.433-0.049l0.165-0.038c1.045-0.246,1.691-1.291,1.446-2.335
		c-0.247-1.044-1.3-1.693-2.335-1.445l-0.138,0.031c-1.046,0.236-1.701,1.277-1.463,2.324
		C81.309,28.495,82.108,29.105,82.995,29.105z"/>
	<path fill="#B7E4DC" d="M92.464,27.576c0.068,0,0.137-0.004,0.203-0.011c1.07-0.095,1.859-1.036,1.765-2.104
		s-1.028-1.864-2.104-1.765l-0.184,0.017c-1.066,0.111-1.779,1.06-1.67,2.126C90.577,26.838,91.475,27.576,92.464,27.576z"/>
	<path fill="#B7E4DC" d="M49.835,46.446c0.495,0,0.991-0.18,1.375-0.531c0.805-0.71,0.879-1.939,0.168-2.741
		c-0.711-0.806-1.941-0.879-2.741-0.169l-0.144,0.131c-0.789,0.725-0.797,1.914-0.07,2.703
		C48.796,46.246,49.313,46.446,49.835,46.446z"/>
	<path fill="#B7E4DC" d="M168.84,125.141c-0.992-0.404-2.127,0.072-2.529,1.068l-0.061,0.143c-0.402,0.994,0.088,2.09,1.08,2.494
		c0.232,0.094,0.475,0.139,0.711,0.139c0.777,0,1.525-0.479,1.836-1.238c0.002-0.002,0.029-0.076,0.029-0.076
		C170.313,126.676,169.834,125.543,168.84,125.141z"/>
	<path fill="#B7E4DC" d="M26.645,87.01c0.115,0.022,0.23,0.031,0.345,0.031c0.914,0,1.747-0.693,1.939-1.617
		c0.221-1.05-0.453-2.078-1.503-2.298c-1.061-0.227-2.08,0.455-2.298,1.503c-0.004,0.019-0.037,0.189-0.04,0.208
		C24.901,85.883,25.603,86.808,26.645,87.01z"/>
	<path fill="#B7E4DC" d="M171.604,116.074c-1.031-0.283-2.104,0.328-2.385,1.361c-0.006,0.02-0.049,0.186-0.053,0.203
		c-0.254,1.041,0.387,2.092,1.428,2.346c0.154,0.037,0.309,0.055,0.461,0.055c0.875,0,1.67-0.598,1.885-1.486l-1.848-0.607
		l1.873,0.514C173.248,117.424,172.639,116.355,171.604,116.074z"/>
	<path fill="#B7E4DC" d="M168.096,73.381c0.244,0,0.492-0.047,0.73-0.144c0.994-0.403,1.473-1.537,1.068-2.531l-0.063-0.153
		c-0.408-0.992-1.516-1.398-2.508-0.987c-0.992,0.408-1.438,1.612-1.027,2.604C166.604,72.923,167.33,73.381,168.096,73.381z"/>
	<path fill="#B7E4DC" d="M173.488,97.063c-1.072,0-1.941,0.871-1.941,1.942v0.157c0,0.007,0,0.013,0,0.019c0,0.009,0,0.016,0,0.021
		v0.157c0,1.071,0.869,1.942,1.941,1.942c1.074,0,1.943-0.871,1.943-1.942v-0.157c0-0.006,0-0.013,0-0.021c0-0.006,0-0.012,0-0.019
		v-0.157C175.432,97.935,174.563,97.063,173.488,97.063z"/>
	<path fill="#B7E4DC" d="M163.984,64.859c0.309,0,0.621-0.074,0.912-0.229c0.945-0.505,1.305-1.681,0.799-2.627
		c-0.01-0.019-0.096-0.173-0.105-0.191c-0.529-0.919-1.66-1.175-2.588-0.661c-0.926,0.516-1.23,1.744-0.732,2.681
		C162.619,64.486,163.291,64.859,163.984,64.859z"/>
	<path fill="#B7E4DC" d="M33.806,65.319c-0.979-0.448-2.129-0.021-2.575,0.954l-0.05,0.104c-0.467,0.965-0.063,2.127,0.901,2.595
		c0.272,0.13,0.562,0.193,0.845,0.193c0.723,0,1.414-0.403,1.75-1.097l0.083-0.176C35.207,66.918,34.779,65.766,33.806,65.319z"/>
	<path fill="#B7E4DC" d="M136.916,160.742c-0.006,0.006-0.145,0.09-0.152,0.094c-0.912,0.566-1.191,1.762-0.627,2.672
		c0.369,0.596,1.004,0.92,1.652,0.92c0.352,0,0.703-0.094,1.023-0.291l-0.893-1.732l1.002,1.662c0.92-0.551,1.215-1.748,0.66-2.664
		C139.027,160.484,137.834,160.191,136.916,160.742z"/>
	<path fill="#B7E4DC" d="M173.139,106.805c-1.045-0.135-2.031,0.666-2.188,1.713c-0.158,1.063,0.572,2.053,1.633,2.209
		c0.098,0.016,0.195,0.021,0.291,0.021c0.945,0,1.773-0.691,1.918-1.656c0.002-0.018,0.025-0.193,0.027-0.213
		C174.943,107.826,174.189,106.943,173.139,106.805z"/>
	<path fill="#B7E4DC" d="M169.193,80.879c0.217,0.889,1.012,1.485,1.887,1.485c0.152,0,0.305-0.019,0.459-0.057
		c1.043-0.251,1.684-1.302,1.43-2.344c-0.004-0.019-0.049-0.187-0.053-0.205c-0.281-1.022-1.316-1.556-2.338-1.292
		C169.549,78.73,168.943,79.848,169.193,80.879z"/>
	<path fill="#B7E4DC" d="M128.619,165.074c-0.982,0.428-1.434,1.572-1.006,2.555c0.318,0.732,1.033,1.168,1.783,1.168
		c0.258,0,0.521-0.051,0.773-0.164c0.008-0.002,0.158-0.068,0.166-0.072c0.973-0.439,1.338-1.551,0.906-2.523
		C130.807,165.059,129.596,164.646,128.619,165.074z"/>
	<path fill="#B7E4DC" d="M144.467,155.461c-0.01,0.01-0.141,0.113-0.148,0.123c-0.82,0.676-0.898,1.854-0.229,2.682
		c0.375,0.465,0.936,0.697,1.502,0.697c0.443,0,0.889-0.143,1.256-0.43c0.002-0.004,0.037-0.031,0.037-0.031
		c0.84-0.67,0.98-1.891,0.311-2.73C146.531,154.934,145.307,154.795,144.467,155.461z"/>
	<path fill="#B7E4DC" d="M151.295,149.254c-0.012,0.008-0.127,0.131-0.137,0.143c-0.734,0.779-0.695,2.008,0.086,2.742
		c0.375,0.352,0.854,0.529,1.33,0.529c0.518,0,1.033-0.207,1.414-0.613l-1.307-1.441l1.387,1.359
		c0.75-0.768,0.738-1.996-0.027-2.746C153.275,148.475,152.043,148.488,151.295,149.254z"/>
	<path fill="#B7E4DC" d="M157.197,142.336c-0.658,0.846-0.506,2.068,0.34,2.727c0.355,0.273,0.773,0.408,1.191,0.408
		c0.58,0,1.152-0.256,1.533-0.75c0.014-0.016,0.119-0.158,0.131-0.174c0.623-0.857,0.398-1.996-0.449-2.633
		C159.098,141.277,157.848,141.502,157.197,142.336z"/>
	<path fill="#B7E4DC" d="M170.938,89.787c0.002,0.021,0.023,0.194,0.027,0.214c0.145,0.964,0.973,1.655,1.918,1.655
		c0.096,0,0.191-0.006,0.289-0.021c1.061-0.158,1.791-1.147,1.635-2.208l-1.941,0.132l1.928-0.226
		c-0.123-1.066-1.084-1.831-2.154-1.701C171.572,87.758,170.811,88.723,170.938,89.787z"/>
	<path fill="#B7E4DC" d="M66.353,163.059l-0.184-0.094c-0.961-0.484-2.127-0.09-2.605,0.869s-0.09,2.123,0.869,2.605l0.094,0.049
		c0.289,0.154,0.604,0.229,0.911,0.229c0.693,0,1.366-0.375,1.714-1.029C67.657,164.74,67.3,163.566,66.353,163.059z"/>
	<path fill="#B7E4DC" d="M55.622,158.666c-0.613,0.879-0.398,2.09,0.482,2.703l0.127,0.088c0.328,0.229,0.69,0.334,1.049,0.334
		c0.609,0,1.206-0.309,1.592-0.861c0.612-0.881,0.333-2.137-0.547-2.75C57.448,157.57,56.235,157.785,55.622,158.666z"/>
	<path fill="#B7E4DC" d="M41.989,145.566c-0.818,0.691-0.922,1.918-0.229,2.738l0.101,0.117c0.37,0.438,0.88,0.652,1.397,0.652
		c0.451,0,0.908-0.164,1.289-0.484c0.818-0.693,0.871-1.977,0.178-2.795C44.034,144.975,42.81,144.873,41.989,145.566z"/>
	<path fill="#B7E4DC" d="M51.108,152.402c-0.801-0.709-2.029-0.639-2.742,0.168c-0.709,0.805-0.635,2.029,0.169,2.74l0.087,0.078
		c0.373,0.344,0.845,0.514,1.314,0.514c0.523,0,1.047-0.211,1.43-0.625c0.727-0.789,0.676-2.018-0.113-2.746L51.108,152.402z"/>
	<path fill="#B7E4DC" d="M36.547,137.818c-0.905,0.572-1.177,1.771-0.604,2.678c0.007,0.016,0.102,0.158,0.11,0.17
		c0.362,0.543,0.935,0.822,1.529,0.822c0.373,0,0.757-0.111,1.102-0.334c0.893-0.578,1.109-1.832,0.541-2.73
		C38.655,137.518,37.457,137.246,36.547,137.818z"/>
	<path fill="#B7E4DC" d="M120.117,168.203c-0.014,0.002-0.178,0.051-0.191,0.055c-1.023,0.32-1.594,1.41-1.273,2.434
		c0.26,0.83,1.027,1.361,1.854,1.361c0.191,0,0.387-0.027,0.58-0.088l-0.432-1.896l0.537,1.867c1.031-0.299,1.627-1.375,1.33-2.404
		C122.223,168.496,121.135,167.902,120.117,168.203z"/>
	<path fill="#B7E4DC" d="M37.571,60.91c0.626,0,1.242-0.304,1.617-0.864l0.119-0.183c0.564-0.912,0.285-2.108-0.626-2.675
		c-0.909-0.564-2.107-0.286-2.675,0.627l-0.051,0.075c-0.594,0.893-0.353,2.101,0.539,2.695C36.826,60.806,37.2,60.91,37.571,60.91z
		"/>
	<path fill="#B7E4DC" d="M74.783,166.789l-0.189-0.07c-1.006-0.355-2.121,0.182-2.474,1.195c-0.352,1.014,0.183,2.119,1.196,2.473
		l0.104,0.037c0.225,0.084,0.453,0.125,0.682,0.125c0.785,0,1.525-0.48,1.816-1.26C76.298,168.285,75.788,167.164,74.783,166.789z"
		/>
	<path fill="#B7E4DC" d="M111.115,170.254l-0.162,0.027c-1.059,0.176-1.773,1.178-1.598,2.232c0.158,0.951,0.98,1.623,1.912,1.623
		c0.107,0,0.215-0.008,0.322-0.025l-0.166-1.939l0.311,1.918c1.059-0.174,1.777-1.168,1.607-2.229
		C113.17,170.803,112.164,170.074,111.115,170.254z"/>
	<path fill="#B7E4DC" d="M101.941,171.133c-0.008,0-0.172,0.008-0.182,0.008c-1.072,0.047-1.902,0.955-1.855,2.025
		c0.047,1.045,0.906,1.857,1.939,1.857c0.029,0,0.057,0,0.086-0.002l0.07-1.945l0.057,1.941c1.072-0.033,1.916-0.926,1.883-2
		C103.908,171.947,102.994,171.092,101.941,171.133z"/>
	<path fill="#B7E4DC" d="M92.583,170.836c-1.059-0.111-2.021,0.668-2.131,1.736c-0.111,1.064,0.666,2.021,1.732,2.129l0.184,0.016
		c0.059,0.006,0.113,0.01,0.17,0.01c0.99,0,1.783-0.768,1.871-1.779C94.503,171.881,93.65,170.934,92.583,170.836z"/>
	<path fill="#B7E4DC" d="M83.62,169.398l-0.164-0.037c-1.049-0.232-2.082,0.432-2.314,1.479c-0.23,1.047,0.431,2.082,1.478,2.314
		l0.14,0.031c0.146,0.033,0.29,0.049,0.433,0.049c0.886,0,1.687-0.611,1.892-1.512C85.321,170.676,84.666,169.635,83.62,169.398z"/>
	<path fill="#B7E4DC" d="M101.521,92.895v-9.103c0-1.073-0.869-1.942-1.941-1.942s-1.942,0.869-1.942,1.942v9.103
		c-2.09,0.644-3.723,2.279-4.369,4.366h-9.102c-1.072,0-1.942,0.871-1.942,1.942c0,1.074,0.87,1.941,1.942,1.941h9.102
		c0.646,2.092,2.279,3.727,4.369,4.373v9.1c0,1.074,0.87,1.941,1.942,1.941s1.941-0.867,1.941-1.941v-9.1
		c2.09-0.646,3.723-2.281,4.369-4.373h9.102c1.072,0,1.943-0.867,1.943-1.941c0-1.071-0.871-1.942-1.943-1.942h-9.102
		C105.244,95.174,103.611,93.538,101.521,92.895z M99.58,101.955c-1.515,0-2.745-1.229-2.75-2.74c0-0.003,0.002-0.006,0.002-0.012
		c0-0.003-0.002-0.006-0.002-0.01c0.005-1.483,1.189-2.685,2.666-2.73c0.029,0,0.053,0.016,0.084,0.016s0.055-0.016,0.084-0.016
		c1.479,0.046,2.666,1.253,2.666,2.74C102.33,100.721,101.098,101.955,99.58,101.955z"/>
	<path fill="#B7E4DC" d="M45.964,97.264H45.81c-1.073,0-1.865,0.868-1.865,1.942c0,1.071,0.947,1.942,2.02,1.942
		s1.941-0.871,1.941-1.942C47.905,98.132,47.036,97.264,45.964,97.264z"/>
	<path fill="#B7E4DC" d="M55.441,97.264h-0.156c-1.073,0-1.942,0.868-1.942,1.942c0,1.071,0.869,1.942,1.942,1.942h0.156
		c1.072,0,1.942-0.871,1.942-1.942C57.384,98.132,56.514,97.264,55.441,97.264z"/>
	<path fill="#B7E4DC" d="M151.645,97.264h-0.156c-1.072,0-1.941,0.868-1.941,1.942c0,1.071,0.869,1.942,1.941,1.942h0.156
		c1.074,0,1.943-0.871,1.943-1.942C153.588,98.132,152.719,97.264,151.645,97.264z"/>
	<path fill="#B7E4DC" d="M142.168,97.264h-0.154c-1.016,0-1.754,0.786-1.836,1.775l-13.068-7.146l8.379-28.593l-28.596,8.375
		L99.58,58.304l-7.313,13.372l-28.592-8.378l8.375,28.596l-13.371,7.313l13.371,7.31l-8.375,28.596l28.592-8.379l7.313,13.373
		l7.311-13.369l28.596,8.375l-8.373-28.596l13.053-7.14c0.098,0.993,0.988,1.772,2.002,1.772c1.072,0,1.941-0.871,1.941-1.942
		C144.109,98.132,143.24,97.264,142.168,97.264z M129.762,69.023l-6.141,20.961l-9.582-5.24l-5.238-9.579L129.762,69.023z
		 M69.397,69.023l20.961,6.141l-5.238,9.58l-9.584,5.242L69.397,69.023z M69.397,129.389l6.139-20.967l9.584,5.24l5.24,9.584
		L69.397,129.389z M129.764,129.389l-20.965-6.143l5.24-9.582l9.586-5.242L129.764,129.389z M111.178,110.803L99.58,132.01
		l-11.599-21.209L66.774,99.206l21.207-11.601L99.58,66.399l11.598,21.206l21.207,11.601L111.178,110.803z"/>
</g>
</svg>
