<?xml version="1.0" encoding="utf-8"?>
<!-- Generator: Adobe Illustrator 16.0.0, SVG Export Plug-In . SVG Version: 6.00 Build 0)  -->
<!DOCTYPE svg PUBLIC "-//W3C//DTD SVG 1.1//EN" "http://www.w3.org/Graphics/SVG/1.1/DTD/svg11.dtd">
<svg version="1.1" id="Layer_1" xmlns="http://www.w3.org/2000/svg" xmlns:xlink="http://www.w3.org/1999/xlink" x="0px" y="0px"
	 width="400px" height="400px" viewBox="0 0 400 400" enable-background="new 0 0 400 400" xml:space="preserve">
<g>
	<polygon fill="none" stroke="#66D4C0" stroke-width="14" stroke-miterlimit="10" points="90,135.887 200.5,71.486 311,135.887 
		311,264.687 200.5,329.087 90,264.687 	"/>
	<circle fill="#66D4C0" cx="200.065" cy="199.416" r="69.186"/>
	
		<circle fill="#FFFFFF" stroke="#47B29E" stroke-width="3" stroke-linecap="round" stroke-linejoin="round" stroke-miterlimit="10" cx="200.065" cy="199.416" r="56.887"/>
	
		<path fill="#B7E4DC" stroke="#47B29E" stroke-width="3" stroke-linecap="round" stroke-linejoin="round" stroke-miterlimit="10" d="
		M217.18,208.277c4.796-4.539,7.792-10.961,7.792-18.085c0-13.756-11.15-24.908-24.907-24.908s-24.907,11.151-24.907,24.908
		c0,7.125,2.997,13.546,7.792,18.085c-11.584,6.143-19.478,18.318-19.478,32.344c0,0.814,0.036,1.621,0.088,2.423
		c9.88,8.274,22.608,13.259,36.504,13.259c13.894,0,26.624-4.984,36.502-13.259c0.053-0.803,0.09-1.608,0.09-2.423
		C236.657,226.596,228.764,214.42,217.18,208.277z"/>
	
		<circle fill="#B7E4DC" stroke="#47B29E" stroke-width="3" stroke-linecap="round" stroke-linejoin="round" stroke-miterlimit="10" cx="309.719" cy="265.122" r="37.422"/>
	
		<circle fill="#B7E4DC" stroke="#47B29E" stroke-width="3" stroke-linecap="round" stroke-linejoin="round" stroke-miterlimit="10" cx="200.935" cy="71.922" r="37.421"/>
	
		<circle fill="#B7E4DC" stroke="#47B29E" stroke-width="3" stroke-linecap="round" stroke-linejoin="round" stroke-miterlimit="10" cx="91.281" cy="264.251" r="37.422"/>
	
		<circle fill="#B7E4DC" stroke="#47B29E" stroke-width="3" stroke-linecap="round" stroke-linejoin="round" stroke-miterlimit="10" cx="90.411" cy="137.192" r="26.978"/>
	
		<circle fill="#B7E4DC" stroke="#47B29E" stroke-width="3" stroke-linecap="round" stroke-linejoin="round" stroke-miterlimit="10" cx="312.33" cy="137.192" r="26.979"/>
	
		<circle fill="#B7E4DC" stroke="#47B29E" stroke-width="3" stroke-linecap="round" stroke-linejoin="round" stroke-miterlimit="10" cx="200.935" cy="329.521" r="26.978"/>
	
		<polygon fill="#FFFFFF" stroke="#47B29E" stroke-width="3" stroke-linecap="round" stroke-linejoin="round" stroke-miterlimit="10" points="
		72.758,275.5 90.846,244.171 108.934,275.5 	"/>
	
		<circle fill="#FFFFFF" stroke="#47B29E" stroke-width="3" stroke-linecap="round" stroke-linejoin="round" stroke-miterlimit="10" cx="201.588" cy="71.269" r="18.058"/>
	
		<rect x="294.5" y="250.5" fill="#FFFFFF" stroke="#47B29E" stroke-width="3" stroke-linecap="round" stroke-linejoin="round" stroke-miterlimit="10" width="32" height="32"/>
</g>
</svg>
