<?xml version="1.0" encoding="utf-8"?>
<!-- Generator: Adobe Illustrator 16.0.0, SVG Export Plug-In . SVG Version: 6.00 Build 0)  -->
<!DOCTYPE svg PUBLIC "-//W3C//DTD SVG 1.1//EN" "http://www.w3.org/Graphics/SVG/1.1/DTD/svg11.dtd">
<svg version="1.1" id="Layer_1" xmlns="http://www.w3.org/2000/svg" xmlns:xlink="http://www.w3.org/1999/xlink" x="0px" y="0px"
	 width="400px" height="400px" viewBox="0 0 400 400" enable-background="new 0 0 400 400" xml:space="preserve">
<g>
	<g>
		
			<rect x="55.76" y="159.395" transform="matrix(0.7071 0.7071 -0.7071 0.7071 195.2388 -84.2161)" fill="#B7E4DC" stroke="#47B29E" stroke-width="3" stroke-linecap="round" stroke-linejoin="round" stroke-miterlimit="10" width="287.034" height="68.342"/>
		
			<line fill="none" stroke="#47B29E" stroke-width="3" stroke-linecap="round" stroke-linejoin="round" stroke-miterlimit="10" x1="141.658" y1="183.53" x2="174.371" y2="150.818"/>
		
			<line fill="none" stroke="#47B29E" stroke-width="3" stroke-linecap="round" stroke-linejoin="round" stroke-miterlimit="10" x1="209.313" y1="251.186" x2="242.025" y2="218.474"/>
		
			<line fill="none" stroke="#47B29E" stroke-width="3" stroke-linecap="round" stroke-linejoin="round" stroke-miterlimit="10" x1="107.46" y1="149.332" x2="125.304" y2="131.488"/>
		
			<line fill="none" stroke="#47B29E" stroke-width="3" stroke-linecap="round" stroke-linejoin="round" stroke-miterlimit="10" x1="176.601" y1="218.474" x2="194.443" y2="200.63"/>
		
			<line fill="none" stroke="#47B29E" stroke-width="3" stroke-linecap="round" stroke-linejoin="round" stroke-miterlimit="10" x1="244.999" y1="286.871" x2="262.842" y2="269.028"/>
		
			<line fill="none" stroke="#47B29E" stroke-width="3" stroke-linecap="round" stroke-linejoin="round" stroke-miterlimit="10" x1="90.36" y1="132.231" x2="100.769" y2="121.823"/>
		
			<line fill="none" stroke="#47B29E" stroke-width="3" stroke-linecap="round" stroke-linejoin="round" stroke-miterlimit="10" x1="124.56" y1="166.431" x2="134.968" y2="156.022"/>
		
			<line fill="none" stroke="#47B29E" stroke-width="3" stroke-linecap="round" stroke-linejoin="round" stroke-miterlimit="10" x1="158.758" y1="200.63" x2="169.167" y2="190.222"/>
		
			<line fill="none" stroke="#47B29E" stroke-width="3" stroke-linecap="round" stroke-linejoin="round" stroke-miterlimit="10" x1="192.958" y1="234.827" x2="203.365" y2="224.42"/>
		
			<line fill="none" stroke="#47B29E" stroke-width="3" stroke-linecap="round" stroke-linejoin="round" stroke-miterlimit="10" x1="227.157" y1="269.028" x2="237.564" y2="258.621"/>
		
			<line fill="none" stroke="#47B29E" stroke-width="3" stroke-linecap="round" stroke-linejoin="round" stroke-miterlimit="10" x1="261.356" y1="303.227" x2="271.765" y2="292.819"/>
	</g>
	<g>
		
			<path fill="#B7E4DC" stroke="#47B29E" stroke-width="3" stroke-linecap="round" stroke-linejoin="round" stroke-miterlimit="10" d="
			M316.312,98.027c6.892,6.891,5.677,19.277-2.712,27.667l-16.201,16.202c-8.389,8.389-20.775,9.603-27.667,2.712l-20.795-20.795
			c-6.891-6.891-5.676-19.277,2.713-27.666l16.201-16.202c8.39-8.388,20.775-9.603,27.667-2.711L316.312,98.027z"/>
		
			<polygon fill="#B7E4DC" stroke="#47B29E" stroke-width="3" stroke-linecap="round" stroke-linejoin="round" stroke-miterlimit="10" points="
			94.223,253.573 77.774,314.37 139.14,298.489 288.029,149.598 243.114,104.681 		"/>
		<polygon fill="#66D4C0" stroke="#47B29E" stroke-miterlimit="10" points="78.531,314.25 83.047,297.415 95.368,309.743 		"/>
		
			<path fill="#B7E4DC" stroke="#47B29E" stroke-width="3" stroke-linecap="round" stroke-linejoin="round" stroke-miterlimit="10" d="
			M294.27,139.201c2.526,2.525,2.526,6.623,0,9.149l0,0c-2.527,2.527-6.622,2.527-9.15,0l-39.925-39.926
			c-2.526-2.526-2.526-6.622,0-9.15l0,0c2.525-2.525,6.623-2.525,9.148,0L294.27,139.201z"/>
		
			<path fill="#B7E4DC" stroke="#47B29E" stroke-width="3" stroke-linecap="round" stroke-linejoin="round" stroke-miterlimit="10" d="
			M303.419,130.05c2.527,2.527,2.527,6.623,0,9.151l0,0c-2.527,2.525-6.623,2.525-9.149,0l-39.927-39.927
			c-2.525-2.525-2.525-6.623,0-9.149l0,0c2.527-2.527,6.624-2.527,9.15,0L303.419,130.05z"/>
		
			<line fill="none" stroke="#47B29E" stroke-width="3" stroke-linecap="round" stroke-linejoin="round" stroke-miterlimit="10" x1="108.78" y1="260.644" x2="252.68" y2="116.742"/>
		
			<line fill="none" stroke="#47B29E" stroke-width="3" stroke-linecap="round" stroke-linejoin="round" stroke-miterlimit="10" x1="131.238" y1="283.101" x2="275.139" y2="139.201"/>
		
			<path fill="#FFFFFF" stroke="#47B29E" stroke-width="3" stroke-linecap="round" stroke-linejoin="round" stroke-miterlimit="10" d="
			M92.838,310.689l-10.813-10.258l12.823-45.403l14.557,6.237c0,0-0.209,18.924,1.871,23.498c0,0,17.676-0.623,19.547-2.911
			l8.317,16.637L92.838,310.689z"/>
	</g>
	
		<rect x="138.771" y="161.805" transform="matrix(0.7071 -0.7071 0.7071 0.7071 -67.4962 171.0905)" opacity="0.5" fill="#66D4C0" width="68.013" height="10.432"/>
	
		<rect x="192.148" y="215.246" transform="matrix(0.7071 -0.7071 0.7071 0.7071 -91.2686 225.1603)" opacity="0.5" fill="#66D4C0" width="68.013" height="15.007"/>
	<polygon opacity="0.5" fill="#66D4C0" points="286.974,151.367 138.959,297.594 133.28,283.839 276.36,140.757 	"/>
</g>
</svg>
