<?xml version="1.0" encoding="utf-8"?>
<!-- Generator: Adobe Illustrator 16.0.0, SVG Export Plug-In . SVG Version: 6.00 Build 0)  -->
<!DOCTYPE svg PUBLIC "-//W3C//DTD SVG 1.1//EN" "http://www.w3.org/Graphics/SVG/1.1/DTD/svg11.dtd">
<svg version="1.1" id="Layer_1" xmlns="http://www.w3.org/2000/svg" xmlns:xlink="http://www.w3.org/1999/xlink" x="0px" y="0px"
	 width="400px" height="400px" viewBox="0 0 400 400" enable-background="new 0 0 400 400" xml:space="preserve">
<g>
	
		<path fill="#B7E4DC" stroke="#47B29E" stroke-width="3" stroke-linecap="round" stroke-linejoin="round" stroke-miterlimit="10" d="
		M348.5,247.39c0,11.938-8.394,23.11-19.921,23.11H56.227c-11.528,0-21.727-11.172-21.727-23.11V74.26
		c0-11.938,10.199-20.76,21.727-20.76h272.352c11.527,0,19.921,8.822,19.921,20.76V247.39z"/>
	
		<path fill="#FFFFFF" stroke="#47B29E" stroke-width="3" stroke-linecap="round" stroke-linejoin="round" stroke-miterlimit="10" d="
		M336.5,216.97c0,6.566-2.455,15.53-10.42,15.53H65.798c-7.965,0-17.298-8.964-17.298-15.53V82.229
		c0-6.566,9.333-8.729,17.298-8.729H326.08c7.965,0,10.42,2.163,10.42,8.729V216.97z"/>
	<g>
		<path fill="#B7E4DC" d="M114.782,155.126l41.419,28.136c2.079,1.427,3.462,2.703,4.147,3.823c0.687,1.123,1.03,2.55,1.03,4.282
			c0,2.193-0.645,4.091-1.933,5.697c-1.29,1.605-2.788,2.408-4.491,2.408c-1.124,0-2.808-0.765-5.054-2.293l-61.691-42.052
			l61.691-42.052c2.246-1.479,3.909-2.218,4.991-2.218c1.747,0,3.265,0.79,4.554,2.37c1.288,1.58,1.933,3.466,1.933,5.658
			c0,1.733-0.343,3.161-1.03,4.281c-0.685,1.122-2.068,2.397-4.147,3.824L114.782,155.126z"/>
		<path fill="#B7E4DC" d="M220.507,101.292l-40.981,108.266c-1.041,2.702-1.976,4.459-2.808,5.275
			c-1.081,1.068-2.392,1.605-3.93,1.605c-1.746,0-3.253-0.765-4.521-2.294c-1.27-1.53-1.902-3.261-1.902-5.199
			c0-1.376,0.498-3.391,1.497-6.041l41.107-108.188c1.039-2.701,1.954-4.46,2.745-5.275c1.123-1.07,2.432-1.606,3.929-1.606
			c1.747,0,3.244,0.752,4.492,2.255c1.248,1.505,1.871,3.225,1.871,5.161C222.005,96.629,221.507,98.644,220.507,101.292z"/>
		<path fill="#B7E4DC" d="M271.516,155.126l-41.419-28.137c-2.08-1.427-3.462-2.702-4.148-3.824
			c-0.687-1.12-1.029-2.548-1.029-4.281c0-2.192,0.644-4.078,1.933-5.658c1.288-1.58,2.807-2.37,4.554-2.37
			c1.081,0,2.744,0.739,4.99,2.218l61.692,42.052l-61.692,42.052c-2.246,1.528-3.909,2.293-4.99,2.293
			c-1.748,0-3.266-0.79-4.554-2.371c-1.29-1.578-1.933-3.491-1.933-5.734c0-1.732,0.342-3.159,1.029-4.282
			c0.686-1.12,2.068-2.396,4.148-3.823L271.516,155.126z"/>
	</g>
	
		<path fill="#FFFFFF" stroke="#47B29E" stroke-width="3" stroke-linecap="round" stroke-linejoin="round" stroke-miterlimit="10" d="
		M200.5,62.53c0,1.64-1.33,2.97-2.97,2.97H185.47c-1.64,0-2.97-1.33-2.97-2.97V62.47c0-1.64,1.33-2.97,2.97-2.97h12.061
		c1.64,0,2.97,1.33,2.97,2.97V62.53z"/>
	
		<path fill="#B7E4DC" stroke="#47B29E" stroke-width="3" stroke-linecap="round" stroke-linejoin="round" stroke-miterlimit="10" d="
		M252.835,324.5h-9.732l-12.402-54h-79.083l-10.401,54h-7.753c-3.708,0-6.715,3.291-6.715,7c0,3.708,3.006,7,6.715,7h5.223H246.12
		h6.715c3.708,0,6.714-3.292,6.714-7C259.549,327.791,256.543,324.5,252.835,324.5z"/>
	<polygon opacity="0.5" fill="#66D4C0" points="230.453,270 151.369,270 143.908,310.662 232.442,276.156 	"/>
	<polygon opacity="0.5" fill="#66D4C0" points="292.376,231.951 283.424,269.005 302.449,269.254 301.765,232.2 	"/>
	<polygon opacity="0.5" fill="#66D4C0" stroke="#47B29E" stroke-miterlimit="10" points="337.5,205.589 337.5,241.4 
		350.004,242.396 349.223,205.342 	"/>
	
		<path fill="#B7E4DC" stroke="#47B29E" stroke-width="3" stroke-linecap="round" stroke-linejoin="round" stroke-miterlimit="10" d="
		M366.5,328.299c0,4.755-1.683,10.201-5.624,10.201h-57.146c-3.94,0-9.229-5.446-9.229-10.201V215.954
		c0-4.755,5.289-7.454,9.229-7.454h57.146c3.941,0,5.624,2.699,5.624,7.454V328.299z"/>
	
		<path fill="#FFFFFF" stroke="#47B29E" stroke-width="3" stroke-linecap="round" stroke-linejoin="round" stroke-miterlimit="10" d="
		M308.604,324.5c-2.335,0-6.104-3.912-6.104-6.909v-97.912c0-2.996,3.769-3.179,6.104-3.179h47.936c2.336,0,1.961,0.183,1.961,3.179
		v97.912c0,2.997,0.375,6.909-1.961,6.909H308.604z"/>
	
		<path fill="#FFFFFF" stroke="#47B29E" stroke-width="3" stroke-linecap="round" stroke-linejoin="round" stroke-miterlimit="10" d="
		M335.5,213.216c0,0.709-0.575,1.284-1.284,1.284h-5.433c-0.709,0-1.284-0.575-1.284-1.284v-0.432c0-0.709,0.575-1.284,1.284-1.284
		h5.433c0.709,0,1.284,0.575,1.284,1.284V213.216z"/>
	
		<circle fill="#FFFFFF" stroke="#47B29E" stroke-width="3" stroke-linecap="round" stroke-linejoin="round" stroke-miterlimit="10" cx="331.918" cy="330.69" r="4.758"/>
	<g>
		<rect x="327" y="224" fill="#B7E4DC" width="26" height="14"/>
		<circle fill="#B7E4DC" cx="315.914" cy="229.686" r="6.344"/>
		<rect x="309" y="256" fill="#B7E4DC" width="44" height="26"/>
		<path fill="#B7E4DC" d="M349,246.05c0,1.077-0.874,1.95-1.952,1.95h-30.097c-1.078,0-1.952-0.873-1.952-1.95v-0.1
			c0-1.077,0.874-1.95,1.952-1.95h30.097c1.078,0,1.952,0.873,1.952,1.95V246.05z"/>
		<path fill="#B7E4DC" d="M352.809,288.5c0,0.979-0.669,1.5-1.493,1.5h-38.795c-0.824,0-1.492-0.521-1.492-1.5l0,0
			c0-0.979,0.667-1.5,1.492-1.5h38.795C352.14,287,352.809,287.521,352.809,288.5L352.809,288.5z"/>
		<path fill="#B7E4DC" d="M352.809,294.5c0,0.98-0.669,1.5-1.493,1.5h-38.795c-0.824,0-1.492-0.52-1.492-1.5l0,0
			c0-0.98,0.667-1.5,1.492-1.5h38.795C352.14,293,352.809,293.52,352.809,294.5L352.809,294.5z"/>
		<path fill="#B7E4DC" d="M352.809,300.5c0,0.979-0.669,1.5-1.493,1.5h-38.795c-0.824,0-1.492-0.521-1.492-1.5l0,0
			c0-0.98,0.667-1.5,1.492-1.5h38.795C352.14,299,352.809,299.52,352.809,300.5L352.809,300.5z"/>
		<path fill="#B7E4DC" d="M352.809,306.5c0,0.979-0.669,1.5-1.493,1.5h-38.795c-0.824,0-1.492-0.521-1.492-1.5l0,0
			c0-0.979,0.667-1.5,1.492-1.5h38.795C352.14,305,352.809,305.521,352.809,306.5L352.809,306.5z"/>
		<path fill="#B7E4DC" d="M345.349,312.5c0,0.979-0.549,1.5-1.226,1.5h-31.868c-0.677,0-1.225-0.521-1.225-1.5l0,0
			c0-0.979,0.548-1.5,1.225-1.5h31.868C344.799,311,345.349,311.521,345.349,312.5L345.349,312.5z"/>
	</g>
</g>
</svg>
