<?xml version="1.0" encoding="utf-8"?>
<!-- Generator: Adobe Illustrator 16.0.0, SVG Export Plug-In . SVG Version: 6.00 Build 0)  -->
<!DOCTYPE svg PUBLIC "-//W3C//DTD SVG 1.1//EN" "http://www.w3.org/Graphics/SVG/1.1/DTD/svg11.dtd">
<svg version="1.1" id="Layer_1" xmlns="http://www.w3.org/2000/svg" xmlns:xlink="http://www.w3.org/1999/xlink" x="0px" y="0px"
	 width="2499.591px" height="2821.07px" viewBox="0 0 2499.591 2821.07" enable-background="new 0 0 2499.591 2821.07"
	 xml:space="preserve">
<g>
	<path fill-rule="evenodd" clip-rule="evenodd" fill="#E1F6F3" d="M1232.912,1852.959c6.829,3.978,12.379,6.949,17.66,10.338
		c14.477,9.29,18.503,18.962,12.071,34.787c-5.484,13.492-12.275,26.635-19.987,38.996c-10.433,16.724-26.28,23.937-46.132,21.529
		c-7.604-0.923-15.201-1.927-22.816-2.758c-15.988-1.746-30.292,2.319-43.031,12.258c-17.431,13.6-27.753,31.993-36.009,51.946
		c-1.594,3.853-0.109,6.407,1.796,9.134c9.156,13.109,18.135,26.353,27.633,39.21c8.168,11.06,15.437,22.454,19.689,35.677
		c1.488,4.628,4.203,8.861,6.839,14.263c3.875-2.215,7.206-3.636,9.977-5.78c17.896-13.858,36.214-27.239,53.354-41.984
		c26.267-22.596,51.164-46.848,80.08-66.181c18.271-12.215,37.043-23.681,55.591-35.479c2.782-1.77,5.571-3.526,8.003-5.064
		c-3.297-13.723-6.777-26.845-9.533-40.117c-2.251-10.835-1.609-14.396,2.113-23.754c7.469,18.915,14.563,36.874,22.052,55.838
		c18.051-9.353,35.066-18.17,52.841-27.38c-1.656-2.719-3.084-5.161-4.607-7.544c-10.05-15.707-20.736-31.047-30.038-47.185
		c-13.601-23.598-23.167-48.76-24.116-76.423c-0.27-7.873,0.461-15.781,0.736-23.748c5.307-0.276,5.431,3.449,6.467,5.891
		c7.285,17.165,14.418,34.395,21.582,51.611c12.041,28.938,24.513,57.653,43.193,83.142c1.364,1.862,2.791,3.678,4.71,6.199
		c10.688-4.486,21.277-8.932,32.807-13.771c-2.249-3.236-3.979-5.907-5.89-8.44c-16.688-22.123-32.553-44.824-43.419-70.444
		c-5.175-12.199-8.847-25.066-12.693-37.784c-1.736-5.741-2.095-11.844,2.354-18.516c28.683,41.061,54.533,83.108,77.717,127.656
		c13.546-3.002,25.91-8.18,38.689-15.537c-3.146-3.249-5.796-6.103-8.571-8.829c-19.554-19.222-37.416-39.813-51.704-63.339
		c-16.307-26.847-27.208-55.557-30.188-87.018c-0.124-1.303-0.027-2.63,0.037-3.942c0.01-0.211,0.392-0.402,1.332-1.301
		c1.734,2.184,3.808,4.183,5.153,6.589c8.13,14.529,16.162,29.114,24.091,43.754c7.772,14.349,15.084,28.955,23.143,43.138
		c9.584,16.866,21.267,32.229,34.85,46.15c5.332,5.464,10.18,11.4,15.82,17.769c14.762-7.069,29.607-14.399,44.64-21.319
		c15.084-6.943,30.763-12.172,49.23-13.895c-3.147-2.459-4.629-3.647-6.141-4.794c-31.579-23.955-63.271-47.763-94.702-71.909
		c-19.896-15.284-34.904-34.642-45.822-57.235c-4.17-8.631-8.772-17.054-14.142-27.433c3.798,1.176,6.13,1.271,7.575,2.451
		c6.946,5.672,14.523,10.888,20.303,17.617c38.117,44.385,83.571,80.23,131.232,113.479c26.23,18.297,52.9,35.973,79.598,53.586
		c6.908,4.557,14.732,7.706,22.012,11.727c3.961,2.188,8.704,3.713,10.006,8.936c-2.85,3.979-6.576,2.603-10.066,1.786
		c-17.256-4.033-33.938-9.634-49.321-18.63c-9.619-5.626-19.197-11.324-29.837-15.784c0.611,1.044,1.162,2.129,1.844,3.125
		c14.015,20.479,15.897,42.754,8.901,65.91c-2.675,8.855-7.178,17.155-10.767,25.742c-3.704,8.86-10.689,13.637-19.808,14.876
		c-12.187,1.658-24.449,2.972-36.722,3.752c-16.283,1.036-32.619,1.215-48.906,2.196c-4.907,0.296-9.896,1.553-14.555,3.203
		c-13.807,4.891-27.473,10.179-41.173,15.367c-1.202,0.455-2.251,1.314-3.608,2.129c4.303,8.012,8.482,15.792,12.882,23.982
		c-7.255,0.846-7.255,0.846-29.223-18.821c-23.302,6.659-45.319,17.325-67.647,28.702c6.864,14.213,15.82,26.546,22.516,41.494
		c-10.815-0.711-16.575-6.789-22.102-12.784c-5.615-6.091-10.629-12.737-16.5-19.862c-12.452,6.215-24.616,12.974-35.705,21.319
		c-34.076,25.647-67.858,51.685-101.788,77.528c-16.434,12.518-32.948,24.933-49.408,37.418c-1.809,1.372-3.5,2.901-6.006,4.992
		c3.879,3.817,7.27,7.359,10.875,10.667c31.922,29.292,63.942,58.478,95.806,87.83c18.139,16.709,35.946,33.774,54.094,50.472
		c7.344,6.758,14.904,13.352,22.878,19.339c22.076,16.574,46.195,30.501,65.36,51.826c2.027-2.188,3.7-3.671,4.989-5.435
		c15.357-21.025,29.352-42.885,40.276-66.594c19.111-41.474,39.845-82.043,63.915-120.946
		c21.213-34.286,35.391-71.509,42.413-111.39c2.43-13.795,1.12-27.121-2.01-40.565c-2.788-11.979-5.731-24.005-7.188-36.18
		c-0.801-6.692,0.737-13.877,2.356-20.565c0.94-3.886,4.127-7.228,6.674-11.427c4.263,2.149,7.823,3.293,10.588,5.452
		c11.356,8.875,23.531,8.784,35.734,2.936c7.446-3.568,14.227-8.56,21.195-13.082c7.813-5.071,15.128-11.041,23.321-15.363
		c16.383-8.644,26.67-3.339,30.391,14.842c3.973,19.405,0.655,38.482-2.816,57.518c-3.572,19.586-10.581,37.934-22.081,54.188
		c-12.69,17.934-25.828,35.575-39.357,52.886c-14.36,18.374-30.146,35.669-43.935,54.446
		c-11.786,16.052-22.651,32.977-32.135,50.485c-30.775,56.818-60.729,114.08-90.991,171.175c-0.936,1.766-1.633,3.672-2.692,5.354
		c-2.378,3.765-2.444,6.976,0.318,10.926c6.006,8.594,5.526,17.987-0.223,26.244c-5.669,8.142-12.368,15.654-19.295,22.781
		c-2.494,2.565-6.968,3.205-11.854,5.282c-3.518,9.797-7.589,20.693-11.332,31.7c-3.298,9.697-2.024,18.997,3.096,27.89
		c2.655,4.61,5.219,9.323,7.274,14.221c4.402,10.485,2.575,18.108-7.022,24.22c-5.742,3.656-12.504,6.771-19.152,7.727
		c-14.261,2.051-28.616,0.884-42.508-3.465c-21.189-6.634-29.752-20.767-26.128-42.795c0.36-2.189,0.518-4.412,0.893-7.696
		c-18.921,3.062-34.178-5.833-50.19-12.119c-17.07-6.702-13.034-7.234-26.75,4.837c-21.334,18.776-26.697,42.86-22.728,69.9
		c0.938,6.391,5.261,10.563,9.925,14.484c3.978,3.344,7.855,6.806,12.329,10.695c-8.185,9.5-17.679,13.536-28.5,14.805
		c-3.945,0.463-8.006-0.16-11.985,0.119c-12.968,0.906-21.417-5.641-27.475-16.281c-8.571-15.059-9.053-31.197-5.53-47.541
		c4.7-21.809,15.445-40.208,34.954-55.842c-6.438,0.599-10.734,0.905-15.005,1.421c-4.296,0.517-8.571,1.218-12.849,1.88
		c-59.346,9.185-117.76,22.266-174.517,42.141c-23.925,8.378-47.139,18.378-69.292,30.812
		c-12.062,6.771-22.731,15.045-31.544,25.751c-3.594,4.366-7.5,8.495-11.474,12.524c-4.889,4.956-10.626,7.945-17.93,6.848
		c-6.045-0.907-11.305,1.255-15.596,5.228c-5.854,5.42-11.744,10.909-16.843,17.016c-7.575,9.073-16.945,11.862-27.712,8.391
		c-8.478-2.732-17.14-5.947-24.519-10.78c-10.239-6.708-19.932-14.524-28.809-22.971c-12.168-11.58-12.086-22.458-1.39-35.879
		c15.83-19.862,36.418-32.104,61.162-36.856c14.357-2.758,28.951-4.742,43.531-5.785c30.063-2.152,59.259-7.452,87.886-17.353
		c55.373-19.151,110.87-38.106,167.946-51.71c32.053-7.639,64.397-14.053,96.592-21.104c6.175-1.353,12.263-3.101,18.39-4.674
		c20.559-5.278,39.579-13.384,55.739-27.774c6.133-5.46,13.485-9.87,20.898-13.503c12.572-6.161,21.345-1.533,24.548,12.14
		c0.831,3.55,1.303,7.24,1.447,10.884c0.478,11.978,6.594,19.845,18.288,24.988c4.67-5.465,9.559-11.187,14.938-17.482
		c-2.66-2.54-5.176-4.658-7.354-7.08c-4.219-4.691-8.991-9.107-12.194-14.441c-5.956-9.922-13.552-18.142-22.668-25.016
		c-9.31-7.02-18.854-13.728-28.296-20.569c-11.098-8.04-21.626-16.618-29.851-27.826c-3.319-4.523-7.568-8.445-11.754-12.241
		c-49.621-44.996-99.305-89.921-148.996-134.839c-1.957-1.77-4.145-3.283-6.728-5.311c-3.235,1.48-6.519,2.973-9.794,4.482
		c-18.247,8.403-37.005,14.916-57.189,16.957c-11.79,1.191-23.279,0.16-34.677-2.629c-8.696-2.126-9.402-2.587-10.043-11.088
		c-2.809-37.253,5.083-71.497,29.174-101.022c0.834-1.024,1.625-2.085,2.314-2.972c-7.915-12.476-15.707-24.76-23.907-37.686
		c-6.726-1.049-12.874,2.043-18.667,6.106c-13.724,9.63-23.88,21.991-29.682,37.935c-7.583,20.838-10.653,42.574-13.585,64.362
		c-3.905,29.028-6.186,58.335-13.947,86.718c-2.45,8.959-5.528,17.825-9.192,26.357c-7.476,17.404-19.586,30.423-36.694,39.326
		c-16.823,8.756-32.789,19.143-49.325,28.47c-16.888,9.527-34.363,17.62-53.907,20.263c-11.917,1.613-23.268-0.043-34.088-5.093
		c-5.724-2.671-11.301-5.686-16.81-8.784c-5.701-3.205-7.476-8.176-6.11-15.423c1.096-5.813,5.139-8.763,10.39-9.235
		c6.258-0.563,12.878-1.082,18.894,0.31c28.51,6.601,53.34-1.306,76.123-18.073c9.384-6.908,18.558-14.102,27.769-21.24
		c9.244-7.165,15.01-16.711,19.11-27.536c8.3-21.918,13.3-44.669,17.08-67.687c4.214-25.672,7.298-51.56,6.197-77.59
		c-0.645-15.219-3.021-30.443-5.707-45.471c-2.044-11.433-8.607-20.787-17.444-28.463c-10.235-8.892-21.798-11.566-34.355-6.428
		c-8.282,3.389-16.089,7.971-24.011,12.2c-10.306,5.505-20.393,11.183-32.842,10.438c-2.432-0.146-5.568,3.011-7.561,5.344
		c-14.984,17.537-31.151,33.836-49.424,47.955c-3.796,2.934-7.413,6.875-13.446,5.415c-1.883-5.111,0.628-9.346,2.804-13.224
		c6.353-11.317,13.051-22.445,19.802-33.534c3.964-6.512,8.286-12.807,13.091-20.188c-2.935,0-5.172-0.561-6.967,0.095
		c-9.095,3.319-17.507,7.584-24.788,14.429c-13.828,12.998-27.988,25.691-42.638,37.748c-12.651,10.41-26.719,18.639-42.761,23.195
		c-4.004,1.138-7.578,4.017-11.152,6.393c-8.797,5.848-27.307,4.099-34.407-3.397c-2.4-2.533-2.943-5.263-0.462-7.96
		c2.024-2.202,4.235-4.254,6.517-6.194c20.817-17.7,41.748-35.271,62.472-53.081c8.082-6.945,15.575-14.572,23.618-21.566
		c4.387-3.813,6.203-8.03,3.106-13.053c-6.182-10.025-2.356-18.017,4.273-25.833c4.739-5.587,8.889-11.693,13.841-17.071
		c3.899-4.235,5.284-8.807,5.429-14.418c0.526-20.281-5.685-38.691-14.855-56.373c-2.911-5.613-6.049-11.143-8.464-16.967
		c-4.154-10.019-1.688-18.858,5.729-26.566c3.917-4.07,8.6-5.663,13.523-2.941c4.833,2.672,9.961,5.661,13.433,9.794
		c12.854,15.307,25.067,31.152,37.548,46.774c2.257,2.826,4.644,5.551,7.186,8.577c10.31-6.369,20.17-12.46,30.604-18.905
		c-3.219-4.339-6.696-8.226-9.27-12.641c-7.457-12.79-3.263-25.434,10.073-31.42c13.143-5.9,29.872-1.352,38.167,10.468
		c1.892,2.694,3.497,5.591,5.502,8.826c2.895-0.998,5.66-1.962,8.433-2.905c7.982-2.714,15.862-4.089,24.462-1.967
		c5.665,1.398,12.019,1.638,17.779,0.68c13.283-2.209,26.392-5.464,40.581-8.513c-4.093-5.577-7.446-9.654-10.246-14.083
		c-3.606-5.703-6.064-11.923-5.344-18.879c0.694-6.688,4.005-9.606,10.692-8.837c3.554,0.408,7.246,1.495,10.393,3.178
		c6.758,3.616,13.492,5.312,21.097,3.082c2.816-0.825,5.949-0.81,8.933-0.773c8.21,0.097,10.223,2.001,11.575,10.42
		c0.204,1.269,0.4,2.536,0.796,5.044c6.58-3.666,12.539-6.985,19.93-11.103c-8.016-6.066-11.583-13.653-13.51-22.14
		c-2.217-9.766,1.398-13.836,10.757-10.848c6.968,2.224,12.437,0.083,17.827-3.468c6.654-4.381,13.906-6.279,21.777-6.063
		c9.045,0.249,11.05,1.801,14.562,11.851c7.372-3.467,14.643-6.887,23.141-10.883c-4.467-2.985-7.868-4.882-10.763-7.368
		c-1.264-1.085-2.547-4.085-1.957-4.969c1.059-1.583,3.428-2.62,5.441-3.124c1.466-0.366,3.248,0.451,4.872,0.811
		c7.297,1.612,14.4,2.309,21.127-2.286c1.817-1.24,4.407-1.423,6.68-1.906c9.405-1.998,11.129-1.04,14.979,8.294
		c2.17,0.113,4.451,0.232,7.174,0.374c-0.997-7.375,2.205-12.748,7.514-16.43c10.659-7.391,21.603-14.385,32.643-21.198
		c2.728-1.684,6.211-2.47,9.452-2.925c6.432-0.902,10.375,1.061,12.78,7.074c2.082,5.208,3.139,10.838,4.479,16.323
		c1.026,4.201,1.485,8.559,2.728,12.687c2.724,9.042,6.972,16.271,17.997,17.34c5.486,0.532,11.864,2.678,12.813,9.355
		c0.959,6.752-4.054,10.859-9.288,14.153C1240.303,1849.077,1237.349,1850.52,1232.912,1852.959z"/>
	<path fill-rule="evenodd" clip-rule="evenodd" fill="#E1F6F3" d="M608.294,1470.229c-0.479,7.456-0.877,13.626-1.308,20.308
		c2.432,0.266,4.01,0.603,5.587,0.586c21.636-0.224,20.321,0.793,27.523-17.114c0.831-2.065,2.231-3.903,5.211-5.758
		c0,2.679-0.061,5.358,0.012,8.035c0.198,7.251,2.048,9.866,8.791,8.708c8.765-1.506,17.414-4.229,25.741-7.401
		c2.421-0.922,4.071-4.987,5.196-7.944c2.009-5.275,3.13-10.884,5.044-16.2c1.278-3.549,3.29-6.833,5.859-10.042
		c3.761,10.082-1.972,21.619,7.802,30.898c5.114,0.178,9.387-3.729,12.539-9.06c2.879-4.865,5.059-10.148,8.007-14.967
		c2.492-4.073,5.643-7.744,9.953-13.546c1.292,10.998,2.266,19.283,3.223,27.426c10.579,2.108,18.305-1.428,25.183-7.021
		c5.155-4.194,9.692-9.143,14.712-13.517c3.686-3.212,7.707-6.04,13.346-10.409c-0.416,5.264-0.772,8.362-0.886,11.47
		c-0.375,10.238,4.023,14.697,14.087,14.351c2.663-0.092,5.321-0.416,7.984-0.456c7.196-0.107,11.671-3.262,13.84-10.452
		c1.793-5.942,4.034-12.042,11.574-15.586c-0.218,3.044-0.401,5.405-0.554,7.768c-0.278,4.298-0.875,8.609-0.712,12.893
		c0.165,4.394,2.333,7.479,7.257,8.014c5.953,0.646,11.891,1.466,17.81,2.375c5.381,0.828,9.085-1.413,11.46-6.021
		c2.135-4.14,3.948-8.446,6.046-12.606c2.55-5.057,5.588-9.699,12.453-12.326c0,4.279-0.135,7.727,0.03,11.16
		c0.285,5.956-0.167,12.148,1.338,17.803c3.357,12.61,11.246,14.487,20.133,5.126c3.878-4.084,6.951-8.925,10.497-13.336
		c2.917-3.629,5.822-7.295,9.065-10.62c1.762-1.805,4.22-2.931,7.677-5.241c1.214,10.503,2.279,19.721,3.445,29.813
		c5.219-2.145,5.871-5.998,7.355-9.089c2.595-5.396,4.73-11.021,7.5-16.321c1.972-3.773,4.469-7.421,10.316-8.065
		c-0.662,10.453-1.296,20.442-1.934,30.495c11.042,1.612,17.485-2.7,21.613-10.941c2.233-4.459,3.887-9.204,6.055-13.697
		c2.591-5.37,5.798-10.264,13.107-13.381c0,7.51,0,13.857,0,22.4c8.396-5.184,14.939-9.39,21.646-13.319
		c6.799-3.982,13.759-7.691,21.408-11.942c-31.257-34.014-62.451-66.996-79.516-110.699c-6.236-1.715-12.899-2.169-17.163,3.466
		c-3.41,4.506-4.812,10.533-7.367,16.495c-4.688-4.328-4.012-9.494-3.373-14.135c1.362-9.881-3.127-16.649-10.46-22.225
		c-7.662-5.825-12.998-5.016-18.49,2.781c-1.3,1.846-2.452,3.796-3.733,5.795c-4.487-1.85-3.478-5.798-4.271-8.698
		c-0.868-3.179-0.915-6.585-1.298-9.895c-0.668-5.774-3.282-9.915-9.15-11.742c-5.702-1.775-11.177-4.524-16.983-5.657
		c-8.979-1.75-12.344,1.254-12.943,10.326c-0.233,3.531-0.038,7.091-0.038,11.862c-5.03-2.438-5.749-6.153-7.226-9.239
		c-2.439-5.101-4.27-10.568-7.262-15.311c-5.237-8.301-12.343-7.636-16.402,1.275c-2.012,4.417-3.516,9.066-5.962,15.479
		c-2.39-7.472-3.807-13.139-6.016-18.479c-2.448-5.92-6.349-7.494-12.002-5.786c-6.315,1.909-8.641,5.715-6.984,12.149
		c1.048,4.07,2.603,8.009,4.254,12.983c-6.04-0.479-8.564-3.989-11.137-7.187c-4.176-5.191-7.769-10.903-12.315-15.729
		c-4.281-4.545-9.006-9.057-14.373-12.108c-8.948-5.087-14.685-2.278-16.943,7.637c-1.32,5.793-1.703,11.799-2.617,18.521
		c-4.874-3.665-6.377-8.635-7.459-13.714c-0.761-3.574-1.122-7.246-1.458-10.893c-0.394-4.25-2.678-6.998-6.73-7.521
		c-7.808-1.007-14.698-3.183-20.402-9.242c-3.388-3.6-8.052-1.503-10.418,1.899c-3.549,5.103-6.512,10.742-8.871,16.501
		c-1.601,3.909-1.738,8.415-2.727,13.708c-1.747-1.742-3.576-2.921-4.498-4.598c-3.846-6.995-7.502-14.101-11.073-21.244
		c-5.078-10.154-9.072-21.289-22.782-22.247c-0.747-7.242,2.07-12.266,6.118-16.123c9.147-8.716,18.367-17.47,28.381-25.131
		c11.219-8.583,24.543-7.337,37.5-4.92c6.849,1.277,13.574,3.375,20.23,5.497c13.793,4.398,27.824,6.129,42.327,5.844
		c24.987-0.49,49.99-0.515,74.983-0.303c32.042,0.271,63.832,3.756,95.497,8.463c12.654,1.881,24.626,5.869,35.734,12.185
		c7.522,4.276,15.121,8.55,22.104,13.623c17.889,12.995,37.282,23.227,57.177,32.666c26.48,12.563,52.656,25.798,79.417,37.727
		c16.69,7.439,34.328,12.723,51.337,19.487c16.075,6.392,32.217,12.777,47.718,20.407c16.295,8.021,16.298,12.256,2.19,23.682
		c-3.885,3.146-8.156,5.903-11.622,9.454c-4.13,4.229-7.578,9.126-11.333,13.723c-1.19,1.457-2.139,3.597-3.677,4.196
		c-6.71,2.61-10.471,8.104-14.027,13.726c-3.733,5.902-7.033,12.079-10.806,18.629c9.719,13.735,6.236,29.112,5.052,44.265
		c-0.466,5.967-1.148,11.943-1.126,17.914c0.021,5.665,1.338,11.137,5.936,16.266c2.049-2.066,3.996-3.677,5.511-5.622
		c5.937-7.623,11.564-15.493,17.633-23.006c7.178-8.886,11.016-10.134,21.627-5.639c7.3,3.091,14.009,7.584,20.954,11.498
		c2.246,1.266,4.404,2.684,6.855,4.187c2.956-6.389,0.405-11.141-3.36-14.891c-8.853-8.821-12.332-19.974-12.938-31.682
		c-0.791-15.27-0.097-30.625,0.278-45.938c0.085-3.467,1.488-6.901,2.285-10.351c0.758-0.178,1.515-0.355,2.272-0.532
		c2.13,3.414,4.646,6.65,6.316,10.275c5.013,10.887,9.35,22.097,14.632,32.845c3.354,6.827,7.442,13.433,12.134,19.403
		c2.473,3.146,6.678,5.621,10.583,6.789c5.487,1.641,8.461-1.396,7.212-7.051c-1.138-5.148-2.943-10.273-5.254-15.019
		c-7.725-15.869-15.388-31.794-23.867-47.263c-9.694-17.687-12.748-36.984-15.487-56.461c-0.224-1.585-0.03-3.229-0.03-5.396
		c6.037-0.165,10.122,2.872,12.99,6.649c5.001,6.586,9.49,13.62,13.604,20.805c5.122,8.946,9.353,18.404,14.505,27.331
		c5.661,9.802,14.772,14.042,25.916,14.13c7.823,0.062,14.123-2.207,18.14-9.826c3.78-7.169,7.272-8.055,14.666-4.34
		c4.73,2.377,9.16,5.448,13.457,8.577c11.07,8.057,22.948,12.95,37.043,12.773c7.884-0.099,16.013,1.167,23.643,3.245
		c11.234,3.06,14.217,11.359,8.878,21.735c-3.2,6.218-8.403,10.38-14.617,13.083c-7.622,3.317-15.55,5.927-23.207,9.171
		c-6.417,2.719-12.958,5.385-18.868,9.012c-9.377,5.754-13.384,12.771-15.58,24.968c2.343,1.68,4.917,3.526,8.483,6.084
		c-1.965,3.54-3.618,7.015-5.734,10.181c-1.652,2.472-4.055,4.433-5.818,6.844c-6.495,8.876-5.044,15.205,4.57,20.141
		c4.44,2.28,9.052,4.234,13.443,6.599c4.649,2.504,8.059,6.014,7.441,11.882c-0.614,5.844-3.643,10.188-9.193,11.951
		c-5.68,1.803-11.556,3.398-17.457,4.01c-22.245,2.304-44.523,3.753-66.591-1.748c-0.544-0.135-1.228,0.288-2.554,0.637
		c3.167,4.857,6.542,9.364,9.188,14.263c3.14,5.814,6.299,11.766,8.275,18.026c2.409,7.634,0.011,14.552-6.333,19.666
		c-6.093,4.913-12.912,6.98-20.484,3.696c-3.959-1.717-7.764-3.805-11.589-5.814c-15.076-7.926-29.595-1.704-33.849,15.031
		c-1.456,5.729-1.367,11.855-1.92,17.807c-0.585,6.287-0.482,12.708-1.763,18.845c-2.85,13.662-14.811,19.071-25.332,10.319
		c-10.206-8.49-20.125-7.486-30.694-3.36c-8.971,3.501-17.557,7.996-26.27,12.142c-8.417,4.005-16.66,8.395-25.192,12.129
		c-13.047,5.71-26.531,6.379-39.94,1.428c-9.666-3.569-19.154-7.65-28.592-11.796c-9.754-4.283-19.301-9.036-29.029-13.378
		c-16.431-7.332-33.536-8.305-50.867-4.274c-11.338,2.638-22.664,5.557-33.688,9.264c-23.615,7.941-47.136,8.155-70.641,0.218
		c-20.81-7.026-41.413-14.66-62.207-21.737c-15.746-5.358-31.545-10.608-47.507-15.271c-16.128-4.711-32.802-5.662-49.522-4.983
		c-13.983,0.566-27.944,1.982-41.927,2.202c-12.96,0.204-25.974-0.23-38.89-1.286c-5.832-0.477-11.999-2.195-17.135-4.975
		c-36.531-19.77-56.87-50.176-58.728-92.105c-0.305-6.887-0.52-14.004,7.751-17.792c2.129-0.975,3.085-4.933,4.16-7.685
		c1.449-3.71,2.337-7.64,3.753-11.365C600.213,1474.779,602.312,1471.504,608.294,1470.229z M1077.607,1558.848
		c0.174-28.271-16.486-52.19-43.403-61.955c-25.651-9.305-51.22-6.167-76.219,2.18c-14.74,4.922-20.887,16.123-17.941,31.486
		c1.98,10.326,5.22,20.675,9.634,30.21c7.512,16.229,20.064,28.9,33,40.951c2.722,2.536,6.925,4.424,10.626,4.794
		c11.889,1.19,23.876,2.284,35.799,2.05C1058.397,1607.988,1077.426,1588.112,1077.607,1558.848z M909.129,1558.841
		c-2.364-9.29-4.01-18.841-7.257-27.813c-5.094-14.071-15.159-23.75-30.181-26.34c-15.054-2.594-30.331-3.899-45.513-5.739
		c-4.541-0.55-7.472,2.026-7.531,6.06c-0.087,5.864,0.203,11.993,1.832,17.571c4.434,15.187,12.672,28.561,21.728,41.4
		c8.287,11.75,17.326,22.888,29.004,31.487c11.991,8.829,20.084,7.375,28.636-4.891
		C906.431,1581.135,908.011,1570.353,909.129,1558.841z M658.294,1586.906c7.28,0.566,11.618-0.755,13.988-5.52
		c2.681-5.394,1.221-10.49-2.419-14.796c-11.978-14.162-27.894-22.079-45.141-27.677c-4.355-1.413-7.715,0.813-7.681,5.135
		c0.038,4.783,0.51,10.197,2.781,14.209c7.625,13.465,19.39,22.439,33.908,27.719
		C655.875,1586.757,658.254,1586.899,658.294,1586.906z"/>
	<path fill-rule="evenodd" clip-rule="evenodd" fill="#E1F6F3" d="M1759.295,1398.56c-10.833-6.872-20.909-13.058-29.446-21.19
		c0.295-0.678,0.59-1.355,0.886-2.034c9.251,2.081,18.582,3.862,27.731,6.324c9.313,2.506,18.381,5.926,27.692,8.438
		c3.692,0.996,7.945,1.518,11.615,0.729c19.221-4.128,38.135-9.352,56.129-17.513c14.63-6.635,27.655-15.473,40.094-27.923
		c-6.945,0-12.429-0.191-17.895,0.032c-30.953,1.266-61.901,2.658-92.854,3.937c-4.988,0.207-9.999,0.224-14.987,0.03
		c-5.8-0.226-11.846,0.698-14.926-6.87c-0.813-1.996-6.356-2.878-9.725-2.871c-10.221,0.021-10.918-0.263-14.039-11.518
		c4.69-5.213,10.316-9.312,17.69-9.604c14.291-0.569,28.672-1.763,42.885-0.787c35.866,2.464,71.722,5.415,107.449,9.359
		c15.118,1.67,29.983,6.021,44.815,9.737c9.215,2.31,17.182,7.223,22.946,15.074c1.1,1.497,1.741,3.328,2.945,5.692
		c-12.778,3.063-23.408-3.252-35.209-4.987c1.234,35.758-14.697,59.47-50.295,70.841c7.908,3.835,14.267,6.919,20.059,9.729
		c10.679-11.808,20.919-23.149,31.19-34.462c1.341-1.477,2.734-2.942,4.291-4.179c4.179-3.317,7.739-2.846,9.375,2.092
		c1.755,5.295,3.161,11.051,3.031,16.565c-0.604,25.628-0.666,51.345-3.048,76.832c-3.27,34.995-2.466,69.268,11.175,102.133
		c5.212,12.56,11.063,25.071,18.347,36.508c14.813,23.265,17.886,47.684,9.995,73.65c-4.738,15.589-10.071,31.007-15.54,46.357
		c-2.093,5.873-4.804,11.769-11.554,14.275c-5.908-2.873-7.572-8.592-8.99-13.87c-4.315-16.056-8.292-32.214-11.929-48.438
		c-2.547-11.359-4.022-22.959-6.545-34.325c-1.576-7.101-3.65-14.201-6.466-20.895c-9.546-22.691-19.523-45.203-29.451-68.051
		c-10.898-0.815-21.866-1.027-32.646-2.558c-33.283-4.723-66.504-9.893-99.73-15.009c-13.011-2.003-24.936-7.309-36.35-13.513
		c-16.335-8.88-32.33-18.386-49.127-28c-8.691,8.307-14.616,19.001-17.069,31.246c-1.295,6.458,1.71,12.268,7.308,16.439
		c34.645,25.823,72.474,44.526,115.213,52.825c20.242,3.931,40.279,8.913,60.426,13.342c15.917,3.497,31.87,6.829,47.781,10.354
		c2.482,0.55,4.822,1.736,8.764,3.198c-3.333,1.239-5.007,2.166-6.789,2.48c-60.572,10.687-117.354-0.628-170.429-30.721
		c-18.197-10.318-35.183-22.778-52.687-34.312c-2.744-1.807-5.307-3.894-8.065-5.934c-5.229,3.422-10.516,6.291-15.123,10.003
		c-17.571,14.156-56.449,8.214-72.492-5.135c-5.943-4.943-8.013-10.936-7.537-18.506c1.134-18.054,6.986-34.469,16.274-49.813
		c10.482-17.314,23.924-32.132,39.852-44.388c13.434-10.336,27.786-19.486,41.859-28.972c5.219-3.518,10.802-6.495,16.951-10.154
		c-6.933-8.035-14.513-15.013-18.99-26.434c6.289,0.731,11.479,0.756,16.34,2.028c8.671,2.271,17.107,5.425,25.724,7.932
		c2.726,0.792,6.042,1.683,8.519,0.844C1729.146,1409.738,1743.407,1404.351,1759.295,1398.56z M1704.838,1491.785
		c7.378,4.392,12.947,7.92,18.711,11.1c25.192,13.902,52.237,23.219,79.511,31.968c29.752,9.544,60.16,17.368,87.524,33.217
		c0.421,0.243,1.146-0.038,2.765-0.139c-8.504-24.448-14.686-49.13-12.404-74.946c-6.488,1.288-12.317,3.491-18.103,3.382
		c-13.267-0.252-26.678-0.621-39.729-2.769c-25.727-4.235-50.224-12.858-73.881-23.813c-3.56-1.649-6.907-3.989-11.092-1.027
		C1727.604,1476.212,1716.919,1483.454,1704.838,1491.785z M1777.047,1451.298c20.759,12.481,41.312,21.311,63.688,25.674
		c13.533,2.64,27.412,3.916,38.894,10.21c6.777-16.736,13.432-33.17,20.116-49.679c-15.572,1.42-31.387,1.55-46.761-4.214
		c-2.889-1.082-6.678-0.816-9.792-0.076c-19.043,4.524-38.026,9.308-56.99,14.159
		C1783.468,1448.07,1780.945,1449.596,1777.047,1451.298z"/>
	<path fill-rule="evenodd" clip-rule="evenodd" fill="#E1F6F3" d="M142.441,721.639c2.654,3.615,2.593,7.361,0.27,11.034
		c-2.668,4.22-5.598,8.275-8.258,12.5c-1.661,2.638-3.035,5.458-4.538,8.196c0.52,0.52,1.039,1.039,1.558,1.56
		c3.712-1.62,7.424-3.24,11.262-4.914c1.689,16.271-19.433,42.889-39.892,50.042c7.807,8.923-1.765,17.15-1.049,26.848
		c10.288-5.007,15.127-15.461,24.914-21.32c1.452,6.952-0.604,12.727-3.76,17.438c-5.708,8.521-12.082,16.684-18.926,24.324
		c-5.067,5.658-11.321,10.252-17.827,16.012c5.606,2.24,5.412,6.606,4.326,11.174c-1.54,6.479-3.582,12.872-4.636,19.424
		c-1.016,6.313-3.132,13.071,3.131,19.961c11.353-11.086,19.137-24.879,31.623-36.351c0.739,3.135,2.044,5.366,1.516,7.004
		c-2.431,7.547-4.215,15.665-8.377,22.214c-8.376,13.177-17.62,25.899-27.499,37.998c-9.255,11.333-17.432,22.768-17.702,38.951
		c4.826,1.01,6.492,5.278,6.523,10.52c0.04,6.666-0.162,13.339,0.146,19.991c0.155,3.358,1.203,6.674,2.286,12.275
		c12.401-13.721,23.182-25.651,34.544-38.224c3.813,5.696,1.685,9.861-0.054,13.439c-3.043,6.262-6.511,12.399-10.496,18.104
		c-6.865,9.83-14.171,19.357-21.467,28.878c-5.607,7.318-9.076,15.152-9.751,24.613c-0.576,8.073,0.078,16.937-7.104,23.074
		c6.789,12.161,2.228,26.474,7.748,39.045c6.504-1.992,8.884-7.022,11.205-11.549c5.768-11.253,10.951-22.805,16.428-34.208
		c1.979-4.12,3.631-8.557,8.478-11.052c4.5,4.988,2.866,10.476,1.559,15.23c-2.553,9.284-5.125,18.775-9.381,27.339
		c-12.712,25.577-19.806,52.931-27.149,80.264c-1.252,4.661-3.398,9.082-5.63,14.917c5.294,5.285,0.365,16.573,10.258,23.378
		c2.225-3.46,4.596-6.474,6.249-9.838c6.898-14.048,13.498-28.243,20.396-42.291c1.816-3.7,3.216-8.1,9.621-9.631
		c0.339,4.697,1.477,8.94,0.76,12.843c-1.617,8.803-3.252,17.791-6.503,26.066c-6.199,15.777-13.086,31.331-20.604,46.523
		c-3.195,6.457-4.197,12.464-2.645,19.179c1.049,4.538,2.313,9.028,3.358,13.567c1.386,6.02,1.392,11.917-2.281,17.334
		c9.284,9.808,2.488,24.262,9.877,34.794c7.006-0.175,9.925-4.671,11.631-9.735c2.011-5.97,3.057-12.259,4.658-18.372
		c1.093-4.174,2.195-8.371,3.712-12.401c1.463-3.887,4.019-6.827,9.741-6.926c0.843,2.745,2.336,5.45,2.392,8.186
		c0.185,8.98,0.608,18.062-0.456,26.938c-1.901,15.85-4.732,31.592-7.37,47.347c-0.821,4.905-2.04,9.776-3.48,14.54
		c-3.196,10.57-9.084,18.546-21.793,20.108c4.491,7.121,8.346,13.953,12.908,20.274c5.14,7.121,12.217,7.116,17.088-0.337
		c3.216-4.92,4.843-10.871,7.236-16.336c1.647-3.76,3.388-7.478,6.102-13.443c3.386,4.889,6.114,7.45,7.165,10.574
		c5.685,16.896,5.306,33.59-4.461,48.953c-2.91,4.577-7.537,8.558-12.24,11.369c-4.91,2.935-7.808,6.325-7.145,11.849
		c1.121,9.328-4.431,13.058-11.947,15.716c-9.694,3.429-18.16,3.902-26.527-4.349c-6.534-6.444-15.155-10.751-22.738-16.161
		c-2.659-1.897-5.813-3.787-7.332-6.477c-7.852-13.898-15.446-27.953-22.659-42.193c-1.803-3.563-1.86-8.01-2.694-11.93
		c6.425-2.113,9.639,1.059,12.531,4.222c3.362,3.678,6.222,7.812,9.394,11.67c2.322,2.826,4.62,5.711,7.244,8.24
		c3.344,3.224,7.407,4.617,11.905,2.541c4.641-2.143,7.479-5.974,7.119-11.067c-0.374-5.272-1.602-10.504-2.701-15.702
		c-1.039-4.911-0.854-9.231,4.5-11.716c-5.275-7.379-9.768-14.841-15.454-21.243c-4.536-5.11-10.006-9.868-15.958-13.161
		c-27.077-14.98-37.92-38.005-35.299-68.171c0.115-1.322,0.358-2.643,0.674-3.933c0.151-0.616,0.615-1.156,1.646-2.997
		c2.609,3.514,5.087,6.453,7.125,9.671c5.882,9.286,11.42,18.793,17.438,27.987c2.526,3.859,5.601,7.518,9.067,10.529
		c1.559,1.354,4.976,1.688,6.993,0.954c1.12-0.407,1.765-4.079,1.431-6.08c-0.541-3.232-2.121-6.283-3.158-9.444
		c-1.007-3.071-1.881-6.185-3.306-10.915c4.243,0.312,7.082,0.21,9.782,0.771c10.771,2.239,11.583,2.001,20.275-8.61
		c-5.361,2.143-9.372,4.187-13.625,5.352c-8.402,2.301-14.74-0.146-16.401-8.412c-3.188-15.863-13.51-28.005-19.811-42.185
		c-7.975-17.948-16.469-35.67-24.195-53.724c-2.518-5.882-5.313-12.186-3.224-20.515c2.716,1.812,5.014,2.833,6.633,4.51
		c8.563,8.865,16.901,17.949,25.439,26.84c2.874,2.992,6.108,5.64,10.78,9.91c0.954-7.087,0.805-12.185,2.48-16.588
		c1.535-4.032,5.042-7.315,7.967-11.324c-22.53-22.34-36.974-51.018-48.47-81.412c-1.065-2.814-0.83-6.121-0.176-9.625
		c13.931,9.52,19.276,26.943,35.758,36.246c0.382-4.658,1.372-7.857,0.733-10.69c-1.607-7.125-3.978-14.076-5.988-21.112
		c-1.372-4.801-2.927-9.574-3.916-14.458c-2.042-10.085-0.339-12.607,9.014-15.419c-2.679-7.045-5.19-14.206-8.119-21.193
		c-2.808-6.696-6.02-13.224-9.104-19.802c-7.67-16.354-13.049-33.447-16.449-51.164c-0.276-1.439,0.337-3.048,0.732-6.072
		c12.884,8.322,12.531,24.96,23.407,33.061c4.983-2.889,3.834-6.872,3.492-10.264c-0.567-5.622-1.997-11.16-2.525-16.783
		c-0.574-6.125-4.826-12.831,2.245-18.165c0.51-0.384-0.178-2.382-0.339-3.626c-2.616-20.115-5.314-40.221-7.789-60.354
		c-0.472-3.837-0.068-7.782-0.068-13.514c8.764,6.847,8.981,16.298,14.833,24.406c1.423-3.354,2.92-5.711,3.401-8.26
		c1.048-5.556,2.15-11.206,2.189-16.824c0.062-8.994,1.828-17.145,7.492-22.623c-2.504-3.729-5.679-6.528-6.413-9.866
		c-4.273-19.456-4.092-39.021,0.467-58.438c0.595-2.534,2.614-4.733,4.471-7.949c7.333,7.529,1.824,16.723,6.685,24.267
		c1.801-1.976,3.476-3.351,4.561-5.093c2.992-4.803,5.532-9.893,8.621-14.627c6.281-9.628,10.127-12.211,22.026-15.279
		c-9.533-11.421-11.94-24.828-11.539-38.923c0.39-13.701,1.85-27.149,12.448-39.604c1.739,8.903,3.19,16.337,4.988,25.548
		c3.686-2.458,5.989-3.528,7.668-5.218c3.046-3.064,5.723-6.496,8.551-9.778c6.899-8.007,15.261-11.587,25.816-8.536
		L142.441,721.639z M56.757,994.458c0.035-0.374,0.071-0.747,0.106-1.121c-2.46,0-4.921,0-7.381,0
		c0.012,0.374,0.023,0.747,0.035,1.121C51.93,994.458,54.343,994.458,56.757,994.458z"/>
	<path fill-rule="evenodd" clip-rule="evenodd" fill="#E1F6F3" d="M1718.789,1130.491c-6.412,2.558-12.9,4.943-19.216,7.72
		c-6.372,2.801-12.759,3.404-19.479,1.605c-3.209-0.858-6.546-1.229-9.788-1.98c-5.931-1.373-11.181,0.02-16.038,3.521
		c-2.697,1.942-5.298,4.305-8.331,5.404c-2.522,0.915-6.395,1.393-8.297,0.078c-4.53-3.129-8.762-3.726-14.064-2.748
		c-2.853,0.526-7.161-0.334-9.004-2.281c-3.101-3.275,0.16-6.953,2.235-9.728c10.251-13.711,22.294-25.634,36.979-34.576
		c4.19-2.551,7.208-4.608,7.473-10.454c0.165-3.645,3.398-8.062,6.534-10.462c6.026-4.613,12.809-8.333,19.564-11.877
		c6.77-3.552,13.812-6.626,20.874-9.574c10.571-4.412,20.288-10.134,28.403-18.243c10.181-10.171,22.218-15.172,36.688-15.433
		c17.647-0.317,35.28-1.455,52.92-2.227c13.038-0.571,25.467,2.181,36.066,9.664c28.021,19.782,56.2,39.479,78.261,66.328
		c8.159,9.929,9.584,12.597,11.356,20.951c-10.888,2.172-20.462-0.988-28.926-7.345c-9.048-6.796-17.464-14.427-26.404-21.372
		c-9.724-7.552-19.499-15.08-29.679-21.988c-12.437-8.44-26.125-11.474-40.906-6.936c-8.244,2.532-16.656,4.672-24.629,7.888
		c-9.154,3.691-14.377,10.954-13.862,21.066c0.381,7.514-3.24,11.683-9.339,14.882c-6.704,3.516-13.235,7.363-19.476,12.272
		c2.083-0.169,4.199-0.157,6.242-0.536c24.344-4.509,48.781-6.735,73.546-4.023c5.581,0.611,11.315,0.151,16.959-0.176
		c15.097-0.877,26.96,3.809,35.834,17.005c13.747,20.444,28.765,40.031,42.789,60.295c5.854,8.459,10.729,17.624,15.673,26.673
		c1.822,3.336,2.563,7.265,4.194,12.101c-6.531-0.084-11.159-2.011-14.792-5.02c-8.158-6.757-16.427-13.576-23.481-21.421
		c-8.665-9.634-15.952-20.49-24.17-30.544c-14.843-18.158-33.544-26.79-57.315-22.445c-5.225,0.955-10.673,0.901-15.783,2.223
		c-9.242,2.388-14.066,9.549-12.024,18.761c2.515,11.345,5.705,22.583,9.359,33.618c1.953,5.901,1.124,10.159-3.36,14.246
		c-6.146,5.602-11.837,11.721-18.171,17.09c-3.225,2.733-7.238,4.836-11.237,6.278c-4.665,1.683-9.565,1.203-12.059-3.957
		c-3.308-6.842-8.493-7.51-15.016-5.78c-24.849,6.59-50.149,10.546-75.753,12.638c-12.257,1.002-24.487,2.522-36.739-0.649
		c-2.662-0.69-5.87,0.363-8.751,0.974c-3.493,0.738-6.905,1.858-11.507,3.132c-2.026-5.605-4.302-10.384-5.461-15.421
		c-2.23-9.692,1.054-17.256,10.154-21.541c6.85-3.224,14.377-5.087,21.71-7.183c7.992-2.285,16.122-4.084,24.164-6.199
		c6.515-1.714,11.146-5.463,13.521-12.056c1.574-4.366,3.889-8.465,5.876-12.681c6.688-14.193,13.236-28.484,27.208-37.624
		C1719.806,1131.781,1719.298,1131.136,1718.789,1130.491z"/>
	<path fill-rule="evenodd" clip-rule="evenodd" fill="#E1F6F3" d="M543.88,1944.528c-3.896,4.461-6.785,8.648-10.521,11.847
		c-5.873,5.029-7.764,11.254-7.821,18.603c-0.188,24.439-1.056,25.332-23.285,34.548c-6.386,2.646-12.39,6.408-18.182,10.242
		c-6.834,4.524-13.807,7.443-22.257,7.523c-16.301,0.153-32.593,1.34-48.894,1.49c-5.9,0.055-12.023-0.976-17.661-2.736
		c-4.251-1.328-8.418-4.062-11.671-7.164c-3.864-3.687-3.486-7.92,0.804-11.169c3.919-2.971,8.398-5.511,13.011-7.201
		c13.113-4.808,26.484-8.908,39.625-13.642c7.178-2.585,14.37-5.382,21.065-8.993c8.62-4.651,10.33-9.821,7.629-19.184
		c-0.734-2.544-1.546-5.162-2.871-7.426c-8.943-15.274-2.203-29.697,6.836-39.161c2.978-3.117,6.477-5.732,9.704-8.615
		c3.475-3.104,7.106-6.063,10.323-9.417c7.732-8.063,11.133-17,6.005-28.093c-3.202-6.926-5.584-14.251-8.013-21.504
		c-1.366-4.08-2.514-8.328-3-12.587c-1.166-10.229,3.417-13.978,13.732-11.881c9.546,1.94,15.965,7.851,20.623,15.99
		c5.713,9.985,8.583,20.962,10.058,32.213c2.293,17.485,3.956,35.054,6.013,52.571
		C536.105,1929.06,537.302,1937.324,543.88,1944.528z"/>
	<path fill-rule="evenodd" clip-rule="evenodd" fill="#E1F6F3" d="M1289.966,1184.09c2.521,4.482,4.542,7.701,6.207,11.096
		c5.997,12.235,11.178,24.935,18.013,36.675c5.64,9.688,12.547,18.848,20.104,27.137c5.205,5.708,12.479,9.528,19.921,14.996
		c3.585-4.21,6.017-7.886,9.228-10.66c6.195-5.352,12.118-5.992,18.186-1.977c23.584,15.607,49.882,24.907,76.573,33.309
		c9.194,2.896,18.506,5.412,27.705,8.291c9.225,2.889,9.852,3.842,9.583,12.316c-0.272,8.64-3.854,14.009-11.346,15.358
		c-4.846,0.871-9.924,0.479-14.9,0.582c-3.291,0.07-6.586,0.014-10.544,0.014c-1.924,4.654-3.637,9.258-5.702,13.697
		c-4.308,9.254-10.817,16.639-21.499,17.092c-6.397,0.271-13.412-1.159-19.262-3.795c-9.029-4.067-17.545-9.456-25.809-14.987
		c-5.983-4.007-11.804-6.525-19.274-6.537c-7.56-0.013-15.126-1.864-22.671-3.029c-8.369-1.293-15.193-5.544-19.439-12.695
		c-6.425-10.822-13.081-21.685-17.875-33.262c-10.601-25.594-17.424-52.348-20.352-79.949c-0.658-6.202,0.173-12.575,0.523-18.858
		C1287.397,1187.794,1288.472,1186.742,1289.966,1184.09z"/>
	<path fill-rule="evenodd" clip-rule="evenodd" fill="#E1F6F3" d="M1863.506,2088.361c-28.52,2.926-44.622,20.592-53.98,45.703
		c-6.749,18.106-8.558,36.864-5.159,56.023c2.397,13.506,9.954,23.096,22.201,28.86c6.912,3.253,14.231,5.631,21.226,8.722
		c11.561,5.107,13.901,11.86,8.387,23.241c-2.95,6.088-6.147,7.975-12.878,6.238c-5.111-1.318-9.932-3.741-14.912-5.593
		c-10.326-3.84-16.059-3.105-21.191,6.592c-6.823,12.888-17.108,14.217-29.403,12.735c-14.928-1.798-26.727-9.099-33.778-22.083
		c-4.68-8.618-8.859-18.345-9.924-27.945c-4.973-44.885,7.42-83.961,43.217-113.236c22.301-18.238,48.486-25.906,77.399-23.194
		c3.103,0.291,6.15,1.162,9.224,1.764C1863.79,2086.913,1863.647,2087.637,1863.506,2088.361z"/>
	<path fill-rule="evenodd" clip-rule="evenodd" fill="#E1F6F3" d="M1876.915,979.452c-6.228,1.147-11.949,2.666-17.763,3.192
		c-24.87,2.25-49.788,3.969-74.644,6.362c-14.558,1.402-29.15,3.059-43.506,5.775c-16.068,3.041-19.279,9.521-14.14,24.829
		c0.623,1.857,1.09,3.767,1.815,6.305c-2.431,1.8-4.636,3.779-7.146,5.237c-19.857,11.532-39.742,23.018-59.721,34.336
		c-1.809,1.025-4.879,1.788-6.432,0.949c-5.731-3.097-10.311-0.718-14.932,2.108c-7.101,4.342-13.96,9.109-21.241,13.119
		c-5.791,3.189-11.859,6.18-18.162,8.066c-9.554,2.859-14.507-1.311-13.312-11.009c1.663-13.487,5.852-26.163,16.386-35.509
		c22.407-19.879,44.845-39.737,67.67-59.131c14.427-12.259,31.816-18.022,50.547-19.104c17.944-1.036,35.93-1.505,53.904-1.791
		c19.315-0.308,38.654-0.566,57.954,0.052c9.896,0.318,19.819,2.157,29.558,4.156
		C1869.561,968.585,1874.925,971.537,1876.915,979.452z"/>
	<path fill-rule="evenodd" clip-rule="evenodd" fill="#E1F6F3" d="M461.429,1897.657c-11.245,4.923-14.322,14.963-15.98,25.819
		c-0.402,2.632-0.836,5.295-0.849,7.945c-0.087,18.16-10.255,30.135-23.981,40.246c-7.315,5.389-15.415,7.955-23.41,4.056
		c-20.643-10.066-42.146-7.651-63.765-6.394c-7.598,0.442-15.366,0.256-22.887-0.819c-12.198-1.743-18.43-8.109-20.723-19.835
		c5.548-3.324,11.903-3.207,18.112-3.546c14.291-0.781,28.593-1.387,42.884-2.191c2.633-0.148,5.274-0.743,7.842-1.403
		c12.655-3.249,14.084-5.63,14.857-18.452c0.619-10.26,1.543-20.648,3.864-30.622c3.607-15.499,11.151-20.88,26.953-21.438
		c18.246-0.643,22.709-5.193,23.359-23.35c0.425-11.844-2.513-23.087-5.428-34.391c-1.489-5.777-2.957-11.674-3.363-17.59
		c-0.604-8.785,3.417-12.771,13.01-14.386c9.269-1.56,14.973,1.124,17.205,9.325c1.551,5.704,1.875,11.787,2.342,17.733
		c1.277,16.253,2.158,32.54,3.602,48.777c0.437,4.915,1.718,9.894,3.46,14.523C461.682,1880.031,461.546,1888.563,461.429,1897.657z
		"/>
	<path fill-rule="evenodd" clip-rule="evenodd" fill="#E1F6F3" d="M656.781,1951.137c1.29-7.598-2.521-13.342-4.789-19.529
		c-2.735-7.463-5.623-14.941-7.43-22.652c-1.549-6.606-0.198-13.33,3.561-19.18c5.219-8.119,12.419-9.266,19.086-2.41
		c4.109,4.225,7.882,9.246,10.258,14.596c6.884,15.498,12.956,31.355,19.416,47.043c1.704,4.137,0.164,7.104-3.057,9.521
		c-1.324,0.993-2.917,1.619-4.291,2.556c-8.384,5.718-10.773,11.916-7.279,21.513c2.266,6.222,5.267,12.254,8.586,17.997
		c6.917,11.964,7.06,22.885-2.07,34.128c-3.579,4.408-5.804,10.615-6.758,16.319c-2.477,14.808-10.623,25.261-23.615,31.425
		c-10.454,4.961-21.684,8.344-32.702,12.035c-6.93,2.322-14.2,3.627-21.129,5.946c-4.353,1.457-8.688,3.47-12.464,6.06
		c-15.276,10.478-31.835,10.245-48.844,6.318c-3.931-0.908-7.655-2.913-8.439-7.532c-0.901-5.303,2.781-8.212,6.71-9.989
		c8.462-3.826,17.085-7.387,25.871-10.38c10.705-3.646,21.725-6.358,32.453-9.942c6.285-2.1,12.518-4.643,18.337-7.793
		c18.037-9.766,25.864-29.823,19.604-49.357c-1.115-3.48-2.539-6.865-3.896-10.266
		C623.477,1981.424,630.732,1963.122,656.781,1951.137z"/>
	<path fill-rule="evenodd" clip-rule="evenodd" fill="#E1F6F3" d="M144.962,1785.813c6.079-6.2,13.314-6.37,20.087-6.812
		c15.266-0.995,30.575-1.327,45.868-1.908c2.66-0.101,5.326-0.039,7.984-0.155c9.53-0.414,10.331-1.411,8.593-10.796
		c-0.604-3.268-1.564-6.479-2.008-9.764c-0.733-5.414-0.851-10.905,4.465-14.333c5.327-3.437,11.338-4.641,17.039-1.479
		c3.648,2.024,6.832,5.174,9.641,8.338c2.623,2.954,4.285,6.736,6.708,9.896c3.983,5.192,7.316,5.632,11.167,0.343
		c8.84-12.141,16.777-24.785,17.041-40.687c0.148-8.955,0.445-17.975,1.682-26.825c1.055-7.546,6.007-11.064,12.26-10.257
		c5.041,0.652,8.964,3.448,10.618,8.056c2.225,6.202,4.125,12.645,5.11,19.144c2.923,19.251,1.272,38.566-0.893,57.733
		c-1.086,9.613,0.505,17.766,6.747,25.063c1.077,1.258,2.143,2.586,2.906,4.043c2.532,4.842,1.504,8.127-3.968,8.536
		c-8.941,0.668-10.862,6.162-11.466,13.367c-0.306,3.646-0.704,7.286-0.953,10.936c-0.325,4.766-0.75,9.854-5.787,11.817
		c-5.712,2.228-11.591,2.195-17.035-1.721c-7.822-5.625-15.827-10.996-23.766-16.46c-13.374-9.206-28.319-12.349-44.38-12.568
		c-15.263-0.209-30.578-0.976-45.741-2.655c-11.096-1.229-21.114-5.972-28.344-15.129
		C147.325,1790.001,146.442,1788.207,144.962,1785.813z"/>
	<path fill-rule="evenodd" clip-rule="evenodd" fill="#E1F6F3" d="M1318.758,1077.055c5.24,4.38,5.581,10.204,6.197,15.639
		c1.575,13.896,2.552,27.861,4.166,41.752c0.803,6.918,2.417,13.746,3.77,20.594c2.574,13.022,12.821,17.856,23.712,21.794
		c3.459,1.252,6.609,0.104,8.649-3.165c6.414-10.281,16.528-12.771,27.61-12.956c6.322-0.105,12.66,0.103,18.978,0.436
		c11.077,0.584,19.715,5.484,25.596,15.027c2.446,3.969,4.917,7.925,7.471,11.825c4.586,7.003,10.826,11.588,19.186,13.209
		c5.552,1.077,11.114,2.211,16.551,3.75c11.678,3.308,14.345,7.81,12.163,19.831c-0.296,1.631-0.778,3.238-1.29,4.818
		c-3.347,10.348-8.569,13.173-18.984,10.087c-4.146-1.228-8.149-2.932-12.287-4.192c-4.778-1.457-8.782-0.463-10.319,4.812
		c-2.077,7.126-7.673,9.302-13.877,8.965c-7.898-0.429-16.081-1.106-23.521-3.556c-33.611-11.067-63.408-29.093-90.833-51.286
		c-7.537-6.099-11.281-13.898-11.956-23.245c-2.099-29.041-0.667-57.914,4.737-86.551c0.362-1.921,1.135-3.782,1.875-5.605
		C1316.566,1078.502,1317.334,1078.193,1318.758,1077.055z"/>
	<path fill-rule="evenodd" clip-rule="evenodd" fill="#E1F6F3" d="M460.927,2045.716c3.553-6.061,9.369-7.342,14.672-8.557
		c13.618-3.116,27.378-5.612,41.102-8.253c11.876-2.285,23.606-3.006,35.53,0.744c3.644,1.146,8.637-0.148,12.423-1.731
		c6.02-2.515,7.313-5.757,4.624-11.985c-3.549-8.219-7.79-16.175-12.218-23.969c-5.193-9.143-7.041-18.324-3.96-28.713
		c3.419-11.529,9.563-20.381,20.673-25.458c2.421-1.106,4.855-2.233,7.131-3.604c6.634-3.991,8.579-7.404,6.525-14.876
		c-1.92-6.987-4.948-13.705-7.89-20.364c-1.875-4.247-4.673-8.076-6.715-12.26c-4.889-10.013-3.592-15.92,4.945-22.753
		c2.56-2.049,5.458-3.676,8.283-5.551c5.262,3.328,7.002,8.515,8.904,13.346c4.876,12.392,9.096,25.044,14.146,37.359
		c2.751,6.71,6.321,13.151,10.128,19.342c5.39,8.766,5.285,12.006-2.506,18.447c-5.34,4.413-7.93,10.224-7.241,16.734
		c0.973,9.216,2.778,18.381,4.792,27.441c2.308,10.388,5.315,20.615,7.861,30.953c1.742,7.071-0.518,12.818-5.498,18.182
		c-14.239,15.339-31.925,20.813-52.326,19.8c-12.304-0.612-24.845-2.159-36.909-0.532c-18.146,2.444-35.066-1.715-52.189-5.773
		C470.157,2052.486,464.772,2051.28,460.927,2045.716z"/>
	<path fill-rule="evenodd" clip-rule="evenodd" fill="#E1F6F3" d="M1657.699,825.759c-2.831,3.913-5.254,8.217-8.568,11.665
		c-11.526,11.992-23.192,23.863-35.126,35.449c-14.326,13.908-29.09,27.364-43.456,41.232c-9.239,8.919-9.226,10.439-4.043,22.477
		c1.299,3.016,2.28,6.311,2.647,9.563c1.716,15.185,2.563,30.116-1.312,45.451c-3.224,12.757-3.015,26.366-4.598,39.565
		c-0.509,4.25-1.485,8.54-2.949,12.555c-2.265,6.205-6.772,10.549-12.897,13.176c-8.423,3.611-11.694,1.822-12.678-7.193
		c-0.541-4.96-0.884-9.944-1.195-14.925c-0.381-6.086-2.944-10.706-8.279-13.916c-17.825-10.722-26.065-26.915-26.504-47.367
		c-0.186-8.62-0.42-17.264-0.004-25.866c0.51-10.536,5.475-19.169,13.529-25.757c6.425-5.256,13.337-9.919,20.056-14.813
		c16.938-12.336,33.796-24.786,50.861-36.944c17.877-12.738,35.837-25.368,54.024-37.655c5.612-3.792,12.088-6.307,18.168-9.406
		C1656.15,823.954,1656.925,824.857,1657.699,825.759z"/>
	<path fill-rule="evenodd" clip-rule="evenodd" fill="#E1F6F3" d="M1404.357,943.507c6.751,7.955,5.7,15.859,3.715,23.564
		c-3.732,14.494-8.244,28.791-11.84,43.315c-1.991,8.042-3.132,16.345-3.982,24.6c-0.469,4.552-0.046,9.349,0.868,13.854
		c1.37,6.75,4.4,8.736,11.297,8.504c2.658-0.09,5.31-0.437,7.961-0.689c5.062-0.483,9.157,1.061,11.965,5.51
		c7.653,12.135,19.109,18.114,32.919,20.262c1.646,0.256,3.318,0.426,4.917,0.86c6.746,1.831,8.902,4.343,8.986,11.23
		c0.049,3.977-0.328,7.996-0.92,11.934c-0.687,4.578,0.861,7.673,4.895,9.871c4.089,2.228,8.248,4.429,11.978,7.183
		c7.141,5.27,8.419,12.505,4.269,21.331c-3.542,7.532-8.301,9.817-17.131,8.224c-0.655-0.118-1.373-0.125-1.949-0.41
		c-13.137-6.52-27.201-7.263-41.57-8.313c-9.219-0.673-18.566-5.028-27.03-9.35c-14.771-7.542-25.953-19.72-36.157-32.497
		c-2.862-3.586-4.09-9.076-4.584-13.847c-1.732-16.718,0.724-33.206,3.982-49.585c4.885-24.543,11.517-48.568,21.663-71.499
		c2.547-5.76,5.642-11.317,8.931-16.695C1399.143,948.237,1401.771,946.235,1404.357,943.507z"/>
	<path fill-rule="evenodd" clip-rule="evenodd" fill="#E1F6F3" d="M2169.006,1441.809c4.223,8.184,3.065,15.934,0.796,23.082
		c-4.825,15.203-9.724,30.488-16.127,45.065c-22.818,51.946-49.801,101.799-81.08,149.062
		c-14.448,21.833-32.665,41.183-49.342,61.521c-2.498,3.048-5.838,5.442-8.955,7.932c-1.223,0.977-2.901,1.381-5.74,2.664
		c-0.746-4.123-2.291-7.634-1.766-10.801c1.132-6.838,2.45-13.893,5.268-20.151c6.004-13.342,12.55-26.49,19.69-39.262
		c24.214-43.305,48.415-86.627,73.357-129.513c14.727-25.322,30.715-49.917,46.42-74.657
		C2155.556,1450.404,2159.819,1443.759,2169.006,1441.809z"/>
	<path fill-rule="evenodd" clip-rule="evenodd" fill="#E1F6F3" d="M947.592,2667.773c3.989,0.439,7.544,0.676,11.046,1.241
		c33.521,5.415,66.989,11.159,100.558,16.245c21.72,3.291,43.708,4.908,65.347,8.612c23.927,4.099,47.568,9.841,71.375,14.653
		c30.34,6.133,60.772,11.822,91.053,18.227c7.701,1.629,15.349,4.533,22.359,8.14c7.535,3.876,12.665,10.378,14.341,20.98
		c-9.839-1.43-18.705-2.261-27.368-4.065c-24.106-5.021-47.961-11.467-72.229-15.438c-26.576-4.348-53.451-7.123-80.288-9.571
		c-45.105-4.115-90.354-7.151-134.452-18.262c-12.836-3.233-25.386-7.985-37.599-13.148c-6.269-2.652-11.845-7.349-17.102-11.86
		C950.389,2679.884,947.369,2675.008,947.592,2667.773z"/>
	<path fill-rule="evenodd" clip-rule="evenodd" fill="#E1F6F3" d="M271.402,1861.53c10.596-0.889,21.281-1.22,31.752-2.887
		c5.742-0.914,11.646-3.267,16.557-6.408c9.229-5.905,13.031-14.71,10.734-25.854c-0.799-3.874-1.37-7.935-1.136-11.854
		c0.447-7.451,3.836-10.556,11.254-11.391c9.46-1.064,12.057-2.847,12.453-11.917c0.694-15.896,2.298-31.906-2.457-47.613
		c-0.75-2.479-0.538-6.644,1.017-8.045c1.657-1.495,5.62-1.342,8.254-0.659c6.097,1.578,10.423,5.964,13.472,11.252
		c9.485,16.458,14.487,34.38,14.94,53.264c0.125,5.26-2.259,11.173-5.11,15.785c-5.982,9.679-6.337,18.597,0.416,27.816
		c1.564,2.137,2.841,4.517,4.004,6.904c3.289,6.75,2.243,9.303-4.945,12.035c-2.481,0.943-5.069,1.632-7.646,2.285
		c-10.131,2.569-14.748,9.452-15.596,19.484c-0.419,4.953-0.63,10.012-1.854,14.787c-1.532,5.978-4.295,7.287-10.44,6.252
		c-1.302-0.219-2.645-0.526-3.82-1.099c-15.499-7.544-32.399-9.95-49.052-13.039c-5.735-1.064-11.85-0.54-17.751-0.144
		c-10.935,0.734-21.836,1.961-32.763,2.852c-1.962,0.16-3.999-0.174-5.964-0.504c-6.152-1.038-11.82-2.957-13.58-9.903
		c-1.513-5.969,2.457-14.79,8.944-17.46c5.735-2.359,12.113-3.275,18.287-4.392c3.237-0.585,6.644-0.257,9.974-0.292
		c3.332-0.034,6.662-0.008,9.994-0.008C271.36,1861.03,271.381,1861.28,271.402,1861.53z"/>
	<path fill-rule="evenodd" clip-rule="evenodd" fill="#E1F6F3" d="M1487.426,2535.55c15.601-9.63,31.289-18.331,48.045-24.86
		c14.565-5.677,29.499-10.406,44.088-16.027c14.582-5.616,28.912-11.883,43.402-17.744c15.11-6.113,30.262-12.128,45.426-18.107
		c17.337-6.836,34.757-13.463,52.048-20.41c17.969-7.221,34.88-16.435,51.172-26.945c9.473-6.111,19.358-11.882,29.724-16.213
		c7.162-2.992,15.416-4.091,23.266-4.529c9.337-0.523,12.589,4.023,10.547,13.321c-2.079,9.475-7.209,16.994-15.515,22.348
		c-20.271,13.067-41.801,23.421-64.896,30.409c-12.42,3.759-24.862,7.467-37.401,10.795c-33.277,8.83-64.317,23.626-96.31,35.872
		c-27.662,10.59-55.083,21.812-82.785,32.291c-9.286,3.514-18.986,6.251-28.73,8.145
		C1501.21,2545.507,1492.874,2544.633,1487.426,2535.55z"/>
	<path fill-rule="evenodd" clip-rule="evenodd" fill="#E1F6F3" d="M1491.906,849.022c2.158,7.719,1.808,14.333,0.071,20.671
		c-5.619,20.511-11.587,40.927-17.49,61.359c-1.568,5.428-3.475,10.759-5.081,16.177c-3.976,13.413-1.424,25.773,6.797,36.839
		c4.552,6.128,9.822,11.722,14.784,17.545c5.394,6.329,11.077,12.435,16.134,19.021c5.496,7.156,5.023,11.984-1.264,18.461
		c-2.057,2.118-4.735,3.632-6.603,5.029c1.675,7.64,6.859,9.826,11.111,12.725c9.608,6.554,11.785,11.81,8.105,22.634
		c-1.37,4.026-3.451,8.005-6.009,11.4c-8.481,11.259-19.046,10.711-26.455-1.167c-1.754-2.811-2.905-5.995-4.618-8.835
		c-1.702-2.824-3.435-5.761-5.74-8.058c-3.754-3.737-8.609-5.652-13.679-3.334c-7.772,3.554-13.617,0.509-18.847-4.701
		c-8.604-8.572-13.449-18.741-13.059-31.256c0.665-21.365,3.011-42.471,8.688-63.125c10.258-37.315,24.198-73.229,41.469-107.844
		C1482.69,857.62,1484.948,852.251,1491.906,849.022z"/>
	<path fill-rule="evenodd" clip-rule="evenodd" fill="#E1F6F3" d="M1799.128,888.56c-4.043,6.418-9.261,8.906-14.48,10.559
		c-17.414,5.514-34.84,11.127-52.556,15.51c-17.095,4.228-34.557,6.971-51.854,10.383c-3.264,0.644-6.591,1.113-9.753,2.102
		c-7.584,2.373-10.977,7.7-8.718,15.325c1.848,6.245,1.667,10.206-3.481,15.622c-5.589,5.879-7.333,15.257-5.219,23.524
		c2.934,11.476-2.189,18.129-10.74,24.279c-11.611,8.353-22.756,17.355-34.145,26.022c-5.296,4.03-10.529,8.18-16.104,11.793
		c-4.049,2.624-8.549,6.791-13.587,3.827c-5.593-3.291-3.903-9.667-3.062-14.652c1.432-8.486,3.43-16.967,6.164-25.124
		c4.332-12.924,9.598-25.534,14.214-38.367c2.811-7.812,5.506-15.698,7.615-23.719c4.429-16.847,14.317-28.589,31.311-33.049
		c16.061-4.214,32.283-7.996,48.619-10.945c27.824-5.023,55.772-9.392,83.72-13.701c7.199-1.109,14.588-1.197,21.896-1.297
		C1792.021,886.61,1795.087,887.758,1799.128,888.56z"/>
	<path fill-rule="evenodd" clip-rule="evenodd" fill="#E1F6F3" d="M540.404,222.699c-4.001-4.377-1.753-9.387,1.767-13.472
		c13.45-15.615,26.91-31.251,41.07-46.214c5.166-5.459,12.142-9.3,18.571-13.447c8.259-5.329,15.282-11.738,20.382-20.205
		c1.716-2.849,3.836-5.453,5.6-8.276c10.576-16.929,23.915-30.978,41.083-41.507c6.747-4.138,12.521-9.874,18.697-14.934
		c5.151-4.222,9.938-8.961,15.408-12.708c25.061-17.165,51.367-32.22,79.576-43.547c9.469-3.801,19.827-5.395,29.793-7.942
		c1.277-0.326,2.651-0.503,3.962-0.43c3.316,0.185,7.115,0.087,8.29,4.068c1.313,4.451-1.852,6.995-5.291,8.452
		c-7.036,2.983-14.113,6.101-21.469,8.052c-14.36,3.807-27.325,10.321-39.792,18.176C697.627,76.84,646.105,124.619,602.73,181.251
		c-9.184,11.99-19.568,22.697-31.567,31.836c-7.501,5.712-15.483,10.434-24.938,10.92c-12.133,32.255-34.863,55.814-60.126,77.373
		c-2.507,2.139-5.365,4.123-8.401,5.305c-2.19,0.852-5.969,1.282-7.203,0.055c-1.759-1.752-3.005-5.497-2.392-7.848
		c1.237-4.745,3.248-9.565,6.065-13.56c5.747-8.146,11.657-16.329,18.562-23.471c10.167-10.515,21.019-20.413,32.079-29.996
		C529.162,228.096,534.862,225.882,540.404,222.699z"/>
	<path fill-rule="evenodd" clip-rule="evenodd" fill="#E1F6F3" d="M272.982,532.234c0.555,1.59,2.018,3.601,1.51,4.7
		c-2.342,5.067-4.422,10.622-8.091,14.634c-8.646,9.456-15.843,19.599-20.417,31.623c-1.163,3.055-3.007,5.993-5.096,8.525
		c-5.9,7.158-13.643,10.474-22.936,9.583c-6.182-0.593-9.283-3.536-9.036-9.685c0.196-4.888,0.893-10.162,2.981-14.485
		c4.903-10.15,10.382-20.078,16.364-29.634c5.633-8.998,12.192-17.419,18.383-26.065c2.345-3.275,4.398-7.345,8.266-4.629
		c6.134-8.563,11.477-16.949,17.772-24.546c6.14-7.411,13.278-13.993,19.933-20.981c8.504-8.929,16.543-18.162,22.45-29.166
		c2.136-3.978,5.39-7.724,8.983-10.459c5.102-3.885,11.025-6.369,16.783-1.69c1.569-4.176,2.333-8.497,4.58-11.812
		c12.181-17.972,26.482-34.169,42.51-48.82c1.381-1.264,3.205-2.045,5.016-3.17c2.966,4.451,4.79,10.057,8.519,11.992
		c3.861,2.003,9.569,0.446,14.478,0.446c-1.905,15.473-27.896,40.327-59.679,56.893c3.022,4.944,0.943,9.328-2.028,13.567
		c-21.194,30.234-46.385,56.516-76.758,77.682c-2.001,1.395-5.397,1.716-4.474,5.507c-4.825-0.475-9.642-0.948-14.648-1.44
		c0.584,4.753,3.15,5.18,6.454,4.155C267.544,534.106,270.256,533.146,272.982,532.234z"/>
	<path fill-rule="evenodd" clip-rule="evenodd" fill="#E1F6F3" d="M1494.454,2507.288c3.207-2.099,6.318-4.36,9.633-6.271
		c53.344-30.758,106.725-61.45,160.071-92.206c22.492-12.967,44.888-26.102,67.393-39.049c17.333-9.972,34.853-19.564,54.776-23.533
		c1.631-0.324,3.235-0.834,4.88-1.032c4.163-0.503,8.252,0.024,10.743,3.719c2.628,3.9,0.887,7.907-1.56,11.12
		c-3.412,4.478-6.983,8.996-11.212,12.661c-16.875,14.629-34.403,28.312-54.787,38.004c-70.95,33.743-142.927,65.085-216.359,93.041
		c-6.515,2.481-13.267,4.351-19.947,6.372c-0.769,0.232-1.795-0.387-2.701-0.611
		C1495.074,2508.765,1494.764,2508.026,1494.454,2507.288z"/>
	<path fill-rule="evenodd" clip-rule="evenodd" fill="#E1F6F3" d="M2149.809,1381.378c-3.616,26.37-3.728,53.044-19.542,77.101
		c-29.475,44.84-59.366,89.334-91.188,132.545c-5.481,7.444-12.194,10.931-20.987,11.424c-6.803,0.382-9.305-1.686-8.801-8.674
		c0.354-4.902,1.387-9.993,3.295-14.5c4.796-11.326,9.54-22.774,15.577-33.456c31.071-54.979,67.621-106.17,108.245-154.476
		c3.347-3.98,7.224-7.516,10.854-11.259C2148.111,1380.515,2148.96,1380.946,2149.809,1381.378z"/>
	<path fill-rule="evenodd" clip-rule="evenodd" fill="#E1F6F3" d="M103.877,1714.273c6.182,1.353,11.658,2.451,17.084,3.758
		c19.228,4.63,38.212,5.879,56.459-3.805c2.352-1.248,4.731-2.486,6.925-3.981c9.155-6.243,10.153-11.212,4.396-20.909
		c-1.356-2.285-2.695-4.586-3.922-6.941c-1.782-3.421-1.144-6.964,1.627-9.113c10.296-7.989,21.117-15.112,34.703-16.076
		c0.557-0.04,1.157,0.543,2.342,1.142c0,3.202,0,6.697,0,10.115c9.196,3.182,15.426,1.155,18.903-6.777
		c2.12-4.838,3.126-10.157,4.765-15.217c1.636-5.052,2.682-10.517,5.399-14.931c2.272-3.689,6.157-7.026,10.099-8.892
		c5.622-2.659,9.799-0.284,11.251,5.868c0.974,4.125,1.438,8.696,0.738,12.833c-2.829,16.731-6.079,33.396-9.454,50.026
		c-0.784,3.864-2.5,7.578-4.084,11.232c-2.671,6.163-7.178,10.581-13.903,11.783c-7.96,1.425-12.959,6.115-16.714,12.907
		c-2.896,5.239-6.278,10.21-9.457,15.292c-2.216,3.543-5.18,4.779-9.358,3.545c-8.862-2.618-17.726-1.439-26.699-0.094
		c-21.457,3.22-42.57,1.189-63.006-6.071c-4.902-1.742-9.596-4.722-13.652-8.031
		C103.475,1727.982,101.011,1722.604,103.877,1714.273z"/>
	<path fill-rule="evenodd" clip-rule="evenodd" fill="#E1F6F3" d="M1865.696,1797.774c-4.793,0.567-9.59,1.661-14.378,1.616
		c-39.079-0.361-77.727-3.245-115.111-16.364c-46.604-16.354-91.885-35.437-134.673-60.284
		c-22.193-12.889-41.075-29.523-57.391-49.105c-5.504-6.605-10.032-14.076-14.508-21.455c-1.749-2.883-2.127-6.598-3.13-9.933
		c0.604-0.521,1.206-1.044,1.809-1.565c3.45,2.121,7.162,3.916,10.298,6.431c6.229,4.993,12.004,10.554,18.209,15.58
		c23.648,19.158,49.355,34.884,76.839,48.106c42.91,20.645,85.711,41.358,130.823,56.978c23.111,8.002,47.163,11.48,70.803,16.952
		c7.449,1.725,14.867,3.621,22.213,5.741c2.989,0.862,5.746,2.527,8.609,3.828
		C1865.972,1795.458,1865.835,1796.616,1865.696,1797.774z"/>
	<path fill-rule="evenodd" clip-rule="evenodd" fill="#E1F6F3" d="M209.325,1570.751c0.672,3.382,1.707,6.778,1.971,10.233
		c1.303,17.069-4.338,32.837-9.746,48.568c-0.692,2.015-3.424,3.7-5.591,4.765c-5.374,2.64-8.811,6.523-11.018,12.183
		c-3.257,8.348-6.847,16.64-11.182,24.464c-2.678,4.835-6.618,9.17-10.694,12.977c-3.92,3.662-8.979,4.112-13.952,1.492
		c-13.816-7.278-27.815-14.236-41.383-21.952c-17.474-9.938-33.046-22.484-46.46-37.465c-4.604-5.143-8.196-11.251-11.819-17.181
		c-1.315-2.151-1.818-5.051-1.92-7.64c-0.269-6.804,3.475-9.064,9.587-5.438c4.54,2.693,8.531,6.328,12.701,9.627
		c6.521,5.162,12.85,10.576,19.502,15.559c14.417,10.801,30.338,10.459,46.668,5.633c6.262-1.851,9.714-6.234,11.432-12.651
		c1.342-5.013,3.2-10.251,6.224-14.363c4.054-5.511,8.251-5.391,13.782-1.204c1.321,1,2.434,2.268,3.687,3.362
		c6.702,5.855,9.102,5.677,13.891-2.119c3.647-5.938,6.349-12.456,9.919-18.448C197.926,1576.117,200.891,1570.569,209.325,1570.751
		z"/>
	<path fill-rule="evenodd" clip-rule="evenodd" fill="#E1F6F3" d="M1549.007,1584.93c5.657,2.959,9.481,4.709,13.058,6.868
		c20.812,12.563,41.449,25.416,62.363,37.805c34.696,20.553,70.089,39.74,108.099,53.653c29.293,10.722,59.302,17.301,90.661,17.965
		c17.289,0.366,34.544,2.403,51.807,3.769c1.845,0.146,3.646,0.841,5.794,3.324c-3.19,1.009-6.316,2.361-9.581,2.974
		c-32.274,6.05-64.698,8.49-97.344,3.245c-47.026-7.555-92.037-21.347-134.074-44.05c-31.37-16.943-59.396-38.106-81.746-66.213
		C1554.162,1599.39,1550.069,1594.542,1549.007,1584.93z"/>
	<path fill-rule="evenodd" clip-rule="evenodd" fill="#E1F6F3" d="M2182.549,1389.366c0.537-3.767,0.873-7.417,1.597-10.989
		c6.523-32.23,13.44-64.386,19.552-96.694c3.146-16.634,4.591-33.583,7.354-50.298c3.209-19.396,8.372-38.334,16.121-56.436
		c2.458-5.744,5.562-11.42,9.409-16.311c5.548-7.05,10.636-6.958,18.249-2.479c11.19,6.584,15.962,15.624,12.451,28.377
		c-3.079,11.187-5.514,22.657-9.784,33.385c-8.6,21.609-18.458,42.713-27.398,64.192c-5.486,13.182-10.46,26.591-15.248,40.045
		c-4.599,12.918-6.459,26.389-7.567,40.056c-0.612,7.534-2.616,14.995-4.461,22.372c-0.788,3.152-2.482,6.193-4.277,8.952
		c-2.719,4.182-5.894,9.228-11.584,7.744C2180.881,1399.698,2183.631,1393.521,2182.549,1389.366z"/>
	<path fill-rule="evenodd" clip-rule="evenodd" fill="#E1F6F3" d="M163.227,1481.084c7.165,4.161,8.688,10.908,9.447,17.358
		c2.674,22.711-2.567,44.291-10.529,65.37c-1.198,3.172-3.505,4.278-6.806,4.862c-7.302,1.294-8.853,3.266-9.543,10.288
		c-0.032,0.33-0.007,0.666-0.028,0.998c-0.92,14.215-3.423,17.037-17.465,18.655c-5.608,0.646-11.294,0.643-16.947,0.867
		c-4.672,0.186-7.604-1.807-8.214-6.704c-0.701-5.631-2.279-10.489-9.306-10.841c-1.168-0.058-2.47-1.056-3.388-1.948
		c-14.063-13.676-28.217-27.263-41.988-41.229c-3.183-3.228-5.296-7.648-7.36-11.791c-1.295-2.601-1.95-5.669-2.233-8.592
		c-0.438-4.526,0.508-9.575,5.206-10.682c2.64-0.621,6.919,1.843,9.146,4.172c4.334,4.533,7.894,9.847,11.497,15.029
		c4.368,6.283,8.072,13.064,12.816,19.03c2.289,2.879,6.042,5.276,9.593,6.307c5.514,1.6,9.141-1.527,9.029-7.376
		c-0.083-4.269-0.912-8.627-2.097-12.746c-1.75-6.076-0.859-11.228,3.951-15.398c4.578-3.971,10.131-4.084,14.994-1.516
		c5.479,2.895,10.644,6.674,15.272,10.82c6.326,5.667,9.078,6.1,12.897-1.452c4.628-9.155,7.998-18.955,11.765-28.533
		C155.124,1490.471,156.864,1484.688,163.227,1481.084z"/>
	<path fill-rule="evenodd" clip-rule="evenodd" fill="#E1F6F3" d="M1495.791,2492.378c0.275-0.568,0.412-1.29,0.846-1.686
		c26.279-24.001,52.027-48.629,79.119-71.677c13.566-11.542,29.335-20.605,44.56-30.063c19.193-11.925,38.6-23.558,58.41-34.413
		c9.528-5.223,20.126-8.555,30.379-12.369c3.895-1.449,9.2-3.586,11.673,1.182c2.417,4.661-2.635,7.61-5.533,10.588
		c-2.31,2.371-4.9,4.532-7.606,6.445c-27.158,19.181-53.728,39.291-81.718,57.176c-36.981,23.632-75.061,45.551-112.741,68.084
		c-5.302,3.169-11.02,5.642-16.545,8.438C1496.353,2493.515,1496.071,2492.946,1495.791,2492.378z"/>
	<path fill-rule="evenodd" clip-rule="evenodd" fill="#E1F6F3" d="M1966.637,1282.108c-22.348-2.053-44.173-4.091-66.005-6.053
		c-26.545-2.386-53.025-3.272-79.644,0.08c-10.397,1.31-21.162-0.23-31.758-0.562c-9.312-0.292-18.614-0.875-27.928-1.023
		c-9.649-0.153-19.306,0.122-28.958,0.1c-12.198-0.03-13.528-1.935-10.076-15.423c4.408-0.657,9.227-1.702,14.094-2.047
		c30.207-2.135,60.442-3.878,90.631-6.231c17.237-1.344,34.387-3.786,51.612-5.322c5.182-0.462,10.698-0.375,15.702,0.89
		c23.755,6.006,45.219,17.403,66.425,29.29c1.724,0.967,3.245,2.324,4.761,3.616
		C1965.925,1279.791,1966.006,1280.569,1966.637,1282.108z"/>
	<path fill-rule="evenodd" clip-rule="evenodd" fill="#E1F6F3" d="M1426.578,1629.087c5.148,1.398,9.843,2.033,13.959,3.926
		c8.019,3.687,15.204,3.509,22.43-1.889c3.139-2.344,6.842-4.507,10.594-5.286c3.64-0.755,8.016-0.502,11.453,0.86
		c6.175,2.443,7.682,7.207,4.227,12.89c-2.545,4.186-5.856,8.118-9.53,11.365c-15.549,13.744-33.518,23.854-51.851,33.292
		c-2.463,1.268-5.88,1.74-8.605,1.235c-8.112-1.504-16.189-3.371-24.114-5.67c-8.886-2.578-17.597-5.759-26.368-8.725
		c-3.124-1.057-6.45-1.829-9.244-3.478c-4.535-2.673-5.97-7.098-4.11-12.062c2.408-6.431,6.116-12.322,13.169-13.955
		C1387.949,1637.107,1407.44,1633.175,1426.578,1629.087z"/>
	<path fill-rule="evenodd" clip-rule="evenodd" fill="#E1F6F3" d="M2359.168,1036.594c-1.974-1.084-3.172-1.338-3.646-2.065
		c-5.233-8.011-10.538-15.988-15.345-24.253c-0.896-1.54-0.108-4.481,0.653-6.489c3.373-8.897,9.171-16.172,16.009-22.654
		c10.029-9.507,21.71-16.505,34.183-22.255c23.524-10.845,48.318-16.956,74.023-19.487c8.251-0.812,16.438-0.353,26.437,3.718
		c-4.958,2.38-8.281,4.12-11.715,5.599c-26.464,11.398-51.41,25.352-73.076,44.533c-10.217,9.045-19.649,18.972-29.671,28.247
		C2371.209,1026.866,2364.935,1031.743,2359.168,1036.594z"/>
	<path fill-rule="evenodd" clip-rule="evenodd" fill="#E1F6F3" d="M1369.338,1742.793c-4.45,9.758-11.224,14.85-19.162,17.459
		c-10.686,3.511-21.709,6.784-32.827,8.047c-27.611,3.135-55.215,1.806-82.552-3.496c-3.249-0.631-6.43-1.686-9.578-2.738
		c-0.837-0.279-1.432-1.281-2.853-2.628c2.2-2.488,4.498-4.783,6.437-7.35c3.389-4.489,7.447-8.775,9.553-13.842
		c1.92-4.618,4.813-7.122,9.03-8.36c4.445-1.305,9.063-2.537,13.653-2.744c33.525-1.509,66.509,2.031,98.769,11.48
		C1362.871,1739.519,1365.708,1741.181,1369.338,1742.793z"/>
	<path fill-rule="evenodd" clip-rule="evenodd" fill="#E1F6F3" d="M2329.168,1018.832c5.376,6.659,4.429,13.223,3.499,19.314
		c-4.152,27.162-11.745,53.316-26.673,76.639c-4.923,7.69-11.64,14.457-18.435,20.66c-6.474,5.91-14.932,6.981-23.508,5.256
		c-10.55-2.122-13.551-6.941-10.179-17.063c1.669-5.009,3.83-9.999,6.627-14.459c7.412-11.819,14.838-23.677,23.091-34.908
		c12.396-16.87,25.432-33.275,38.387-49.726C2323.819,1022.205,2326.741,1020.718,2329.168,1018.832z"/>
	<path fill-rule="evenodd" clip-rule="evenodd" fill="#E1F6F3" d="M1531.608,1580.445c-7.381,7.681-14.053,15.558-21.69,22.347
		c-10.735,9.542-23.542,13.375-37.969,10.733c-2.614-0.479-5.378-0.353-7.895-1.104c-10.377-3.1-20.339-1.473-30.337,1.829
		c-4.386,1.448-9.022,2.697-13.588,2.856c-3.423,0.119-7.352-0.936-10.27-2.739c-4.424-2.731-4.668-8.1-0.902-11.752
		c7.879-7.642,15.885-15.162,24.091-22.447c2.139-1.898,5.087-3.121,7.868-4.022c23.152-7.499,46.953-8.993,70.998-6.727
		C1519.03,1570.09,1526.583,1571.216,1531.608,1580.445z"/>
	<path fill-rule="evenodd" clip-rule="evenodd" fill="#E1F6F3" d="M1698.596,1344.488c-1.367,2.811-2.26,6.147-4.286,8.513
		c-4.944,5.769-10.025,11.536-15.756,16.492c-11.422,9.878-23.996,12.3-37.593,4.016c-13.434-8.186-27.035-7.505-40.81-0.705
		c-6.553,3.235-13.255,6.179-19.975,9.056c-3.248,1.392-6.694,2.325-12.32,4.236c1.414-5.323,1.817-8.791,3.215-11.797
		c9.798-21.063,26.45-33.806,48.926-38.735c25.795-5.657,50.885-1.45,75.566,6.539
		C1696.437,1342.385,1697.107,1343.291,1698.596,1344.488z"/>
	<path fill-rule="evenodd" clip-rule="evenodd" fill="#E1F6F3" d="M1573.668,1502.049c-1.567,5.238-2.451,9.404-4.039,13.284
		c-6.264,15.302-15.707,28.495-27.084,40.427c-5.251,5.507-10.803,7.479-18.7,6.029c-15.013-2.758-30.113-4.277-45.629-3.848
		c-10.561,0.291-21.263-4.489-33.06-7.274c4.756-10.799,11.653-18.366,21.587-21.758c9-3.072,18.817-5.933,28.119-5.504
		c20.629,0.951,39.454-1.863,56.209-15.025C1556.717,1503.944,1563.941,1501.682,1573.668,1502.049z"/>
	<path fill-rule="evenodd" clip-rule="evenodd" fill="#E1F6F3" d="M1885.744,2411.015c-3.083-0.533-8.128-0.867-12.805-2.356
		c-5.426-1.727-7.009-5.566-5.713-11.05c2.621-11.093,15.754-18.862,26.934-16.05c10.356,2.604,20.632,1.237,30.514-1.96
		c10.75-3.478,21.113-8.134,31.802-11.822c9.413-3.252,18.879-6.954,28.628-8.438c7.64-1.164,15.949-0.142,23.596,1.555
		c8.117,1.801,9.409,7.495,2.82,12.821c-6.632,5.36-14.032,10.698-21.991,13.324c-29.711,9.805-59.749,18.668-90.916,22.805
		C1894.986,2410.324,1891.321,2410.517,1885.744,2411.015z"/>
	<path fill-rule="evenodd" clip-rule="evenodd" fill="#E1F6F3" d="M2377.688,1158.076c0.646,4.798,1.499,7.614,1.313,10.359
		c-0.702,10.295-1.567,20.589-2.753,30.84c-0.414,3.58-1.353,7.343-3.042,10.49c-8.97,16.71-17.733,33.573-27.671,49.704
		c-4.437,7.203-11.093,13.208-17.418,19.023c-4.762,4.381-11.002,6.126-17.69,5.037c-8.71-1.418-11.77-5.831-8.743-13.985
		c1.829-4.929,4.603-9.616,7.582-13.983c3.556-5.214,8.182-9.712,11.627-14.988c4.696-7.189,8.987-14.679,12.972-22.291
		c9.755-18.633,20.52-36.613,33.852-52.919C2369.83,1162.776,2373.245,1161.254,2377.688,1158.076z"/>
	<path fill-rule="evenodd" clip-rule="evenodd" fill="#E1F6F3" d="M142.733,721.781c-13.504-7.581-13.239-7.537-10.58-23.467
		c0.907-5.432,0.683-11.221-0.028-16.717c-1.126-8.699-1.51-17.259,1.58-25.561c1.207-3.245,3.392-6.125,5.76-10.272
		c5.618,7.722,1.209,16.044,5.591,24.355c2.373-3.543,4.174-6.02,5.75-8.631c3.427-5.68,6.27-11.788,10.265-17.025
		c2.709-3.552,6.658-6.492,10.625-8.664c4.189-2.293,8.476-0.284,11.994,2.5c3.569,2.824,4.232,6.866,2.708,10.844
		c-2.13,5.56-4.957,10.85-7.283,16.341c-1.594,3.757-2.844,7.659-4.248,11.497c0.645,0.571,1.289,1.142,1.934,1.713
		c7.788-3.833,15.576-7.667,23.713-11.672c1.91,3.934-0.817,6.066-2.44,8.167c-7.307,9.466-14.838,18.758-22.254,28.14
		c-8.565,10.835-18.681,18.795-33.412,18.286C142.441,721.639,142.733,721.781,142.733,721.781z"/>
	<path fill-rule="evenodd" clip-rule="evenodd" fill="#E1F6F3" d="M2145.167,1223.562c11.395-1.649,18.595,3.639,22.196,12.497
		c3.967,9.759,7.181,20.106,8.763,30.496c4.478,29.4,4.658,58.979,0.688,88.507c-1.215,9.031-2.159,10.738-7.293,15.715
		c-5.833-2.792-7.01-8.715-8.166-13.973c-2.993-13.618-5.953-27.313-7.645-41.135c-3.309-27.058-5.779-54.22-8.498-81.349
		C2144.886,1231.07,2145.167,1227.76,2145.167,1223.562z"/>
	<path fill-rule="evenodd" clip-rule="evenodd" fill="#E1F6F3" d="M2197.4,950.378c-1.647,7.559-3.026,13.257-4.118,19.01
		c-3.709,19.547-1.219,38.409,6.722,56.564c3.596,8.221,7.382,16.363,11.297,24.438c2.894,5.966,5.063,11.792-0.425,17.416
		c-5.526,5.663-12.187,7.834-19.998,5.999c-7.617-1.79-13.516-6.343-16.652-13.198c-3.139-6.856-5.932-14.254-6.847-21.665
		c-2.178-17.622-0.808-35.251,3.999-52.404C2175.416,972.133,2182.807,959.877,2197.4,950.378z"/>
	<path fill-rule="evenodd" clip-rule="evenodd" fill="#E1F6F3" d="M1500.932,1481.56c4.717-2.036,9.029-3.733,13.2-5.729
		c11.702-5.598,23.529-10.975,34.955-17.097c10.03-5.374,20.227-8.655,31.591-6.107c9.179,2.059,16.939-0.544,24.331-5.943
		c4.671-3.413,9.451-7.456,17.479-5.488c-1.668,3.515-2.522,6.757-4.448,9.13c-10.058,12.391-20.048,24.866-30.753,36.686
		c-6.212,6.86-7.895,6.872-15.599,2.453c-5.799-3.326-11.162-3.48-17.133-1.185c-6.521,2.51-13.101,4.904-19.769,6.981
		c-4.744,1.479-9.622,2.905-14.534,3.379C1508.186,1499.804,1502.839,1495.1,1500.932,1481.56z"/>
	<path fill-rule="evenodd" clip-rule="evenodd" fill="#E1F6F3" d="M969.108,2648.469c14.009,1.965,25.722,3.545,37.416,5.26
		c50.404,7.396,100.704,15.683,151.7,18.08c17.942,0.843,36.009,0.219,53.584,4.961c6.743,1.82,13.548,3.454,20.176,5.625
		c3.299,1.082,6.262,3.19,9.195,4.738c-1.169,5.917-5.226,6.17-8.683,6.164c-6.302-0.013-12.805,0.116-18.869-1.318
		c-30.317-7.172-61.371-7.996-92.134-11.276c-41.708-4.447-83.607-7.655-124.417-18.077c-7.967-2.035-15.499-5.826-23.142-9.025
		C972.643,2653.059,971.813,2651.412,969.108,2648.469z"/>
	<path fill-rule="evenodd" clip-rule="evenodd" fill="#E1F6F3" d="M1406.826,1702.775c-0.665,8.886-5.36,14-12.261,16.312
		c-7.785,2.608-15.95,4.813-24.088,5.46c-10.878,0.864-21.888,0.005-32.842-0.012c-12.304-0.018-22.168-5.936-31.581-12.927
		c-1.577-1.171-2.995-2.659-4.187-4.229c-5.986-7.882-4.167-14.533,5.349-17.409c5.649-1.707,11.707-2.689,17.607-2.83
		c25.134-0.598,49.535,4.022,73.432,11.502C1401.276,1699.587,1404.026,1701.4,1406.826,1702.775z"/>
	<path fill-rule="evenodd" clip-rule="evenodd" fill="#E1F6F3" d="M1831.861,2343.24c3.493-2.776,5.613-4.746,7.999-6.313
		c28.445-18.689,58.495-34.403,89.934-47.359c8.235-3.395,17.171-5.107,25.816-7.479c4.004-1.099,8.438-1.445,10.88,2.418
		c2.735,4.33,0.089,8.438-2.844,11.716c-2.863,3.202-5.975,6.352-9.495,8.77c-30.984,21.279-65.348,33.991-102.409,39.485
		C1845.728,2345.371,1839.432,2345.732,1831.861,2343.24z"/>
	<path fill-rule="evenodd" clip-rule="evenodd" fill="#E1F6F3" d="M2409.685,1172.871c-2.55-7.603-5.26-13.356-6.349-19.4
		c-2.507-13.9,3.273-24.821,16.147-31.07c17.055-8.278,46.918-9.672,65.296,13.242c8.018,9.998,13.196,21.286,14.812,34.679
		c-2.536-2.711-5.065-5.43-7.609-8.133c-18.123-19.259-38.064-21.271-59.496-5.947
		C2425.499,1161.236,2418.604,1166.36,2409.685,1172.871z"/>
	<path fill-rule="evenodd" clip-rule="evenodd" fill="#E1F6F3" d="M2205.914,1430.326c0.534-3.738,0.552-7.644,1.703-11.182
		c2.87-8.815,5.564-17.797,9.579-26.108c8.671-17.949,18.178-35.494,27.21-53.271c1.477-2.907,2.419-6.117,3.36-9.261
		c5.185-17.314,15.584-30.68,30.813-40.196c3.184-1.989,7.164-2.704,12.862-4.757c-1.411,5.005-1.931,8.134-3.15,10.963
		c-7.497,17.393-14.633,34.973-22.964,51.962c-4.491,9.162-10.78,17.525-16.873,25.796c-6.503,8.825-14.125,16.833-20.519,25.729
		c-5.394,7.504-9.733,15.765-14.526,23.698c-1.504,2.487-2.965,5.002-4.445,7.505
		C2207.948,1430.911,2206.931,1430.618,2205.914,1430.326z"/>
	<path fill-rule="evenodd" clip-rule="evenodd" fill="#E1F6F3" d="M1343.047,2743.507c47.063-14.882,99.418-16.48,117.271-4.239
		c-2.765,5.674-8.419,7.493-13.584,8.905c-18.882,5.164-37.882,9.919-56.935,14.415c-6.762,1.595-13.789,2.107-20.715,2.947
		C1351.526,2767.666,1345.234,2762.432,1343.047,2743.507z"/>
	<path fill-rule="evenodd" clip-rule="evenodd" fill="#E1F6F3" d="M2154.974,1200.658c8.767-37.648,17.154-75.648,31.17-111.808
		c6.736,0.951,8.595,4.246,8.939,8.548c0.74,9.245,1.787,18.505,1.804,27.761c0.033,18.346-2.255,36.508-8.178,53.91
		c-2.415,7.094-6.008,14.133-10.536,20.076C2172.092,1207.124,2164.709,1207.188,2154.974,1200.658z"/>
	<path fill-rule="evenodd" clip-rule="evenodd" fill="#E1F6F3" d="M1630.508,1420.469c-1.408,0.099-1.825,0.266-2.057,0.125
		c-10.726-6.504-20.878-3.291-31.107,1.531c-11.418,5.382-22.823,10.863-34.567,15.447c-6.71,2.619-14.014,4.068-21.187,5.007
		c-3.995,0.523-8.269-1.081-14.155-1.997c2.594-3.34,3.788-5.662,5.649-7.148c12.2-9.748,24.43-19.469,36.887-28.886
		c7.409-5.601,15.689-7.777,25.31-6.616c5.693,0.687,11.753-1.198,17.586-2.263c4.887-0.892,9.63-2.676,14.534-3.351
		c11.47-1.578,14.644,2.781,10.322,13.79c-1.091,2.776-2.466,5.447-3.803,8.121
		C1632.895,1416.278,1631.726,1418.255,1630.508,1420.469z"/>
	<path fill-rule="evenodd" clip-rule="evenodd" fill="#E1F6F3" d="M1587.159,2821.07c-0.66-3.898-1.742-7.778-1.901-11.697
		c-0.513-12.678-7.294-20.306-18.877-24.115c-6.941-2.283-14.063-4.021-21.003-6.309c-6.681-2.203-11.571-6.468-13.549-13.504
		c-3.636-12.943,3.909-23.103,17.463-22.2c13.894,0.925,26.94,5.314,36.804,15.692c3.743,3.938,7.311,9.189,8.329,14.359
		C1597.641,2789.612,1595.07,2805.575,1587.159,2821.07z"/>
	<path fill-rule="evenodd" clip-rule="evenodd" fill="#E1F6F3" d="M1771.765,2332.875c-9.863-0.292-19.052-2.955-27.083-8.711
		c-6.433-4.61-6.853-9.117-1.873-15.137c1.677-2.027,3.64-3.942,5.804-5.423c10.953-7.495,21.89-15.029,33.097-22.13
		c4.931-3.124,10.514-7.245,16.543-3.11c6.086,4.175,7.081,11.1,6.379,17.905c-1.161,11.258-5.771,21.082-13.925,29.056
		C1785.479,2330.436,1779.135,2332.967,1771.765,2332.875z"/>
	<path fill-rule="evenodd" clip-rule="evenodd" fill="#E1F6F3" d="M1607.897,1317.675c-2.046-4.746,0.722-7.939,3.622-10.625
		c4.386-4.06,9.205-7.652,13.843-11.439c8.741-7.136,17.378-14.402,26.254-21.366c9.265-7.268,19.766-9.37,31.015-5.731
		c7.35,2.377,10.964,7.857,9.925,15.334c-1.635,11.752-7.188,21.799-14.979,32.302c-3.504-4.031-6.241-7.212-9.012-10.362
		c-7.805-8.874-13.441-9.393-23.467-3.049c-8.132,5.147-16.537,9.891-25.017,14.447
		C1616.291,1319.224,1612.025,1320.538,1607.897,1317.675z"/>
	<path fill-rule="evenodd" clip-rule="evenodd" fill="#E1F6F3" d="M1590.736,2663.732c-14.085,3.342-26.909,7.633-37.884,16.306
		c-11.341,8.964-14.029,22.836-19.219,35.634c-10.879-2.834-17.519-9.701-23.525-17.172c-1.149-1.43-0.99-4.498-0.485-6.58
		c6.081-25.047,37.812-44.89,62.888-39.479C1580.226,2654.105,1583.835,2656.268,1590.736,2663.732z"/>
	<path fill-rule="evenodd" clip-rule="evenodd" fill="#E1F6F3" d="M1369.919,2682.412c-5.257,2.127-9.313,4.34-13.648,5.426
		c-26.375,6.609-53.157,9.162-80.276,6.698c-5.22-0.475-10.508-1.961-15.366-3.954c-2.8-1.146-5.497-3.857-6.996-6.556
		c-2.128-3.83-0.092-7.484,4.319-7.85c28.52-2.358,56.897-7.569,85.674-5.122
		C1352.891,2671.843,1361.952,2673.941,1369.919,2682.412z"/>
	<path fill-rule="evenodd" clip-rule="evenodd" fill="#E1F6F3" d="M461.455,302.519c7.004,4.563,8.73,10.21,6.152,16.895
		c-1.895,4.913-4.033,9.899-7.01,14.197c-10.348,14.939-23.537,27.035-38.979,36.576c-4.418,2.73-8.959,5.962-16.161,4.028
		c0.263-2.879-0.294-6.323,0.95-8.896c9.913-20.492,22.293-39.318,39.917-54.064C450.789,307.519,456.526,305.306,461.455,302.519z"
		/>
	<path fill-rule="evenodd" clip-rule="evenodd" fill="#E1F6F3" d="M2180.494,2186.318c-16.771-1.516-25.542,7.157-32.756,18.914
		c-2.892,4.714-7.11,8.701-11.121,12.613c-3.378,3.293-7.683,3.1-10.629-0.365c-4.025-4.736-8.082-9.763-10.632-15.347
		c-2.622-5.739-1.045-11.626,3.62-16.491c9.747-10.164,42.171-17.744,58.364-3.479
		C2178.052,2182.789,2178.519,2183.69,2180.494,2186.318z"/>
	<path fill-rule="evenodd" clip-rule="evenodd" fill="#E1F6F3" d="M205.205,590.634c2.001,9.649,7.274,15.57,13.93,20.227
		c4.425,3.097,4.755,6.443,2.884,11.128c-5.855,14.663-22.332,20.962-36.235,13.611c-9.268-4.901-12.623-13.753-8.833-23.519
		c3.377-8.705,9.72-15.155,17.207-20.139C196.869,590.139,201.357,591.004,205.205,590.634z"/>
	<path fill-rule="evenodd" clip-rule="evenodd" fill="#E1F6F3" d="M2220.35,2298.11c-2.833-1.522-4.822-2.729-6.923-3.696
		c-8.701-4.004-13.949-2.955-20.461,4.053c-2.49,2.678-4.708,5.64-7.389,8.104c-6.149,5.656-11.013,5.62-17.69,0.252
		c-7.175-5.767-9.6-12.911-4.718-18.983c4.003-4.977,9.502-9.513,15.297-12.073c5.835-2.577,12.879-3.499,19.349-3.339
		C2212.127,2272.781,2220.085,2282.069,2220.35,2298.11z"/>
	<path fill-rule="evenodd" clip-rule="evenodd" fill="#E1F6F3" d="M2039.256,2244.512c-9.95-0.096-13.261-5.043-8.694-12.306
		c2.907-4.624,7.439-8.363,11.688-11.974c6.03-5.128,12.378-9.899,18.773-14.57c3.19-2.329,6.59-4.64,10.251-5.993
		c5.577-2.062,9.533,0.981,8.64,6.874c-1.579,10.418-5.812,20.096-13.576,27.195
		C2058.525,2240.882,2048.233,2243.248,2039.256,2244.512z"/>
	<path fill-rule="evenodd" clip-rule="evenodd" fill="#E1F6F3" d="M2006.097,2260.408c0.07,15.828-10.654,22.443-24.656,14.865
		c-3.694-1.999-7.146-4.998-9.781-8.281c-5.001-6.232-4.889-13.289-0.585-19.416c5.32-7.575,11.446-9.895,19.741-7.477
		C2001.927,2243.34,2006.046,2248.814,2006.097,2260.408z"/>
	<path fill-rule="evenodd" clip-rule="evenodd" fill="#E1F6F3" d="M1833.118,2298.896c3.28-3.574,6.262-8.088,10.369-11.022
		c7.507-5.365,15.452-10.239,23.644-14.492c7.817-4.06,13.558-0.79,13.219,7.905c-0.249,6.376-2.755,12.74-4.821,18.922
		c-0.644,1.924-2.87,4.037-4.829,4.688c-12.019,3.989-23.96,4.402-35.303-2.358
		C1834.649,2302.092,1834.343,2300.907,1833.118,2298.896z"/>
	<path fill-rule="evenodd" clip-rule="evenodd" fill="#E1F6F3" d="M2081.776,2347.909c-1.781-22.288,28.256-49.251,57.291-58.871
		c-0.453,2.565-0.188,5.062-1.275,6.606c-13.912,19.75-30.787,36.612-50.383,50.736c-1.047,0.754-2.416,1.103-3.682,1.496
		C2083.131,2348.063,2082.427,2347.909,2081.776,2347.909z"/>
	<path fill-rule="evenodd" clip-rule="evenodd" fill="#E1F6F3" d="M2036.347,2362.527c-6.857,0.066-9.29-3.025-6.629-8.201
		c5.549-10.784,13.676-18.746,26.208-20.893c5.591-0.957,9.868,3.136,9.015,8.8c-0.33,2.19-1.344,4.577-2.775,6.25
		C2055.145,2356.695,2045.849,2360.799,2036.347,2362.527z"/>
	<path fill-rule="evenodd" clip-rule="evenodd" fill="#E1F6F3" d="M1412.685,2695.589c-4.765-1.24-9.733-1.984-14.239-3.848
		c-5.521-2.282-6.202-6.898-1.647-10.886c6.716-5.881,15.013-8.1,23.775-8.34c3.989-0.108,7.045,2.131,8.35,5.895
		c1.506,4.338,0.773,8.506-2.468,11.984C1422.755,2694.366,1417.976,2695.218,1412.685,2695.589z"/>
	<path fill-rule="evenodd" clip-rule="evenodd" fill="#E1F6F3" d="M1924.713,2251.764c-0.191,9.156-5.526,12.692-13.681,8.846
		c-6.449-3.042-11.565-7.754-14.859-14.085c-3.762-7.23-0.966-11.849,7.07-11.372c4.521,0.269,9.254,1.121,13.383,2.896
		C1922.117,2240.41,1924.833,2245.978,1924.713,2251.764z"/>
	<path fill-rule="evenodd" clip-rule="evenodd" fill="#E1F6F3" d="M1503.905,2761.319c-0.782-0.146-2.784,0.048-3.954-0.847
		c-3.035-2.32-6.978-4.634-8.207-7.848c-1.623-4.245,2.409-7.701,5.951-9.179c7.259-3.026,14.822-5.471,22.45-7.401
		c4.134-1.045,6.334,1.631,5.914,5.663C1525.167,2750.289,1513.247,2761.269,1503.905,2761.319z"/>
	<path fill-rule="evenodd" clip-rule="evenodd" fill="#E1F6F3" d="M1477.146,2695.14c-6.644-0.084-13.354-6.386-13.108-12.31
		c0.216-5.212,7.194-10.398,13.842-10.291c5.551,0.091,11.279,5.471,11.103,10.426
		C1488.747,2689.557,1483.245,2695.216,1477.146,2695.14z"/>
	<path fill-rule="evenodd" clip-rule="evenodd" fill="#E1F6F3" d="M56.757,994.458c-2.414,0-4.827,0-7.24,0
		c-0.011-0.374-0.023-0.747-0.035-1.121c2.46,0,4.921,0,7.381,0C56.828,993.711,56.792,994.083,56.757,994.458z"/>
</g>
</svg>
