<?xml version="1.0" encoding="utf-8"?>
<!-- Generator: Adobe Illustrator 16.0.0, SVG Export Plug-In . SVG Version: 6.00 Build 0)  -->
<!DOCTYPE svg PUBLIC "-//W3C//DTD SVG 1.1//EN" "http://www.w3.org/Graphics/SVG/1.1/DTD/svg11.dtd">
<svg version="1.1" id="Layer_1" xmlns="http://www.w3.org/2000/svg" xmlns:xlink="http://www.w3.org/1999/xlink" x="0px" y="0px"
	 width="530.974px" height="755.962px" viewBox="0 0 530.974 755.962" enable-background="new 0 0 530.974 755.962"
	 xml:space="preserve">
<g>
	<path fill="#B7E4DC" d="M196.211,377.273c-1.424,0-2.813,0.41-4.014,1.188l-0.787,0.509l0.805,0.479
		c1.229,0.731,1.963,2.01,1.963,3.42c0,2.2-1.789,3.991-4.031,3.991c-0.006,0-0.008,0-0.012,0l-1.092-0.073l0.383,0.872
		c1.182,2.696,3.846,4.439,6.785,4.439c4.088,0,7.412-3.325,7.412-7.412C203.623,380.597,200.299,377.273,196.211,377.273z"/>
	<path fill="#B7E4DC" d="M336.746,392.097c4.088,0,7.412-3.325,7.412-7.412c0-4.088-3.324-7.412-7.412-7.412
		c-1.426,0-2.813,0.41-4.016,1.188l-0.787,0.509l0.807,0.479c1.229,0.731,1.961,2.01,1.961,3.42c0,2.2-1.787,3.991-4.029,3.991
		c-0.006,0-0.01,0-0.012,0l-1.092-0.073l0.381,0.872C331.143,390.354,333.807,392.097,336.746,392.097z"/>
	<path fill="#B7E4DC" d="M504.982,438.379l-52.234-118.96l0.443-0.157l-0.822-0.707l-0.154-0.352l4.234-92.414l0.004-0.093
		l-0.008-0.093c-0.238-2.927-6.008-71.93-20.381-94.072c-14.494-22.331-22.432-20.989-23.293-20.766l-0.404,0.107l-54.236,57.792
		l-55.695,27.461l0.025,0.049l-26.287-4.761l-10.184-7.92l-0.504,0.648l-0.504-0.648l-10.182,7.92l-26.289,4.761l0.023-0.049
		l-55.693-27.461l-53.951-57.488l-0.285-0.304l-0.404-0.107c-0.852-0.225-8.797-1.563-23.291,20.766
		c-14.373,22.143-20.143,91.146-20.383,94.072l-0.006,0.093l4.238,92.505L25.99,438.379l35.803,122.2l0.129,0.44l203.047,161.895
		l0.518-0.648l0.518,0.648l202.689-161.607l0.359-0.287l9.281-31.681c0.756-1.929,1.129-3.302,1.176-3.484l-0.145-0.037
		l4.301-14.679c0.199-0.35,0.328-0.585,0.371-0.662l-0.152-0.082l20.949-71.507L504.982,438.379z M489.395,410.111
		c-0.088-0.085-0.17-0.178-0.283-0.238l-0.102-0.056c-0.705-0.387-1.588-0.126-1.973,0.58c-0.383,0.706-0.123,1.588,0.582,1.972
		l0.102,0.056c0.221,0.12,0.459,0.178,0.695,0.178c0.516,0,1.014-0.273,1.277-0.759c0.121-0.224,0.156-0.462,0.156-0.7l10.09,22.981
		l-85.529-62.438c0.225-0.129,0.418-0.319,0.551-0.563c0.385-0.705,0.123-1.587-0.58-1.971l-0.104-0.057
		c-0.705-0.385-1.588-0.124-1.971,0.582c-0.066,0.124-0.092,0.255-0.119,0.387l-3.406-2.487c0.273-0.677,0.027-1.461-0.629-1.818
		l-0.102-0.055c-0.537-0.295-1.174-0.209-1.619,0.158l-3.932-2.871c-0.129-0.252-0.309-0.48-0.576-0.626l-0.051-0.027l-0.039-1.098
		l-18.625,6.83l-25.313-17.107c13.451-4.155,25.496-6.834,25.729-6.886l4.529-0.995l-0.797-0.327l62.646-22.356L489.395,410.111z
		 M445.291,537.457l20.682,22.302l-15.17,12.095c-0.424-0.235-0.945-0.275-1.4-0.023c-0.605,0.335-0.846,1.032-0.662,1.669
		l-12.225,9.746l-30.854-12.169l4.67,31.377l-29.811-11.758l4.67,31.382l-29.084-11.472l4.65,31.257l-29.502-11.637l4.75,31.922
		l-29.846-11.771l4.896,32.9l-16.504,13.157l-17.561-77.467c10.473-1.466,25.1-5.828,31.764-18.497l8.291-0.021l-3.291-0.786
		l35.264-56.757l55.521-48.678c0.139,0.043,0.279,0.07,0.426,0.07c0.09,0,0.18-0.018,0.27-0.035l2.984,3.218
		c-0.184,0.022-0.369,0.078-0.543,0.173c-0.701,0.39-0.953,1.275-0.563,1.977l0.055,0.102c0.266,0.479,0.762,0.748,1.273,0.748
		c0.238,0,0.48-0.06,0.705-0.184c0.408-0.227,0.641-0.623,0.707-1.053l23.895,25.768l-0.117,0.107
		c0.861,0.927,1.73,1.78,2.605,2.575l8.4,9.059l-0.072,0.075C444.811,537.051,445.051,537.242,445.291,537.457z M313.65,680.955
		l-3.875-26.028l24.48,9.656L313.65,680.955z M338.744,660.802l-3.875-26.026l24.48,9.654L338.744,660.802z M363.596,641.183
		l-3.873-26.027l24.479,9.654L363.596,641.183z M388.012,621.273l-3.875-26.027l24.48,9.654L388.012,621.273z M413.152,601.653
		l-3.875-26.027l24.48,9.654L413.152,601.653z M97.119,585.28l24.479-9.654l-3.875,26.027L97.119,585.28z M122.262,604.9
		l24.479-9.654l-3.875,26.027L122.262,604.9z M146.676,624.81l24.48-9.654l-3.875,26.027L146.676,624.81z M171.527,644.43
		l24.48-9.654l-3.875,26.026L171.527,644.43z M196.623,664.583l24.477-9.654l-3.875,26.026L196.623,664.583z M224.717,650.375
		l-29.846,11.771l4.75-31.922l-29.5,11.637l4.65-31.257l-29.086,11.472l4.67-31.382l-29.811,11.758l4.668-31.377l-30.787,12.143
		l-12.268-9.78c0.139-0.603-0.125-1.229-0.705-1.554c-0.402-0.226-0.869-0.202-1.273-0.024l-14.955-11.924l30.941-33.369
		c0.473-0.466,0.945-0.944,1.414-1.449l-0.037-0.035l23.602-25.451c0.125,0.267,0.307,0.51,0.586,0.664
		c0.223,0.124,0.465,0.184,0.703,0.184c0.512,0,1.008-0.27,1.273-0.748l0.057-0.102c0.389-0.701,0.137-1.587-0.564-1.977
		c-0.055-0.029-0.115-0.031-0.17-0.055l3.086-3.328c0.1-0.015,0.193-0.037,0.289-0.071l55.26,48.238l35.693,57.45l0.654-0.361v0.858
		h1.658l-1.209,0.323l5.621-0.016c6.217,11.565,19.113,16.132,29.256,17.902l-16.613,78.084l-16.895-13.471L224.717,650.375z
		 M54.438,525.135l-1.928-6.58c5.014,6.567,13.23,14.937,23.266,16.229c0.881,0.113,1.756,0.169,2.629,0.169
		c2.455,0,4.881-0.452,7.27-1.345l-1.045,1.127c-6.557,6.01-12.418,8.32-17.424,6.858c-8.916-2.604-12.65-16.342-12.688-16.479
		L54.438,525.135z M132.945,197.716c-1.977,0-3.584,1.609-3.584,3.586c0,1.978,1.607,3.586,3.584,3.586
		c0.662,0,1.277-0.193,1.811-0.509l29.699,27.466l-47.818-25.372l1.063-75.302c5.455,3.938,16.596,18.999,23.176,28.845
		l7.986,41.077l0.051,0.267l18.326,29.101l-30.777-28.465c0.043-0.225,0.07-0.456,0.07-0.693
		C136.531,199.326,134.922,197.716,132.945,197.716z M164.551,235.188l-48.152-11.833l0.193-13.616L164.551,235.188z
		 M162.291,237.625l-46.088-0.438l0.154-10.849L162.291,237.625z M165.881,240.567l-19.506,7.129
		c-0.656-0.811-1.648-1.341-2.773-1.341c-1.975,0-3.584,1.607-3.584,3.583c0,1.977,1.609,3.586,3.584,3.586
		c1.779,0,3.25-1.307,3.529-3.009l18.611-6.805l-20.25,17.395l-26.4-20.983L165.881,240.567z M161.182,251.459
		c-11.1,14.721-25.416,38.654-17.549,56.237c5.203,11.631,20.586,17.949,48.861,19.699c-20.686,4.167-40.908,12.114-44.758,13.668
		l-31.555-11.345v-39.608L161.182,251.459z M210.467,327.907c2.432,0,4.941-0.023,7.52-0.07h0.006l0.023-0.001
		c0.006,0,0.014,0,0.021,0c0.002,0,0.002-0.001,0.004-0.001h0.01c9.379-0.246,21.619,8.633,25.871,25.641
		c4.23,16.921,1.748,32.391,1.721,32.544l-0.018,0.172c-0.393,8.53-3.064,31.188-10.609,33.561
		c-8.93,2.808-14.371-5.966-14.596-6.338l-0.137-0.228c0.242-6.153,0.861-38.618-12.377-49.836
		c-11.564-9.801-43.354-18.153-55.334-21.043c10.24-3.872,36.566-13.123,57.51-14.403
		C210.213,327.904,210.338,327.907,210.467,327.907z M127.639,491.418l1.889-55.811l34.176-2.747l42.225-3.128
		c-0.197,0.221-0.342,0.481-0.377,0.779l-3.92,1.971c-0.008-0.109,0.002-0.218-0.027-0.328c-0.215-0.775-1.07-1.217-1.844-1.001
		c-0.775,0.214-1.229,1.014-1.016,1.787c0.084,0.308,0.266,0.559,0.496,0.744l-55.342,27.821c-0.58-0.404-1.281-0.644-2.041-0.644
		c-1.975,0-3.582,1.607-3.582,3.583c0,1.977,1.607,3.586,3.582,3.586c1.977,0,3.586-1.609,3.586-3.586
		c0-0.15-0.025-0.294-0.045-0.44l58.672-29.494l-59.922,46.658c-0.463-0.219-0.971-0.349-1.514-0.349
		c-1.977,0-3.586,1.608-3.586,3.585s1.609,3.586,3.586,3.586c1.975,0,3.584-1.609,3.584-3.586c0-0.36-0.07-0.703-0.17-1.033
		l59.439-46.284l-41.385,48.387c-0.355-0.117-0.729-0.197-1.123-0.197c-1.977,0-3.586,1.607-3.586,3.584s1.609,3.585,3.586,3.585
		c1.975,0,3.584-1.608,3.584-3.585c0-0.51-0.111-0.994-0.305-1.435l40.482-47.33c-0.221,0.646,0.01,1.373,0.625,1.725
		c0.227,0.131,0.475,0.192,0.721,0.192c0.504,0,0.992-0.262,1.262-0.731l0.059-0.101c0.398-0.696,0.158-1.584-0.539-1.984
		c-0.43-0.246-0.92-0.225-1.336-0.026l3.16-3.692c0.08,0.074,0.148,0.161,0.25,0.219c0.227,0.13,0.477,0.192,0.721,0.192
		c0.316,0,0.619-0.114,0.873-0.307l-5.195,21.646l-38.777,69.915L127.639,491.418z M131.906,365.351l14.799,5.426l12.576,59.523
		l-29.654,2.383L131.906,365.351z M214.877,425.833l-51.508,4.139l-1.168,0.087l-12.295-58.2l17.076,5.608l0.189-0.577l4.98,4.455
		c0.051,0.193,0.15,0.537,0.289,0.986l-8.219,1.781c-0.785,0.17-1.283,0.942-1.113,1.728c0.148,0.681,0.748,1.146,1.418,1.146
		c0.104,0,0.207-0.01,0.309-0.033l8.563-1.855c0.502,1.322,1.162,2.873,1.988,4.516l-11.539,6.117
		c-0.707,0.376-0.979,1.255-0.602,1.965c0.26,0.491,0.764,0.772,1.285,0.772c0.229,0,0.461-0.055,0.68-0.169l11.568-6.134
		c0.619,1.04,1.303,2.082,2.061,3.09l-13.488,11.102c-0.621,0.509-0.711,1.425-0.199,2.045c0.287,0.35,0.703,0.53,1.121,0.53
		c0.326,0,0.652-0.109,0.922-0.332l13.514-11.12c0.99,1.066,2.063,2.061,3.246,2.913c0.063,0.045,0.127,0.086,0.189,0.131
		l-15.209,18.231c-0.514,0.616-0.432,1.532,0.186,2.047c0.271,0.227,0.602,0.337,0.93,0.337c0.416,0,0.83-0.178,1.117-0.521
		l15.492-18.571c1.141,0.599,2.342,1.124,3.57,1.584l-8.672,16.243l2.564,1.369l8.906-16.68c1.145,0.338,2.287,0.627,3.4,0.875
		l-2.232,12.837c-0.137,0.79,0.393,1.543,1.184,1.681c0.084,0.015,0.168,0.021,0.252,0.021c0.691,0,1.307-0.498,1.43-1.204
		l2.221-12.772c1.201,0.206,2.33,0.367,3.346,0.49c0.004,0.024-0.006,0.049-0.002,0.073l1.744,10.028
		c0.123,0.707,0.738,1.205,1.43,1.205c0.084,0,0.168-0.007,0.25-0.022c0.793-0.137,1.32-0.89,1.184-1.68l-1.619-9.309
		c0.848,0.063,1.457,0.093,1.744,0.104l9.992,6.744c-0.006,0.197-0.014,0.332-0.016,0.351l0.381,0.022L214.877,425.833z
		 M195.412,398.927c-6.852,0-12.426-5.574-12.426-12.426c0-6.853,5.574-12.426,12.426-12.426s12.426,5.573,12.426,12.426
		C207.838,393.353,202.264,398.927,195.412,398.927z M205.318,376.232c-3.313-2.944-8.549-4.438-15.564-4.438
		c-2.574,0-5.189,0.205-7.688,0.519v-18.402c9.707,3.398,18.965,7.423,23.961,11.657c8.314,7.045,10.652,24.19,11.238,36.063
		C214.369,389.361,210.303,380.665,205.318,376.232z M179.16,372.731c-0.867,0.141-1.707,0.288-2.518,0.442v-21.09
		c0.838,0.271,1.678,0.548,2.518,0.829V372.731z M173.734,373.772c-0.912,0.202-1.758,0.402-2.52,0.592v-18.737l2.52-1.715V373.772z
		 M169.07,374.922c-0.57,0.155-1.033,0.288-1.381,0.391l0.199-0.608l-16.668-5.474l17.088-11.627v17.318H169.07z M212.994,433.685
		c-0.092-0.177-0.215-0.329-0.375-0.459l0.674-0.788L212.994,433.685z M107.076,297.932v28.512l-3.295-1.184v-24.498
		L107.076,297.932z M109.982,295.436l3.293-2.828v36.066l-3.293-1.185V295.436z M97.982,301.913l0.26-49.806l27.645,25.837
		L97.982,301.913z M100.875,303.26v20.955l-17.199-6.185L100.875,303.26z M81.066,320.183l62.662,22.529l-0.898,0.37l4.529,0.995
		c0.023,0.007,0.193,0.043,0.451,0.102l0.92,0.332l0.039-0.11c3.553,0.824,13.4,3.196,24.189,6.523l-25.199,17.145l-18.621-6.828
		l-0.045,1.298l-4.385,3.2c-0.422-0.24-0.943-0.285-1.4-0.034l-0.102,0.055c-0.582,0.317-0.838,0.972-0.701,1.588l-3.406,2.488
		c-0.02-0.053-0.02-0.107-0.047-0.157c-0.385-0.706-1.27-0.967-1.971-0.582l-0.104,0.057c-0.705,0.384-0.965,1.266-0.58,1.971
		c0.092,0.17,0.221,0.305,0.361,0.419l-3.945,2.88c0.215-0.413,0.25-0.911,0.01-1.351c-0.383-0.706-1.27-0.967-1.971-0.582
		l-0.102,0.057c-0.707,0.384-0.965,1.266-0.582,1.971c0.264,0.484,0.762,0.759,1.277,0.759c0.08,0,0.16-0.016,0.24-0.029
		l-80.654,58.879L81.066,320.183z M128.969,366.23l-4.242,125.261L94.08,524.542c-5.777,5.665-11.797,8.142-17.928,7.359
		c-15.021-1.929-26.297-22.593-26.41-22.801l-0.002,0.001l-20.523-70.051L128.969,366.23z M247.078,553.971
		c3.846,0,6.975,3.13,6.975,6.977c0,3.846-3.129,6.976-6.975,6.976c-3.848,0-6.977-3.13-6.977-6.976
		C240.102,557.101,243.23,553.971,247.078,553.971z M247.078,570.83c5.447,0,9.881-4.434,9.881-9.882
		c0-5.449-4.434-9.883-9.881-9.883c-2.33,0-4.469,0.815-6.162,2.169l-0.023-0.086c-3.225,0.851-5.648,0.698-7.006-0.434
		c-0.607-0.507-0.961-1.172-1.168-1.808c-0.166-2.007-0.176-3.291-0.176-3.345c-0.063-6.022,1.797-10.988,5.529-14.761
		c7.875-7.959,21.857-8.818,27.506-8.818c0.316,0,0.602,0.003,0.9,0.008c0.25-0.005,0.533-0.008,0.85-0.008
		c5.648,0,19.631,0.859,27.508,8.818c3.732,3.772,5.592,8.738,5.527,14.776c0,0.029-0.004,0.493-0.039,1.27l-0.16,0.015
		c0.002,0.023,0.174,2.501-1.443,3.853c-1.357,1.131-3.783,1.282-7.008,0.434l-0.021,0.086c-1.691-1.354-3.83-2.169-6.16-2.169
		c-5.449,0-9.883,4.434-9.883,9.883c0,5.448,4.434,9.882,9.883,9.882s9.881-4.434,9.881-9.882c0-1.577-0.381-3.064-1.041-4.39
		c0.352,0.027,0.693,0.041,1.025,0.041c1.648,0,3.057-0.338,4.223-0.999c-1.02,6.392-3.441,14.939-9.199,19.135l-23.967,6.887
		l-23.967-6.887c-5.707-4.16-8.137-12.598-9.172-18.975c1.102,0.548,2.395,0.839,3.896,0.839c0.332,0,0.674-0.014,1.025-0.041
		c-0.66,1.325-1.041,2.813-1.041,4.39C237.195,566.396,241.629,570.83,247.078,570.83z M265.133,347.885l0.467,0.854l0.49-0.896
		c0.818,0.188,1.432,0.919,1.432,1.791c0,1.016-0.826,1.842-1.842,1.842c-1.014,0-1.84-0.826-1.84-1.842
		C263.84,348.811,264.387,348.121,265.133,347.885z M242.24,299.964l-39.928-21.832h33.625v-0.501
		c2.537,3.484,14.822,19.105,29.664,19.105c13.74,0,26.121-14.58,29.34-18.725v0.12h33.943L298.9,294.532l0,0l-9.941,5.438
		l-5.436,9.937h0.002L265.6,342.681L242.24,299.964z M243.395,308.135l-13.178,3.861l3.859-13.182l6.021,3.291L243.395,308.135z
		 M234.072,254.403l-3.857-13.18l13.18,3.859l-3.297,6.026L234.072,254.403z M242.24,253.25l5.436-9.941l0,0l17.924-32.771
		l17.926,32.776h-0.002l5.436,9.937l9.939,5.438v-0.001l30.236,16.539h-34.176c-0.578-0.75-1.459-1.844-2.598-3.137l7.002-1.75
		c0.777-0.196,1.252-0.985,1.057-1.764c-0.195-0.777-0.98-1.25-1.764-1.057l-8.525,2.132c-0.006,0.002-0.01,0.006-0.016,0.008
		c-1.248-1.29-2.67-2.659-4.24-4.014l6.406-4.435c0.66-0.456,0.824-1.361,0.365-2.022c-0.455-0.659-1.359-0.825-2.021-0.367
		l-7.094,4.911c-1.402-1.086-2.898-2.118-4.465-3.054l5.988-7.925c0.484-0.64,0.357-1.552-0.281-2.035
		c-0.643-0.486-1.555-0.357-2.037,0.282l-6.25,8.271c-1.256-0.62-2.547-1.16-3.869-1.596l3.947-12.733
		c0.236-0.766-0.191-1.579-0.959-1.818c-0.768-0.238-1.58,0.193-1.818,0.959l-3.98,12.839c-0.945-0.192-1.902-0.327-2.867-0.392
		V238.7c0-0.803-0.65-1.453-1.453-1.453s-1.453,0.65-1.453,1.453v17.838c-1.156,0.085-2.291,0.266-3.408,0.518l-4.021-12.972
		c-0.238-0.766-1.051-1.197-1.818-0.959c-0.766,0.239-1.195,1.053-0.959,1.818l4.002,12.908c-1.299,0.449-2.563,0.991-3.783,1.605
		L247.654,251c-0.484-0.64-1.396-0.77-2.035-0.282c-0.641,0.483-0.766,1.396-0.283,2.035l6.145,8.131
		c-1.535,0.935-2.988,1.964-4.35,3.035l-7.365-5.099c-0.662-0.458-1.566-0.292-2.021,0.367c-0.457,0.661-0.293,1.566,0.367,2.022
		l6.703,4.643c-1.533,1.355-2.916,2.725-4.117,4.005c-0.133-0.086-0.271-0.166-0.436-0.207l-8.527-2.132
		c-0.781-0.192-1.566,0.279-1.764,1.057c-0.193,0.778,0.279,1.567,1.057,1.764l7.559,1.891c-1.238,1.46-2.139,2.647-2.648,3.353
		v-0.356h-33.877L242.24,253.25z M263.84,203.528c0-1.014,0.826-1.84,1.84-1.84c1.016,0,1.842,0.826,1.842,1.84
		c0,0.883-0.627,1.623-1.457,1.799l-0.465-0.848l-0.441,0.807C264.4,205.058,263.84,204.362,263.84,203.528z M291.1,251.109
		l-3.293-6.022l13.178-3.859l-3.859,13.177L291.1,251.109z M277.902,276.609c0,6.785-5.52,12.306-12.305,12.306
		c-6.783,0-12.303-5.521-12.303-12.306c0-6.784,5.52-12.304,12.303-12.304C272.383,264.305,277.902,269.825,277.902,276.609z
		 M297.127,298.815l3.861,13.18l-13.182-3.862l3.293-6.021L297.127,298.815z M265.547,417.838l3.338,9.927l-3.25-1.293l-0.174,0.438
		l-0.174-0.438l-3.064,1.22L265.547,417.838z M261.006,431.302l4.455-1.772l4.639,1.845l3.299,9.812l-7.764-3.087l-0.174,0.438
		l-0.174-0.438l-7.596,3.02L261.006,431.302z M256.473,444.732l8.988-3.575l9.152,3.641l3.299,9.811l-12.277-4.883l-0.174,0.438
		l-0.174-0.438l-12.125,4.823L256.473,444.732z M251.943,458.159l13.518-5.375l13.664,5.434l3.299,9.813l-16.789-6.679l-0.174,0.438
		l-0.174-0.438l-16.656,6.625L251.943,458.159z M247.412,471.588l18.049-7.178l18.178,7.229l3.299,9.81l-21.303-8.472l-0.174,0.438
		l-0.174-0.438l-21.188,8.427L247.412,471.588z M242.881,485.016l22.58-8.979l22.689,9.023l3.299,9.812l-25.814-10.267l-0.174,0.437
		l-0.174-0.437l-25.717,10.228L242.881,485.016z M238.35,498.444l27.111-10.782l27.201,10.819l3.301,9.813l-30.328-12.063
		l-0.174,0.438l-0.174-0.438l-30.248,12.031L238.35,498.444z M233.82,511.874l31.641-12.585l31.717,12.615l3.297,9.81l-34.84-13.855
		l-0.174,0.437l-0.174-0.437l-34.779,13.831L233.82,511.874z M265.461,510.916l34.232,13.614l-5.365,4.01
		c-8.779-6.666-21.545-7.463-27-7.463c-0.334,0-0.635,0.003-0.85,0.008c-0.264-0.005-0.564-0.008-0.9-0.008
		c-5.672,0-19.262,0.847-28.041,8.278l-6.309-4.825L265.461,510.916z M292.506,560.948c0,3.846-3.129,6.976-6.975,6.976
		c-3.848,0-6.977-3.13-6.977-6.976c0-3.847,3.129-6.977,6.977-6.977C289.377,553.971,292.506,557.101,292.506,560.948z
		 M267.357,616.768v-0.013c-0.033,0.003-0.428,0.017-1.088,0.019c-0.557-0.004-0.881-0.016-0.912-0.019v0.013
		c-6.75-0.092-28.844-1.551-37.928-16.085l77.992-0.204C296.428,615.193,274.141,616.674,267.357,616.768z M256.215,619.036
		c1.107,0.147,2.158,0.261,3.15,0.35c0.184,0.516,0.641,0.91,1.219,0.966c0.049,0.005,0.098,0.007,0.145,0.007
		c0.549,0,1.037-0.311,1.281-0.777c0.813,0.044,1.561,0.074,2.217,0.091v98.934l-24.961-19.901L256.215,619.036z M267.133,619.69
		c0.51-0.003,1.111-0.012,1.791-0.032c0.258,0.418,0.707,0.7,1.223,0.7c0.047,0,0.096-0.002,0.145-0.007
		c0.516-0.051,0.922-0.38,1.137-0.813c0.826-0.054,1.721-0.127,2.664-0.222l17.939,79.13l-24.898,19.852V619.69z M312.523,327.829
		c0.137,0,0.273,0.002,0.408,0.006h0.012c0.002,0,0.002,0.001,0.004,0.001c0.008,0,0.016,0,0.021,0l0.023,0.001h0.006
		c2.58,0.047,5.084,0.07,7.52,0.07c0.133,0,0.258-0.003,0.391-0.003c20.932,1.281,47.262,10.533,57.504,14.403
		c-11.982,2.891-43.771,11.243-55.334,21.043c-13.238,11.218-12.619,43.688-12.377,49.838l-0.135,0.223
		c-0.229,0.375-5.664,9.148-14.596,6.341c-7.547-2.372-10.219-25.03-10.611-33.561l-0.02-0.172
		c-0.025-0.153-2.51-15.623,1.721-32.544C291.252,336.712,303.211,327.829,312.523,327.829z M369.824,251.487l44.578,38.289v40.241
		l-31.063,11.085c-3.592-1.454-23.98-9.504-44.859-13.706c28.279-1.75,43.668-8.068,48.873-19.699
		C395.215,290.125,380.922,266.209,369.824,251.487z M364.588,243.157l20.127,7.356c0.279,1.704,1.748,3.011,3.529,3.011
		c1.975,0,3.582-1.609,3.582-3.586c0-1.976-1.607-3.583-3.582-3.583c-1.125,0-2.117,0.53-2.775,1.341l-19.504-7.13l45.906-0.437
		l-26.389,20.976L364.588,243.157z M369.555,237.625l45.064-11.073l0.15,10.645L369.555,237.625z M367.293,235.188l47.096-24.99
		l0.189,13.371L367.293,235.188z M367.391,231.845l29.699-27.466c0.533,0.314,1.146,0.509,1.811,0.509
		c1.977,0,3.586-1.608,3.586-3.586c0-1.977-1.609-3.586-3.586-3.586s-3.584,1.609-3.584,3.586c0,0.237,0.027,0.468,0.07,0.693
		l-32.863,30.392l19.537-31.027l8.037-41.344c6.582-9.846,17.723-24.906,23.174-28.845l1.07,75.761L367.391,231.845z
		 M420.602,295.101v32.703l-3.293,1.176v-36.708L420.602,295.101z M423.508,297.597l3.295,2.83v25.164l-3.295,1.177V297.597z
		 M429.709,302.923l17.793,15.283l-17.793,6.349V302.923z M405.086,277.943l27.645-25.836l0.262,49.804L405.086,277.943z
		 M353.945,352.214v20.887c-0.813-0.15-1.654-0.296-2.518-0.433v-19.62C352.266,352.765,353.105,352.487,353.945,352.214z
		 M323.523,386.501c0-6.853,5.572-12.426,12.424-12.426s12.426,5.573,12.426,12.426c0,6.852-5.574,12.426-12.426,12.426
		S323.523,393.353,323.523,386.501z M348.52,372.264c-2.381-0.286-4.859-0.47-7.301-0.47c-7.016,0-12.252,1.493-15.563,4.438
		c-4.98,4.426-9.041,13.106-11.938,25.351c0.588-11.869,2.932-28.977,11.24-36.017c4.928-4.175,14-8.146,23.561-11.515V372.264z
		 M363.096,374.705l0.199,0.612c-0.348-0.103-0.816-0.236-1.393-0.395h0.373v-17.489l17.471,11.805L363.096,374.705z
		 M359.369,374.268c-0.768-0.187-1.611-0.384-2.518-0.58v-19.922l2.518,1.702V374.268z M313.268,414.006l0.379-0.022
		c0-0.019-0.008-0.155-0.016-0.357l9.982-6.737c0.33-0.014,1.082-0.049,2.137-0.135l-1.623,9.339
		c-0.139,0.79,0.391,1.543,1.182,1.68c0.084,0.016,0.168,0.022,0.252,0.022c0.691,0,1.307-0.498,1.43-1.205l1.744-10.028
		c0.006-0.042-0.008-0.08-0.004-0.121c1.021-0.131,2.145-0.297,3.336-0.509l2.232,12.839c0.123,0.706,0.736,1.204,1.43,1.204
		c0.082,0,0.166-0.007,0.252-0.021c0.791-0.138,1.32-0.891,1.182-1.681l-2.246-12.921c1.105-0.253,2.236-0.547,3.363-0.891
		l8.959,16.779l2.564-1.369l-8.738-16.363c1.215-0.469,2.4-1,3.521-1.605c0.004,0.004,0.004,0.009,0.008,0.013l15.6,18.7
		c0.287,0.344,0.699,0.521,1.117,0.521c0.328,0,0.658-0.11,0.93-0.337c0.617-0.515,0.699-1.431,0.186-2.047l-15.354-18.404
		c1.229-0.892,2.338-1.935,3.357-3.054l13.734,11.303c0.271,0.223,0.598,0.332,0.922,0.332c0.42,0,0.836-0.181,1.123-0.53
		c0.512-0.62,0.422-1.536-0.197-2.045l-13.734-11.302c0.736-0.999,1.402-2.023,2.006-3.048l11.867,6.292
		c0.219,0.114,0.451,0.169,0.68,0.169c0.521,0,1.025-0.281,1.285-0.772c0.377-0.71,0.105-1.589-0.602-1.965l-11.842-6.278
		c0.813-1.634,1.453-3.166,1.945-4.47c0.064,0.023,0.117,0.066,0.188,0.082l8.719,1.889c0.104,0.023,0.207,0.033,0.309,0.033
		c0.67,0,1.273-0.465,1.42-1.146c0.17-0.785-0.328-1.558-1.113-1.728l-8.582-1.86c0.123-0.405,0.217-0.727,0.266-0.907l4.986-4.463
		l0.193,0.585l17.076-5.608l-12.295,58.2l-52.609-3.896l-0.063-0.255L313.268,414.006z M318.824,434.001
		c-0.293,0.213-0.49,0.515-0.563,0.859l-0.506-2.108L318.824,434.001z M319.688,436.669c0.252,0,0.506-0.064,0.736-0.202
		c0.117-0.067,0.199-0.166,0.289-0.259l3.287,3.846c-0.443-0.301-1.033-0.354-1.529-0.069c-0.697,0.4-0.938,1.287-0.539,1.983
		l0.059,0.102c0.268,0.469,0.758,0.731,1.262,0.731c0.244,0,0.494-0.062,0.721-0.192c0.684-0.392,0.92-1.251,0.555-1.94
		l39.992,46.759c-0.193,0.44-0.305,0.925-0.305,1.435c0,1.977,1.607,3.585,3.584,3.585s3.586-1.608,3.586-3.585
		s-1.609-3.584-3.586-3.584c-0.393,0-0.768,0.08-1.123,0.197l-41.693-48.746l59.779,46.547c-0.119,0.358-0.199,0.733-0.199,1.13
		c0,1.977,1.607,3.586,3.582,3.586c1.977,0,3.586-1.609,3.586-3.586s-1.609-3.585-3.586-3.585c-0.506,0-0.986,0.107-1.424,0.299
		l-61.117-47.589l59.777,30.462c-0.018,0.15-0.045,0.298-0.045,0.453c0,1.977,1.609,3.586,3.586,3.586s3.584-1.609,3.584-3.586
		c0-1.976-1.607-3.583-3.584-3.583c-0.754,0-1.455,0.237-2.031,0.637l-55.1-28.078c0.105-0.143,0.191-0.3,0.242-0.48
		c0.213-0.773-0.24-1.573-1.016-1.787l-0.111-0.031c-0.754-0.212-1.473,0.238-1.707,0.979l-4.139-2.109
		c-0.059-0.104-0.143-0.188-0.225-0.276l46.266,3.428l13.178-62.372l14.787-5.421l4.268,126.068l-40.867,35.83l-38.838-70.021
		l-5.064-21.109C318.846,436.468,319.256,436.669,319.688,436.669z M406.23,491.059l-4.227-124.829l99.754,72.821l-20.777,70.914
		c-2.316,3.945-12.639,20.226-25.912,21.936c-5.723,0.735-11.354-1.375-16.777-6.269L406.23,491.059z M449.404,316.009
		l-13.494-11.591l-0.307-58.975l-32.734,30.594l-15.141-13.005l28.871-22.948l10.549-0.101c0.52,1.343,1.814,2.302,3.336,2.302
		c1.977,0,3.586-1.609,3.586-3.586s-1.609-3.585-3.586-3.585c-1.389,0-2.582,0.803-3.178,1.962l-9.629,0.091l-0.16-11.328
		l23.775-5.842c0.648,0.936,1.727,1.554,2.949,1.554c1.977,0,3.584-1.609,3.584-3.586c0-1.976-1.607-3.583-3.584-3.583
		c-1.689,0-3.1,1.177-3.477,2.751l-23.291,5.724l-0.201-14.189l10.66-5.656c0.633,0.558,1.451,0.907,2.357,0.907
		c1.977,0,3.586-1.609,3.586-3.586s-1.609-3.585-3.586-3.585s-3.582,1.608-3.582,3.585c0,0.013,0.002,0.024,0.002,0.037
		l-9.484,5.031l-0.641-45.4c3.584,2.6,6.865,3.922,9.809,3.922c1.309,0,2.553-0.259,3.725-0.776c5.934-2.617,8.35-11.322,9.32-17.25
		c9.625,27.996,13.893,77.385,14.102,79.854L449.404,316.009z M437.193,140.01l-0.023-0.001c-0.195,4.772-2.053,17.756-8.225,20.478
		c-3.18,1.403-7.355-0.011-12.412-4.195l-0.131-9.297c2.617,0.992,4.945,1.496,6.965,1.496c2.33,0,4.254-0.659,5.76-1.979
		c3.895-3.415,3.779-10.467,3.072-15.543c0.467,0.69,0.941,1.398,1.426,2.146C434.879,135.046,436.066,137.376,437.193,140.01z
		 M413.803,113.59c1.316,0.095,6.281,1.248,14.721,12.257l-0.309,0.089c1.117,3.891,3.115,14.779-1.006,18.39
		c-2.094,1.835-5.752,1.661-10.852-0.484l-0.236-16.836l-1.762,0.415c-6.943,1.635-24.826,28.201-26.842,31.226l-0.162,0.243
		l-8.045,41.384l-23.07,36.638c-28.203-5.113-34.867-20.174-36.029-23.59L413.803,113.59z M352.471,174.697l-24.494,26.099
		l-20.797-3.766L352.471,174.697z M325.605,203.323l-8.607,9.173l0.162,0.744c0.182,0.843,4.842,20.629,39.137,26.629l0.197,0.167
		c0.035,0.049,0.053,0.106,0.096,0.151c0.393,0.413,39.225,41.477,28.111,66.322c-5.59,12.488-25.885,18.414-63.629,18.486
		c-2.805-0.168-5.525-0.202-8.119-0.067c-10.51-0.309-24.1,9.396-28.713,27.843c-4.262,17.045-2.008,32.213-1.781,33.639
		c0.176,3.727,1.895,32.737,12.639,36.113c7.641,2.403,13.225-2.028,15.994-5.079l2.701,11.25l0.049,0.209l0,0l7.008,29.197
		l0.047,0.191l39.334,70.918l-11.281,9.891l-11.082,4.435l-26.303,53.943h-6.934l-36.918-8.832v-4.364l23.984-6.891l0.201-0.141
		c11.242-7.899,11.371-28.788,11.371-29.657c0.072-6.827-2.068-12.492-6.367-16.837c-0.1-0.1-0.209-0.184-0.309-0.281l7.908-5.908
		l-37.369-111.134v-59.301c1.904-0.619,3.295-2.389,3.295-4.498c0-1.971-1.209-3.663-2.922-4.38l18.873-34.512l18.891,5.534
		l-5.533-18.89l35.205-19.255h18.152c0.674,1.804,2.4,3.1,4.438,3.1c2.617,0,4.744-2.131,4.744-4.748s-2.127-4.746-4.744-4.746
		c-2.182,0-4.002,1.484-4.559,3.488h-17.781l-35.457-19.395l5.535-18.891l-18.891,5.535l-18.898-34.56
		c1.727-0.711,2.947-2.407,2.947-4.389c0-2.107-1.391-3.878-3.295-4.495v-10.968l7.818,6.081L325.605,203.323z M355.689,276.484
		c0-1.015,0.826-1.84,1.842-1.84c1.014,0,1.838,0.825,1.838,1.84s-0.824,1.841-1.838,1.841
		C356.516,278.325,355.689,277.499,355.689,276.484z M255.67,194.21l0.352-0.064l8.205-6.381v11.268
		c-1.904,0.619-3.293,2.388-3.293,4.495c0,1.931,1.162,3.589,2.818,4.33l-18.93,34.615l-18.891-5.533l5.533,18.892l-35.461,19.395
		h-18.488c-0.557-2.004-2.377-3.488-4.557-3.488c-2.617,0-4.746,2.129-4.746,4.746s2.129,4.748,4.746,4.748
		c2.035,0,3.762-1.296,4.436-3.1h18.859l35.211,19.254l-5.531,18.893l18.889-5.534l18.906,34.574
		c-1.645,0.746-2.795,2.395-2.795,4.315c0,2.109,1.389,3.879,3.293,4.497v58.53l-37.752,111.893l8.955,6.848
		c-3.898,4.257-5.861,9.688-5.793,16.176c0,0.101,0.004,0.472,0.023,1.043l-0.113-0.011c-0.006,0.09-0.1,1.283,0.275,2.728
		c0.545,6.568,2.693,19.944,11.188,25.913l0.199,0.141l23.598,6.783v4.188l-34.223,9.116H219.41l-26.303-53.943l-10.645-4.26
		l-11.66-10.176l39.273-70.808l7.053-29.389h0.014l0.291-1.22c0.217-0.308,0.303-0.674,0.248-1.038l2.203-9.209
		c2.766,3.053,8.352,7.493,16.002,5.087c10.744-3.376,12.461-32.387,12.637-36.113c0.23-1.426,2.48-16.594-1.781-33.639
		c-4.609-18.447-18.191-28.122-28.711-27.843c-2.602-0.136-5.336-0.102-8.152,0.067c-37.727-0.074-58.008-6.002-63.594-18.486
		c-11.111-24.835,27.719-65.909,28.113-66.322c0.049-0.052,0.07-0.118,0.109-0.175l0.17-0.144c34.295-6,38.955-25.786,39.137-26.629
		l0.16-0.744l-8.609-9.173L255.67,194.21z M174.801,276.484c0,1.015-0.828,1.841-1.842,1.841s-1.84-0.826-1.84-1.841
		s0.826-1.84,1.84-1.84S174.801,275.469,174.801,276.484z M223.795,197.03l-20.799,3.768l-24.494-26.101L223.795,197.03z
		 M117.158,113.58l93.609,99.744c-1.141,3.423-7.701,18.454-36.031,23.587l-23.074-36.638l-8.045-41.384l-0.162-0.243
		c-2.016-3.024-19.895-29.591-26.842-31.226l-1.76-0.415l-0.238,16.758c-5.199,2.229-8.922,2.425-11.045,0.564
		c-4.115-3.603-2.123-14.498-1.01-18.392l-0.146-0.043C110.947,114.749,115.928,113.665,117.158,113.58z M97.348,133.115
		c0.4-0.617,0.793-1.21,1.182-1.788c-0.662,5.046-0.684,11.851,3.123,15.185c1.504,1.32,3.43,1.979,5.758,1.979
		c2.072,0,4.465-0.526,7.16-1.569l-0.129,9.209c-5.145,4.313-9.385,5.776-12.607,4.358c-6.021-2.654-7.936-15.098-8.207-20.121
		C94.797,137.585,96.039,135.132,97.348,133.115z M91.402,146.278c1.012,5.914,3.449,14.305,9.256,16.868
		c1.172,0.518,2.416,0.776,3.725,0.776c2.996,0,6.346-1.367,10.006-4.062l-0.637,45.081l-8.619-4.572
		c0-0.013,0.004-0.024,0.004-0.037c0-1.977-1.607-3.585-3.584-3.585s-3.584,1.608-3.584,3.585s1.607,3.586,3.584,3.586
		c0.906,0,1.727-0.35,2.357-0.907l9.795,5.198l-0.203,14.434l-22.422-5.51c-0.377-1.574-1.789-2.751-3.479-2.751
		c-1.977,0-3.584,1.607-3.584,3.583c0,1.977,1.607,3.586,3.584,3.586c1.223,0,2.303-0.618,2.949-1.554l22.908,5.628l-0.162,11.534
		l-8.76-0.083c-0.596-1.159-1.787-1.962-3.178-1.962c-1.977,0-3.584,1.608-3.584,3.585s1.607,3.586,3.584,3.586
		c1.523,0,2.818-0.959,3.338-2.302l9.666,0.092l28.883,22.957l-15.141,13.006l-32.736-30.595l-0.307,58.977L81.57,316.009
		l-4.137-90.26C77.639,223.292,81.869,174.34,91.402,146.278z M58.502,539.006c2.072,2.396,4.672,4.435,7.879,5.374
		c1.25,0.366,2.533,0.549,3.844,0.549c1.967,0,4.004-0.423,6.102-1.242l-12.502,13.484L58.502,539.006z M467.244,556.855
		l-12.115-13.064c2.014,0.759,3.971,1.139,5.863,1.139c1.311,0,2.594-0.183,3.844-0.549c3.023-0.885,5.506-2.747,7.516-4.963
		L467.244,556.855z M475.625,528.247c-1.672,4.251-5.371,11.523-11.613,13.347c-4.797,1.397-10.373-0.667-16.592-6.117l-1.664-1.794
		c2.318,0.842,4.672,1.271,7.055,1.271c0.871,0,1.75-0.056,2.629-0.169c9.775-1.259,17.828-9.231,22.875-15.714L475.625,528.247z"/>
	<path fill="#B7E4DC" d="M265.598,269.632c-3.846,0-6.977,3.129-6.977,6.977c0,3.846,3.131,6.976,6.977,6.976
		c3.848,0,6.977-3.13,6.977-6.976C272.574,272.761,269.445,269.632,265.598,269.632z"/>
	<path fill="#B7E4DC" d="M198.148,249.744c0,5.182,4.215,9.398,9.398,9.398s9.398-4.217,9.398-9.398s-4.215-9.397-9.398-9.397
		S198.148,244.562,198.148,249.744z M214.039,249.744c0,3.579-2.912,6.491-6.492,6.491s-6.492-2.912-6.492-6.491
		c0-3.58,2.912-6.49,6.492-6.49S214.039,246.164,214.039,249.744z"/>
	<path fill="#B7E4DC" d="M323.813,259.142c5.184,0,9.4-4.217,9.4-9.398s-4.217-9.397-9.4-9.397c-5.182,0-9.396,4.216-9.396,9.397
		S318.631,259.142,323.813,259.142z M323.813,243.253c3.58,0,6.494,2.91,6.494,6.49c0,3.579-2.914,6.491-6.494,6.491
		s-6.49-2.912-6.49-6.491C317.322,246.164,320.232,243.253,323.813,243.253z"/>
	<path fill="#B7E4DC" d="M269.168,304.194c0-1.977-1.607-3.585-3.584-3.585s-3.586,1.608-3.586,3.585s1.609,3.585,3.586,3.585
		S269.168,306.17,269.168,304.194z"/>
	<path fill="#B7E4DC" d="M276.047,304.324c1.674,0,3.037-1.362,3.037-3.036c0-1.677-1.363-3.038-3.037-3.038
		c-1.676,0-3.037,1.361-3.037,3.038C273.01,302.961,274.371,304.324,276.047,304.324z"/>
	<path fill="#B7E4DC" d="M284.105,299.914c1.676,0,3.037-1.362,3.037-3.038c0-1.674-1.361-3.036-3.037-3.036
		s-3.037,1.362-3.037,3.036C281.068,298.551,282.43,299.914,284.105,299.914z"/>
	<path fill="#B7E4DC" d="M291.705,293.608c1.676,0,3.037-1.362,3.037-3.036c0-1.676-1.361-3.038-3.037-3.038
		c-1.674,0-3.037,1.362-3.037,3.038C288.668,292.246,290.031,293.608,291.705,293.608z"/>
	<path fill="#B7E4DC" d="M297.652,286.886c1.676,0,3.039-1.362,3.039-3.038c0-1.674-1.363-3.036-3.039-3.036
		c-1.674,0-3.035,1.362-3.035,3.036C294.617,285.524,295.979,286.886,297.652,286.886z"/>
	<path fill="#B7E4DC" d="M255.363,298.25c-1.676,0-3.039,1.361-3.039,3.038c0,1.674,1.363,3.036,3.039,3.036
		c1.674,0,3.035-1.362,3.035-3.036C258.398,299.611,257.037,298.25,255.363,298.25z"/>
	<path fill="#B7E4DC" d="M247.305,293.839c-1.676,0-3.039,1.362-3.039,3.036c0,1.676,1.363,3.038,3.039,3.038
		c1.674,0,3.035-1.362,3.035-3.038C250.34,295.202,248.979,293.839,247.305,293.839z"/>
	<path fill="#B7E4DC" d="M239.703,287.534c-1.672,0-3.035,1.362-3.035,3.038c0,1.674,1.363,3.036,3.035,3.036
		c1.676,0,3.039-1.362,3.039-3.036C242.742,288.896,241.379,287.534,239.703,287.534z"/>
	<path fill="#B7E4DC" d="M233.758,280.812c-1.678,0-3.039,1.362-3.039,3.036c0,1.676,1.361,3.038,3.039,3.038
		c1.672,0,3.035-1.362,3.035-3.038C236.793,282.174,235.43,280.812,233.758,280.812z"/>
	<path fill="#B7E4DC" d="M205.305,445.329c-0.691-0.404-1.584-0.172-1.988,0.521l-0.059,0.102c-0.404,0.694-0.172,1.583,0.521,1.988
		c0.23,0.135,0.482,0.198,0.732,0.198c0.498,0,0.984-0.258,1.254-0.72l0.061-0.102C206.23,446.624,205.998,445.733,205.305,445.329z
		"/>
	<path fill="#B7E4DC" d="M183.824,482.129c-0.689-0.406-1.613-0.129-2.021,0.563c-0.408,0.69-0.18,1.581,0.512,1.99
		c0.232,0.137,0.486,0.202,0.738,0.202c0.498,0,0.982-0.255,1.252-0.714l0.061-0.101
		C184.773,483.379,184.514,482.539,183.824,482.129z"/>
	<path fill="#B7E4DC" d="M187.4,476.005c-0.691-0.406-1.611-0.13-2.021,0.563c-0.408,0.69-0.18,1.581,0.514,1.99
		c0.23,0.137,0.486,0.202,0.738,0.202c0.496,0,0.98-0.256,1.252-0.715l0.059-0.1C188.35,477.255,188.092,476.415,187.4,476.005z"/>
	<path fill="#B7E4DC" d="M190.965,469.875c-0.691-0.403-1.613-0.117-2.014,0.578c-0.404,0.694-0.166,1.583,0.527,1.985
		c0.23,0.134,0.48,0.197,0.729,0.197c0.5,0,0.988-0.261,1.258-0.725l0.057-0.101C191.926,471.117,191.66,470.278,190.965,469.875z"
		/>
	<path fill="#B7E4DC" d="M194.551,463.757c-0.689-0.407-1.609-0.128-2.02,0.562c-0.408,0.689-0.18,1.582,0.512,1.99
		c0.232,0.137,0.486,0.202,0.738,0.202c0.498,0,0.98-0.255,1.252-0.714l0.061-0.101
		C195.502,465.006,195.242,464.166,194.551,463.757z"/>
	<path fill="#B7E4DC" d="M201.729,451.454c-0.691-0.405-1.584-0.173-1.988,0.521l-0.059,0.101c-0.406,0.694-0.172,1.583,0.521,1.988
		c0.23,0.136,0.482,0.199,0.732,0.199c0.498,0,0.984-0.259,1.254-0.72l0.061-0.102C202.654,452.748,202.422,451.858,201.729,451.454
		z"/>
	<path fill="#B7E4DC" d="M198.152,457.578c-0.691-0.405-1.584-0.173-1.988,0.521l-0.059,0.101c-0.406,0.694-0.172,1.584,0.521,1.988
		c0.229,0.136,0.48,0.199,0.73,0.199c0.5,0,0.986-0.258,1.256-0.72l0.061-0.102C199.078,458.873,198.844,457.982,198.152,457.578z"
		/>
	<path fill="#B7E4DC" d="M179.617,439.607c0.129,0,0.258-0.018,0.387-0.052l0.111-0.031c0.775-0.213,1.174-0.998,0.961-1.771
		c-0.215-0.774-1.07-1.215-1.844-1c-0.773,0.213-1.229,1.013-1.016,1.787C178.395,439.184,178.98,439.607,179.617,439.607z"/>
	<path fill="#B7E4DC" d="M186.459,437.741c0.129,0,0.256-0.016,0.385-0.052l0.111-0.03c0.775-0.212,1.23-1.011,1.02-1.785
		s-1.01-1.231-1.783-1.019l-0.113,0.03c-0.775,0.211-1.23,1.011-1.02,1.784C185.234,437.316,185.82,437.741,186.459,437.741z"/>
	<path fill="#B7E4DC" d="M193.301,435.875c0.127,0,0.256-0.016,0.385-0.051l0.111-0.03c0.775-0.212,1.23-1.012,1.021-1.785
		c-0.213-0.774-1.014-1.23-1.785-1.02l-0.113,0.031c-0.773,0.211-1.23,1.01-1.02,1.784
		C192.076,435.451,192.662,435.875,193.301,435.875z"/>
	<path fill="#B7E4DC" d="M172.775,441.472c0.127,0,0.254-0.016,0.383-0.051l0.113-0.03c0.773-0.212,1.23-1.011,1.02-1.785
		s-1.012-1.23-1.785-1.02l-0.113,0.03c-0.773,0.211-1.23,1.011-1.02,1.785C171.549,441.047,172.135,441.472,172.775,441.472z"/>
	<path fill="#B7E4DC" d="M165.934,443.338c0.127,0,0.254-0.016,0.383-0.05l0.113-0.031c0.773-0.211,1.23-1.011,1.02-1.785
		s-1.012-1.233-1.785-1.02l-0.113,0.03c-0.773,0.211-1.23,1.011-1.02,1.785C164.707,442.914,165.293,443.338,165.934,443.338z"/>
	<path fill="#B7E4DC" d="M159.09,445.205c0.129,0,0.256-0.016,0.385-0.052l0.113-0.029c0.773-0.212,1.23-1.012,1.02-1.785
		c-0.213-0.774-1.014-1.231-1.785-1.021l-0.113,0.031c-0.773,0.211-1.23,1.01-1.02,1.785
		C157.865,444.78,158.451,445.205,159.09,445.205z"/>
	<path fill="#B7E4DC" d="M152.25,447.071c0.127,0,0.256-0.018,0.387-0.053l0.109-0.03c0.775-0.213,1.174-0.998,0.961-1.771
		s-1.072-1.215-1.842-1c-0.775,0.214-1.23,1.013-1.016,1.787C151.025,446.649,151.613,447.071,152.25,447.071z"/>
	<path fill="#B7E4DC" d="M339.824,472.734c0.27,0.463,0.756,0.72,1.256,0.72c0.248,0,0.502-0.063,0.732-0.198
		c0.691-0.403,0.926-1.294,0.521-1.988l-0.061-0.101c-0.404-0.693-1.293-0.928-1.986-0.521c-0.693,0.404-0.928,1.295-0.521,1.988
		L339.824,472.734z"/>
	<path fill="#B7E4DC" d="M337.514,467.323c0.248,0,0.498-0.062,0.727-0.196c0.695-0.402,0.932-1.291,0.529-1.985l-0.059-0.1
		c-0.4-0.696-1.262-0.885-1.955-0.479c-0.695,0.402-0.904,1.341-0.5,2.035C336.525,467.063,337.012,467.323,337.514,467.323z"/>
	<path fill="#B7E4DC" d="M343.389,478.866c0.271,0.462,0.756,0.72,1.256,0.72c0.25,0,0.502-0.064,0.732-0.198
		c0.693-0.404,0.928-1.295,0.521-1.989l-0.059-0.101c-0.406-0.693-1.295-0.928-1.988-0.521c-0.693,0.404-0.928,1.294-0.521,1.987
		L343.389,478.866z"/>
	<path fill="#B7E4DC" d="M326.816,448.931c0.248,0,0.498-0.063,0.729-0.197c0.693-0.401,0.932-1.29,0.527-1.985l-0.057-0.1
		c-0.404-0.694-1.264-0.885-1.957-0.479c-0.695,0.402-0.902,1.342-0.5,2.036C325.828,448.67,326.316,448.931,326.816,448.931z"/>
	<path fill="#B7E4DC" d="M330.383,455.062c0.252,0,0.506-0.065,0.738-0.202c0.691-0.408,0.922-1.301,0.512-1.99l-0.059-0.1
		c-0.408-0.689-1.27-0.873-1.961-0.463c-0.691,0.409-0.891,1.351-0.482,2.04C329.402,454.806,329.887,455.062,330.383,455.062z"/>
	<path fill="#B7E4DC" d="M332.693,460.473c0.27,0.462,0.756,0.721,1.256,0.721c0.248,0,0.502-0.064,0.73-0.199
		c0.693-0.404,0.928-1.295,0.521-1.988l-0.059-0.102c-0.406-0.692-1.295-0.929-1.988-0.521c-0.691,0.405-0.926,1.295-0.521,1.989
		L332.693,460.473z"/>
	<path fill="#B7E4DC" d="M365.227,440.482l-0.113-0.03c-0.773-0.213-1.574,0.246-1.785,1.02c-0.211,0.774,0.246,1.574,1.021,1.785
		l0.111,0.03c0.129,0.035,0.258,0.052,0.383,0.052c0.641,0,1.227-0.425,1.402-1.071C366.457,441.493,366,440.694,365.227,440.482z"
		/>
	<path fill="#B7E4DC" d="M344.699,434.885l-0.113-0.03c-0.771-0.215-1.572,0.244-1.783,1.019s0.244,1.573,1.02,1.785l0.111,0.03
		c0.129,0.036,0.258,0.052,0.385,0.052c0.639,0,1.225-0.425,1.4-1.071C345.93,435.896,345.473,435.096,344.699,434.885z"/>
	<path fill="#B7E4DC" d="M351.545,436.751l-0.111-0.03c-0.771-0.216-1.52,0.255-1.73,1.03c-0.215,0.773,0.295,1.589,1.07,1.802
		c0.129,0.036,0.258,0.053,0.387,0.053c0.637,0,1.223-0.422,1.398-1.067C352.773,437.764,352.318,436.965,351.545,436.751z"/>
	<path fill="#B7E4DC" d="M358.385,438.617l-0.113-0.03c-0.775-0.213-1.572,0.245-1.785,1.02c-0.211,0.774,0.246,1.573,1.02,1.785
		l0.113,0.03c0.129,0.035,0.256,0.051,0.385,0.051c0.639,0,1.225-0.425,1.4-1.07C359.615,439.627,359.158,438.828,358.385,438.617z"
		/>
	<path fill="#B7E4DC" d="M372.072,442.35l-0.111-0.03c-0.775-0.218-1.52,0.255-1.732,1.03c-0.213,0.773,0.297,1.589,1.07,1.802
		c0.131,0.035,0.26,0.053,0.389,0.053c0.637,0,1.223-0.423,1.398-1.067C373.301,443.363,372.846,442.564,372.072,442.35z"/>
	<path fill="#B7E4DC" d="M337.857,433.018l-0.111-0.03c-0.773-0.215-1.576,0.244-1.785,1.02c-0.213,0.774,0.244,1.573,1.02,1.784
		l0.111,0.031c0.129,0.035,0.258,0.051,0.385,0.051c0.639,0,1.225-0.425,1.4-1.07C339.088,434.029,338.631,433.229,337.857,433.018z
		"/>
	<path fill="#B7E4DC" d="M378.91,444.214l-0.111-0.03c-0.773-0.213-1.574,0.245-1.785,1.019c-0.211,0.775,0.246,1.574,1.02,1.785
		l0.113,0.03c0.127,0.035,0.256,0.052,0.383,0.052c0.641,0,1.225-0.424,1.4-1.071C380.143,445.225,379.686,444.426,378.91,444.214z"
		/>
	<path fill="#B7E4DC" d="M203.479,312.671c5.182,0,9.398-4.216,9.398-9.399c0-5.181-4.217-9.396-9.398-9.396
		s-9.396,4.216-9.396,9.396C194.082,308.456,198.297,312.671,203.479,312.671z M203.479,309.764c-1.264,0-2.439-0.369-3.439-0.996
		l8.936-8.936c0.627,0.999,0.996,2.176,0.996,3.439C209.971,306.852,207.059,309.764,203.479,309.764z M203.479,296.782
		c1.264,0,2.441,0.37,3.439,0.996l-8.934,8.936c-0.627-0.999-0.996-2.176-0.996-3.441
		C196.988,299.694,199.898,296.782,203.479,296.782z"/>
	<path fill="#B7E4DC" d="M327.883,293.875c-5.184,0-9.398,4.216-9.398,9.396c0,5.184,4.215,9.399,9.398,9.399
		c5.182,0,9.396-4.216,9.396-9.399C337.279,298.091,333.064,293.875,327.883,293.875z M321.391,303.272
		c0-1.264,0.369-2.44,0.996-3.439l8.936,8.936c-0.998,0.627-2.176,0.996-3.439,0.996
		C324.303,309.764,321.391,306.852,321.391,303.272z M333.377,306.713l-8.934-8.936c0.998-0.626,2.176-0.996,3.439-0.996
		c3.58,0,6.49,2.912,6.49,6.49C334.373,304.538,334.004,305.714,333.377,306.713z"/>
	<path fill="#B7E4DC" d="M255.289,673.803c-0.813-0.081-1.51,0.506-1.59,1.305l-0.01,0.116c-0.08,0.799,0.506,1.511,1.305,1.588
		c0.047,0.005,0.096,0.007,0.143,0.007c0.738,0,1.371-0.561,1.445-1.312l0.01-0.115
		C256.672,674.592,256.086,673.881,255.289,673.803z"/>
	<path fill="#B7E4DC" d="M253.904,687.92c-0.787-0.082-1.516,0.491-1.602,1.289l-0.012,0.115c-0.086,0.799,0.492,1.516,1.289,1.602
		c0.053,0.006,0.105,0.008,0.158,0.008c0.732,0,1.363-0.553,1.443-1.297l0.012-0.116
		C255.279,688.722,254.701,688.006,253.904,687.92z"/>
	<path fill="#B7E4DC" d="M256.002,666.747c-0.785-0.091-1.516,0.492-1.602,1.29l-0.012,0.116c-0.086,0.799,0.49,1.515,1.289,1.602
		c0.053,0.005,0.105,0.007,0.158,0.007c0.732,0,1.361-0.553,1.443-1.298l0.012-0.115
		C257.375,667.549,256.799,666.833,256.002,666.747z"/>
	<path fill="#B7E4DC" d="M254.588,680.862c-0.803-0.086-1.51,0.504-1.588,1.304l-0.01,0.116c-0.08,0.8,0.506,1.51,1.303,1.589
		c0.049,0.004,0.098,0.006,0.145,0.006c0.738,0,1.371-0.561,1.445-1.312l0.01-0.115C255.973,681.651,255.387,680.94,254.588,680.862
		z"/>
	<path fill="#B7E4DC" d="M258.084,645.573c-0.811-0.078-1.512,0.506-1.588,1.305l-0.012,0.116c-0.078,0.799,0.506,1.51,1.305,1.588
		c0.047,0.005,0.096,0.007,0.145,0.007c0.736,0,1.369-0.561,1.443-1.311l0.012-0.116
		C259.467,646.362,258.883,645.652,258.084,645.573z"/>
	<path fill="#B7E4DC" d="M259.482,631.458c-0.805-0.069-1.51,0.506-1.588,1.304l-0.012,0.116c-0.078,0.8,0.506,1.51,1.305,1.589
		c0.049,0.004,0.096,0.006,0.145,0.006c0.738,0,1.369-0.561,1.443-1.312l0.012-0.115
		C260.865,632.248,260.281,631.537,259.482,631.458z"/>
	<path fill="#B7E4DC" d="M260.182,624.4c-0.813-0.081-1.512,0.506-1.59,1.305l-0.012,0.116c-0.078,0.799,0.508,1.511,1.305,1.588
		c0.049,0.005,0.098,0.007,0.145,0.007c0.738,0,1.371-0.561,1.445-1.312l0.012-0.115C261.563,625.189,260.979,624.479,260.182,624.4
		z"/>
	<path fill="#B7E4DC" d="M257.385,652.63c-0.803-0.084-1.51,0.506-1.588,1.306l-0.012,0.115c-0.078,0.799,0.506,1.51,1.305,1.588
		c0.049,0.005,0.098,0.008,0.145,0.008c0.738,0,1.371-0.562,1.445-1.313l0.01-0.115C258.768,653.419,258.184,652.708,257.385,652.63
		z"/>
	<path fill="#B7E4DC" d="M258.783,638.515c-0.807-0.073-1.51,0.506-1.588,1.305l-0.012,0.115c-0.078,0.8,0.506,1.511,1.305,1.589
		c0.049,0.005,0.096,0.007,0.145,0.007c0.736,0,1.369-0.561,1.443-1.311l0.012-0.116
		C260.166,639.305,259.582,638.594,258.783,638.515z"/>
	<path fill="#B7E4DC" d="M253.191,694.976c-0.809-0.077-1.51,0.506-1.588,1.305l-0.012,0.116c-0.078,0.799,0.506,1.51,1.305,1.588
		c0.049,0.005,0.096,0.007,0.143,0.007c0.74,0,1.371-0.561,1.445-1.312l0.012-0.115
		C254.574,695.765,253.988,695.055,253.191,694.976z"/>
	<path fill="#B7E4DC" d="M256.686,659.688c-0.805-0.069-1.51,0.507-1.588,1.305l-0.012,0.116c-0.078,0.8,0.506,1.51,1.305,1.589
		c0.049,0.004,0.096,0.007,0.145,0.007c0.738,0,1.371-0.562,1.443-1.312l0.012-0.116
		C258.068,660.478,257.484,659.766,256.686,659.688z"/>
	<path fill="#B7E4DC" d="M252.492,702.034c-0.811-0.082-1.51,0.506-1.59,1.305l-0.01,0.116c-0.08,0.799,0.506,1.51,1.305,1.588
		c0.049,0.005,0.096,0.008,0.143,0.008c0.738,0,1.371-0.562,1.445-1.313l0.012-0.115
		C253.875,702.823,253.289,702.112,252.492,702.034z"/>
	<path fill="#B7E4DC" d="M119.738,503.844c-0.695-0.4-1.584-0.158-1.982,0.539l-0.061,0.102c-0.396,0.695-0.156,1.583,0.541,1.983
		c0.227,0.131,0.475,0.191,0.721,0.191c0.504,0,0.994-0.263,1.262-0.73l0.059-0.102
		C120.676,505.131,120.436,504.244,119.738,503.844z"/>
	<path fill="#B7E4DC" d="M102.354,534.75c-0.695-0.4-1.584-0.158-1.982,0.539l-0.059,0.102c-0.398,0.695-0.158,1.584,0.539,1.983
		c0.227,0.131,0.477,0.191,0.721,0.191c0.504,0,0.994-0.262,1.264-0.73l0.057-0.102C103.291,536.039,103.051,535.151,102.354,534.75
		z"/>
	<path fill="#B7E4DC" d="M116.223,510.071c-0.701-0.395-1.615-0.095-2.008,0.605c-0.395,0.699-0.145,1.586,0.555,1.979
		c0.225,0.126,0.471,0.186,0.711,0.186c0.508,0,1.002-0.266,1.268-0.74l0.057-0.102C117.199,511.299,116.92,510.464,116.223,510.071
		z"/>
	<path fill="#B7E4DC" d="M112.746,516.251c-0.703-0.393-1.617-0.095-2.008,0.605c-0.395,0.699-0.145,1.586,0.555,1.979
		c0.225,0.126,0.471,0.187,0.711,0.187c0.508,0,1-0.267,1.268-0.741l0.059-0.102C113.721,517.481,113.445,516.645,112.746,516.251z"
		/>
	<path fill="#B7E4DC" d="M109.27,522.434c-0.701-0.395-1.615-0.096-2.008,0.604c-0.395,0.699-0.145,1.587,0.555,1.979
		c0.225,0.127,0.471,0.187,0.711,0.187c0.508,0,1-0.267,1.268-0.742l0.059-0.101C110.244,523.663,109.969,522.827,109.27,522.434z"
		/>
	<path fill="#B7E4DC" d="M84.932,565.704c-0.701-0.392-1.615-0.094-2.008,0.605s-0.145,1.586,0.555,1.979
		c0.225,0.126,0.471,0.187,0.711,0.187c0.508,0,1.002-0.267,1.268-0.741l0.059-0.102C85.906,566.932,85.631,566.096,84.932,565.704z
		"/>
	<path fill="#B7E4DC" d="M88.436,559.47c-0.699-0.393-1.586-0.145-1.979,0.557l-0.057,0.103c-0.393,0.699-0.145,1.585,0.555,1.978
		c0.227,0.126,0.471,0.186,0.711,0.186c0.508,0,1.002-0.266,1.27-0.742l0.057-0.102C89.385,560.75,89.137,559.864,88.436,559.47z"/>
	<path fill="#B7E4DC" d="M98.859,540.922c-0.701-0.39-1.586-0.136-1.975,0.564l-0.057,0.103c-0.391,0.701-0.139,1.587,0.564,1.977
		c0.223,0.124,0.465,0.183,0.703,0.183c0.512,0,1.006-0.269,1.273-0.747l0.055-0.103C99.814,542.198,99.563,541.312,98.859,540.922z
		"/>
	<path fill="#B7E4DC" d="M91.885,553.341c-0.701-0.396-1.615-0.096-2.008,0.604c-0.393,0.699-0.145,1.586,0.555,1.979
		c0.225,0.127,0.471,0.187,0.711,0.187c0.508,0,1.002-0.267,1.27-0.742l0.057-0.1C92.861,554.569,92.584,553.733,91.885,553.341z"/>
	<path fill="#B7E4DC" d="M95.361,547.16c-0.703-0.394-1.615-0.096-2.008,0.604s-0.145,1.586,0.555,1.979
		c0.227,0.126,0.471,0.187,0.711,0.187c0.508,0,1.002-0.268,1.27-0.742l0.057-0.101C96.338,548.388,96.061,547.552,95.361,547.16z"
		/>
	<path fill="#B7E4DC" d="M105.793,528.615c-0.701-0.393-1.617-0.094-2.008,0.605c-0.395,0.699-0.145,1.586,0.555,1.979
		c0.225,0.126,0.471,0.186,0.711,0.186c0.508,0,1-0.267,1.268-0.741l0.059-0.102C106.768,529.843,106.492,529.007,105.793,528.615z"
		/>
	<path fill="#B7E4DC" d="M276.582,683.871c0.797-0.079,1.383-0.789,1.303-1.589l-0.01-0.116c-0.078-0.8-0.791-1.391-1.588-1.304
		c-0.799,0.078-1.385,0.789-1.305,1.588l0.01,0.115c0.074,0.751,0.707,1.312,1.445,1.312
		C276.484,683.876,276.533,683.875,276.582,683.871z"/>
	<path fill="#B7E4DC" d="M275.881,676.812c0.799-0.077,1.385-0.789,1.307-1.588l-0.012-0.116c-0.08-0.799-0.783-1.386-1.59-1.305
		c-0.797,0.078-1.383,0.789-1.303,1.589l0.01,0.115c0.074,0.751,0.707,1.312,1.445,1.312
		C275.785,676.819,275.834,676.817,275.881,676.812z"/>
	<path fill="#B7E4DC" d="M274.484,662.698c0.799-0.079,1.383-0.789,1.305-1.589l-0.012-0.116c-0.078-0.798-0.787-1.374-1.588-1.305
		c-0.799,0.078-1.383,0.79-1.305,1.589l0.012,0.116c0.072,0.75,0.705,1.312,1.443,1.312
		C274.389,662.705,274.436,662.702,274.484,662.698z"/>
	<path fill="#B7E4DC" d="M275.197,669.754c0.799-0.087,1.375-0.803,1.289-1.602l-0.012-0.116c-0.086-0.798-0.818-1.381-1.602-1.29
		c-0.797,0.087-1.373,0.803-1.289,1.602l0.012,0.115c0.082,0.745,0.711,1.298,1.443,1.298
		C275.092,669.761,275.145,669.759,275.197,669.754z"/>
	<path fill="#B7E4DC" d="M279.973,703.338c-0.08-0.799-0.783-1.388-1.59-1.305c-0.797,0.078-1.383,0.789-1.305,1.589l0.012,0.115
		c0.074,0.751,0.707,1.313,1.445,1.313c0.047,0,0.094-0.003,0.143-0.008c0.799-0.078,1.385-0.789,1.305-1.588L279.973,703.338z"/>
	<path fill="#B7E4DC" d="M277.979,697.985c0.799-0.078,1.383-0.789,1.305-1.588l-0.012-0.116c-0.078-0.799-0.783-1.382-1.588-1.305
		c-0.797,0.079-1.383,0.789-1.305,1.589l0.012,0.115c0.074,0.751,0.707,1.312,1.445,1.312
		C277.883,697.992,277.93,697.99,277.979,697.985z"/>
	<path fill="#B7E4DC" d="M277.295,690.926c0.797-0.086,1.375-0.803,1.289-1.602l-0.012-0.115c-0.086-0.798-0.818-1.371-1.602-1.289
		c-0.797,0.086-1.375,0.802-1.289,1.601l0.012,0.116c0.08,0.744,0.711,1.297,1.443,1.297
		C277.189,690.934,277.242,690.932,277.295,690.926z"/>
	<path fill="#B7E4DC" d="M271.688,634.467c0.799-0.079,1.383-0.789,1.305-1.589l-0.012-0.116c-0.078-0.798-0.787-1.373-1.588-1.304
		c-0.799,0.078-1.383,0.789-1.305,1.588l0.012,0.115c0.074,0.751,0.705,1.312,1.443,1.312
		C271.592,634.473,271.639,634.471,271.688,634.467z"/>
	<path fill="#B7E4DC" d="M273.785,655.639c0.799-0.078,1.383-0.789,1.305-1.588l-0.012-0.115c-0.08-0.8-0.789-1.39-1.588-1.306
		c-0.799,0.078-1.383,0.789-1.305,1.589l0.012,0.115c0.072,0.751,0.705,1.313,1.443,1.313
		C273.689,655.647,273.736,655.644,273.785,655.639z"/>
	<path fill="#B7E4DC" d="M273.086,648.582c0.799-0.078,1.383-0.789,1.305-1.588l-0.012-0.116c-0.076-0.799-0.783-1.384-1.588-1.305
		c-0.797,0.079-1.383,0.789-1.305,1.589l0.012,0.116c0.074,0.75,0.707,1.311,1.443,1.311
		C272.99,648.588,273.039,648.586,273.086,648.582z"/>
	<path fill="#B7E4DC" d="M270.99,627.409c0.797-0.077,1.383-0.789,1.305-1.588l-0.012-0.116c-0.08-0.799-0.791-1.387-1.588-1.305
		c-0.799,0.079-1.383,0.789-1.305,1.589l0.012,0.115c0.072,0.751,0.705,1.312,1.443,1.312
		C270.893,627.416,270.941,627.414,270.99,627.409z"/>
	<path fill="#B7E4DC" d="M272.387,641.524c0.799-0.078,1.383-0.789,1.305-1.589l-0.012-0.115c-0.078-0.799-0.785-1.38-1.588-1.305
		c-0.799,0.079-1.383,0.79-1.305,1.589l0.012,0.116c0.074,0.75,0.707,1.311,1.443,1.311
		C272.291,641.531,272.338,641.529,272.387,641.524z"/>
	<path fill="#B7E4DC" d="M420.084,516.756c-0.395-0.701-1.254-0.899-1.951-0.505c-0.701,0.394-0.92,1.33-0.527,2.029
		c0.268,0.475,0.76,0.741,1.268,0.741c0.242,0,0.486-0.061,0.711-0.187c0.699-0.393,0.949-1.279,0.555-1.979L420.084,516.756z"/>
	<path fill="#B7E4DC" d="M416.605,510.575c-0.393-0.701-1.252-0.899-1.949-0.504c-0.701,0.394-0.92,1.329-0.527,2.029
		c0.268,0.475,0.76,0.74,1.268,0.74c0.24,0,0.486-0.06,0.711-0.186c0.699-0.393,0.949-1.279,0.555-1.979L416.605,510.575z"/>
	<path fill="#B7E4DC" d="M413.129,504.393c-0.393-0.7-1.252-0.899-1.949-0.504c-0.701,0.394-0.92,1.33-0.527,2.029
		c0.268,0.475,0.762,0.741,1.268,0.741c0.24,0,0.486-0.061,0.711-0.187c0.699-0.393,0.949-1.279,0.555-1.979L413.129,504.393z"/>
	<path fill="#B7E4DC" d="M423.557,522.932c-0.396-0.699-1.285-0.944-1.98-0.548c-0.699,0.396-0.943,1.283-0.549,1.98l0.059,0.103
		c0.268,0.472,0.76,0.737,1.266,0.737c0.242,0,0.488-0.06,0.715-0.189c0.699-0.396,0.943-1.282,0.549-1.98L423.557,522.932z"/>
	<path fill="#B7E4DC" d="M445.426,567.742c0.27,0.47,0.76,0.731,1.264,0.731c0.246,0,0.494-0.062,0.721-0.192
		c0.697-0.399,0.938-1.287,0.539-1.983l-0.057-0.101c-0.4-0.697-1.289-0.938-1.984-0.54c-0.697,0.4-0.938,1.288-0.539,1.983
		L445.426,567.742z"/>
	<path fill="#B7E4DC" d="M444.422,560.026c-0.395-0.7-1.254-0.899-1.951-0.504c-0.699,0.392-0.92,1.329-0.527,2.028
		c0.268,0.475,0.76,0.742,1.268,0.742c0.242,0,0.486-0.061,0.711-0.187c0.701-0.394,0.949-1.28,0.557-1.979L444.422,560.026z"/>
	<path fill="#B7E4DC" d="M430.514,535.3c-0.395-0.7-1.252-0.899-1.951-0.505c-0.699,0.394-0.918,1.33-0.527,2.03
		c0.268,0.474,0.76,0.74,1.27,0.74c0.24,0,0.486-0.06,0.711-0.186c0.699-0.393,0.947-1.279,0.555-1.979L430.514,535.3z"/>
	<path fill="#B7E4DC" d="M433.99,541.481c-0.393-0.7-1.254-0.899-1.951-0.504c-0.699,0.394-0.918,1.33-0.527,2.029
		c0.268,0.475,0.76,0.741,1.27,0.741c0.24,0,0.486-0.061,0.711-0.187c0.699-0.393,0.947-1.279,0.555-1.979L433.99,541.481z"/>
	<path fill="#B7E4DC" d="M437.471,547.668c-0.391-0.702-1.271-0.953-1.977-0.564c-0.701,0.389-0.953,1.274-0.564,1.977l0.057,0.102
		c0.266,0.479,0.762,0.748,1.273,0.748c0.238,0,0.48-0.06,0.703-0.184c0.703-0.39,0.955-1.275,0.564-1.977L437.471,547.668z"/>
	<path fill="#B7E4DC" d="M440.945,553.845c-0.395-0.701-1.254-0.899-1.951-0.504c-0.699,0.392-0.92,1.329-0.527,2.027
		c0.268,0.476,0.762,0.742,1.268,0.742c0.242,0,0.486-0.06,0.713-0.187c0.699-0.393,0.947-1.279,0.553-1.979L440.945,553.845z"/>
	<path fill="#B7E4DC" d="M427.037,529.12c-0.395-0.7-1.252-0.899-1.951-0.505c-0.699,0.393-0.918,1.33-0.527,2.029
		c0.268,0.475,0.76,0.741,1.27,0.741c0.24,0,0.486-0.06,0.711-0.186c0.699-0.394,0.947-1.28,0.555-1.979L427.037,529.12z"/>
	<path fill="#B7E4DC" d="M86.293,478.448c14.691,0,26.645-11.953,26.645-26.646c0-14.691-11.953-26.644-26.645-26.644
		c-14.689,0-26.641,11.952-26.641,26.644C59.652,466.495,71.604,478.448,86.293,478.448z M63.041,456.569l18.488,18.49
		C72.258,473.164,64.938,465.842,63.041,456.569z M91.34,474.989c-1.627,0.354-3.314,0.552-5.047,0.552
		c-0.061,0-0.121-0.009-0.182-0.009l-23.543-23.546c0-0.062-0.01-0.121-0.01-0.184c0-1.732,0.199-3.418,0.553-5.046L91.34,474.989z
		 M64.055,443.59c0.506-1.366,1.129-2.671,1.867-3.904l32.49,32.491c-1.234,0.736-2.539,1.362-3.904,1.868L64.055,443.59z
		 M86.293,428.066c13.09,0,23.738,10.647,23.738,23.736c0,7.6-3.605,14.359-9.176,18.707L67.59,437.242
		C71.936,431.669,78.693,428.066,86.293,428.066z"/>
	<path fill="#B7E4DC" d="M49.172,409.209c0.234,0,0.473-0.057,0.693-0.178l0.102-0.056c0.705-0.384,0.965-1.267,0.582-1.971
		c-0.383-0.705-1.268-0.964-1.973-0.581l-0.102,0.055c-0.705,0.385-0.965,1.267-0.582,1.972
		C48.158,408.935,48.656,409.209,49.172,409.209z"/>
	<path fill="#B7E4DC" d="M41.666,411.844c0.264,0.484,0.762,0.759,1.277,0.759c0.234,0,0.473-0.057,0.693-0.178l0.102-0.056
		c0.705-0.383,0.967-1.266,0.582-1.971c-0.383-0.705-1.266-0.965-1.971-0.581l-0.102,0.056
		C41.543,410.257,41.283,411.139,41.666,411.844z"/>
	<path fill="#B7E4DC" d="M67.854,399.029c0.236,0,0.473-0.057,0.695-0.177l0.102-0.056c0.705-0.384,0.965-1.266,0.582-1.972
		c-0.385-0.704-1.268-0.963-1.973-0.58l-0.102,0.055c-0.705,0.384-0.965,1.266-0.582,1.972
		C66.84,398.755,67.34,399.029,67.854,399.029z"/>
	<path fill="#B7E4DC" d="M55.398,405.815c0.234,0,0.473-0.056,0.693-0.177l0.102-0.056c0.707-0.384,0.967-1.267,0.582-1.971
		c-0.383-0.706-1.266-0.965-1.971-0.582l-0.102,0.056c-0.707,0.384-0.965,1.267-0.582,1.972
		C54.385,405.542,54.883,405.815,55.398,405.815z"/>
	<path fill="#B7E4DC" d="M105.221,378.669c0.234,0,0.473-0.057,0.693-0.178l0.102-0.056c0.705-0.383,0.965-1.266,0.582-1.971
		c-0.385-0.706-1.27-0.967-1.973-0.582l-0.102,0.057c-0.705,0.384-0.965,1.266-0.582,1.971
		C104.207,378.395,104.703,378.669,105.221,378.669z"/>
	<path fill="#B7E4DC" d="M98.992,382.061c0.234,0,0.473-0.057,0.693-0.177l0.102-0.056c0.705-0.384,0.967-1.266,0.582-1.971
		c-0.383-0.707-1.27-0.968-1.971-0.581l-0.102,0.056c-0.705,0.383-0.965,1.266-0.582,1.971
		C97.979,381.789,98.477,382.061,98.992,382.061z"/>
	<path fill="#B7E4DC" d="M61.627,402.421c0.234,0,0.473-0.056,0.693-0.177l0.102-0.056c0.705-0.384,0.965-1.267,0.582-1.971
		c-0.383-0.706-1.268-0.965-1.971-0.582l-0.102,0.056c-0.707,0.384-0.967,1.267-0.582,1.972
		C60.613,402.148,61.111,402.421,61.627,402.421z"/>
	<path fill="#B7E4DC" d="M92.764,385.456c0.236,0,0.475-0.057,0.693-0.177l0.104-0.056c0.705-0.385,0.965-1.267,0.58-1.972
		c-0.383-0.706-1.268-0.968-1.971-0.581l-0.102,0.056c-0.705,0.384-0.965,1.267-0.582,1.971
		C91.75,385.182,92.25,385.456,92.764,385.456z"/>
	<path fill="#B7E4DC" d="M74.082,395.635c0.234,0,0.473-0.057,0.693-0.178l0.104-0.055c0.703-0.384,0.963-1.266,0.58-1.972
		s-1.268-0.965-1.971-0.581l-0.104,0.056c-0.703,0.384-0.965,1.266-0.58,1.972C73.066,395.362,73.566,395.635,74.082,395.635z"/>
	<path fill="#B7E4DC" d="M86.537,388.849c0.234,0,0.473-0.057,0.693-0.177l0.102-0.056c0.705-0.385,0.967-1.267,0.582-1.972
		c-0.383-0.706-1.266-0.964-1.971-0.581l-0.104,0.056c-0.703,0.384-0.965,1.267-0.58,1.971
		C85.523,388.576,86.021,388.849,86.537,388.849z"/>
	<path fill="#B7E4DC" d="M80.309,392.242c0.236,0,0.475-0.057,0.693-0.178l0.104-0.055c0.705-0.384,0.965-1.266,0.58-1.972
		c-0.383-0.705-1.266-0.963-1.971-0.582l-0.102,0.057c-0.705,0.384-0.965,1.266-0.582,1.971
		C79.295,391.968,79.795,392.242,80.309,392.242z"/>
	<path fill="#B7E4DC" d="M450.254,392.009l0.102,0.055c0.221,0.121,0.459,0.178,0.695,0.178c0.514,0,1.012-0.273,1.277-0.759
		c0.383-0.705,0.123-1.587-0.582-1.971l-0.102-0.057c-0.705-0.385-1.59-0.124-1.973,0.582S449.549,391.625,450.254,392.009z"/>
	<path fill="#B7E4DC" d="M444.025,388.616l0.104,0.055c0.219,0.121,0.459,0.178,0.693,0.178c0.516,0,1.014-0.274,1.277-0.759
		c0.383-0.705,0.123-1.587-0.582-1.971l-0.102-0.057c-0.705-0.385-1.588-0.124-1.971,0.582
		C443.061,387.35,443.32,388.232,444.025,388.616z"/>
	<path fill="#B7E4DC" d="M456.48,395.403l0.104,0.055c0.219,0.121,0.457,0.178,0.693,0.178c0.516,0,1.014-0.273,1.277-0.758
		c0.383-0.706,0.123-1.588-0.582-1.972l-0.102-0.056c-0.705-0.385-1.59-0.126-1.971,0.581
		C455.516,394.137,455.775,395.019,456.48,395.403z"/>
	<path fill="#B7E4DC" d="M462.709,398.795l0.102,0.056c0.221,0.12,0.459,0.177,0.693,0.177c0.516,0,1.016-0.273,1.277-0.758
		c0.385-0.705,0.125-1.588-0.58-1.972l-0.104-0.056c-0.703-0.385-1.588-0.125-1.971,0.582
		C461.744,397.529,462.004,398.412,462.709,398.795z"/>
	<path fill="#B7E4DC" d="M468.936,402.189l0.104,0.056c0.221,0.121,0.459,0.177,0.693,0.177c0.516,0,1.014-0.273,1.277-0.758
		c0.385-0.705,0.123-1.588-0.582-1.972l-0.102-0.056c-0.703-0.385-1.588-0.124-1.971,0.582
		C467.971,400.922,468.232,401.805,468.936,402.189z"/>
	<path fill="#B7E4DC" d="M437.799,385.223l0.102,0.056c0.221,0.12,0.459,0.177,0.693,0.177c0.516,0,1.014-0.273,1.277-0.759
		c0.385-0.704,0.125-1.587-0.58-1.971l-0.104-0.056c-0.703-0.387-1.588-0.125-1.971,0.581
		C436.834,383.957,437.094,384.838,437.799,385.223z"/>
	<path fill="#B7E4DC" d="M475.164,405.583l0.102,0.056c0.221,0.121,0.459,0.177,0.695,0.177c0.516,0,1.014-0.273,1.275-0.758
		c0.385-0.705,0.125-1.588-0.58-1.972l-0.104-0.056c-0.703-0.385-1.588-0.124-1.971,0.582
		C474.199,404.316,474.459,405.199,475.164,405.583z"/>
	<path fill="#B7E4DC" d="M431.57,381.829l0.102,0.056c0.221,0.12,0.459,0.177,0.695,0.177c0.516,0,1.014-0.272,1.277-0.758
		c0.383-0.705,0.123-1.588-0.582-1.971l-0.102-0.056c-0.705-0.387-1.588-0.126-1.973,0.581
		C430.605,380.563,430.865,381.445,431.57,381.829z"/>
	<path fill="#B7E4DC" d="M419.115,375.042l0.102,0.056c0.221,0.121,0.459,0.178,0.693,0.178c0.518,0,1.016-0.274,1.277-0.759
		c0.385-0.705,0.125-1.587-0.58-1.971l-0.104-0.057c-0.703-0.385-1.588-0.124-1.971,0.582
		C418.15,373.777,418.41,374.66,419.115,375.042z"/>
	<path fill="#B7E4DC" d="M481.393,408.975l0.102,0.055c0.221,0.121,0.459,0.178,0.693,0.178c0.516,0,1.014-0.273,1.277-0.758
		c0.383-0.705,0.125-1.588-0.582-1.971l-0.102-0.057c-0.703-0.386-1.588-0.125-1.971,0.581S480.688,408.591,481.393,408.975z"/>
	<path fill="#B7E4DC" d="M425.344,378.436l0.102,0.056c0.221,0.121,0.459,0.178,0.693,0.178c0.516,0,1.014-0.274,1.277-0.759
		c0.385-0.705,0.125-1.587-0.582-1.971l-0.102-0.057c-0.705-0.385-1.586-0.124-1.971,0.582
		C424.379,377.17,424.639,378.053,425.344,378.436z"/>
	<path fill="#B7E4DC" d="M78.494,519.283c-1.975,0-3.582,1.609-3.582,3.586c0,1.978,1.607,3.586,3.582,3.586
		c1.979,0,3.586-1.608,3.586-3.586C82.08,520.892,80.473,519.283,78.494,519.283z"/>
	<path fill="#B7E4DC" d="M220.627,211.667c1.977,0,3.586-1.609,3.586-3.586c0-1.976-1.609-3.583-3.586-3.583
		c-1.975,0-3.584,1.607-3.584,3.583C217.043,210.057,218.652,211.667,220.627,211.667z"/>
	<path fill="#B7E4DC" d="M310.732,211.667c1.977,0,3.584-1.609,3.584-3.586c0-1.976-1.607-3.583-3.584-3.583
		s-3.584,1.607-3.584,3.583C307.148,210.057,308.756,211.667,310.732,211.667z"/>
	<path fill="#B7E4DC" d="M221.984,531.398c-1.977,0-3.584,1.608-3.584,3.585s1.607,3.586,3.584,3.586s3.584-1.609,3.584-3.586
		S223.961,531.398,221.984,531.398z"/>
	<path fill="#B7E4DC" d="M305.791,534.983c0,1.977,1.607,3.586,3.586,3.586c1.975,0,3.582-1.609,3.582-3.586
		s-1.607-3.585-3.582-3.585C307.398,531.398,305.791,533.006,305.791,534.983z"/>
	<path fill="#B7E4DC" d="M225.182,426.564c-1.977,0-3.586,1.608-3.586,3.584c0,1.977,1.609,3.585,3.586,3.585
		s3.584-1.608,3.584-3.585C228.766,428.172,227.158,426.564,225.182,426.564z"/>
	<path fill="#B7E4DC" d="M230.898,677.889c-1.979,0-3.586,1.608-3.586,3.585s1.607,3.586,3.586,3.586
		c1.975,0,3.582-1.609,3.582-3.586S232.873,677.889,230.898,677.889z"/>
	<path fill="#B7E4DC" d="M300.463,677.889c-1.977,0-3.586,1.608-3.586,3.585s1.609,3.586,3.586,3.586s3.584-1.609,3.584-3.586
		S302.439,677.889,300.463,677.889z"/>
	<path fill="#B7E4DC" d="M306.178,433.733c1.977,0,3.584-1.608,3.584-3.585c0-1.976-1.607-3.584-3.584-3.584
		s-3.584,1.608-3.584,3.584C302.594,432.125,304.201,433.733,306.178,433.733z"/>
	<path fill="#B7E4DC" d="M471.564,451.802c0-14.691-11.951-26.644-26.643-26.644s-26.646,11.952-26.646,26.644
		c0,14.692,11.955,26.646,26.646,26.646S471.564,466.495,471.564,451.802z M444.922,475.541c-1.734,0-3.42-0.198-5.049-0.552
		l28.232-28.233c0.354,1.629,0.553,3.314,0.553,5.047c0,0.062-0.008,0.12-0.008,0.182l-23.549,23.548
		C445.041,475.532,444.982,475.541,444.922,475.541z M436.707,474.044c-1.367-0.505-2.672-1.131-3.906-1.867l32.494-32.493
		c0.738,1.234,1.361,2.539,1.869,3.903L436.707,474.044z M421.184,451.802c0-13.089,10.648-23.736,23.738-23.736
		c7.6,0,14.357,3.603,18.705,9.175l-33.268,33.269C424.787,466.162,421.184,459.402,421.184,451.802z M449.684,475.061
		l18.494-18.496C466.281,465.841,458.959,473.165,449.684,475.061z"/>
	<path fill="#B7E4DC" d="M456.305,522.869c0-1.977-1.609-3.586-3.586-3.586c-1.975,0-3.582,1.609-3.582,3.586
		c0,1.978,1.607,3.586,3.582,3.586C454.695,526.455,456.305,524.846,456.305,522.869z"/>
	<path fill="#B7E4DC" d="M316.184,65.776c-0.086-0.184-0.17-0.37-0.258-0.553c-0.775-1.596-1.619-3.142-2.529-4.641
		c-0.02-0.037-0.045-0.073-0.066-0.111c-2.871-4.72-6.383-8.944-10.395-12.584c-0.002-0.003-0.006-0.006-0.012-0.01
		c-0.666-0.604-1.348-1.196-2.041-1.769c-0.01-0.01-0.021-0.019-0.033-0.027c-0.686-0.565-1.385-1.117-2.096-1.648
		c-0.08-0.061-0.164-0.117-0.242-0.178c-0.561-0.412-1.127-0.814-1.699-1.208c-0.248-0.17-0.498-0.338-0.748-0.504
		c-0.414-0.274-0.834-0.542-1.256-0.807c-0.299-0.187-0.598-0.378-0.9-0.562c-0.588-0.352-1.18-0.693-1.779-1.024
		c-0.455-0.252-0.916-0.49-1.379-0.729c-0.213-0.11-0.426-0.22-0.641-0.328c-0.496-0.249-0.998-0.494-1.506-0.73
		c-0.105-0.049-0.213-0.096-0.32-0.146c-1.703-0.78-3.451-1.478-5.238-2.091c-0.123-0.043-0.246-0.084-0.369-0.126
		c-1.709-0.572-3.453-1.064-5.227-1.476c-0.227-0.052-0.449-0.106-0.678-0.156c-0.484-0.105-0.973-0.204-1.465-0.298
		c-0.354-0.068-0.713-0.13-1.07-0.192c-0.426-0.073-0.85-0.148-1.277-0.213c-0.748-0.11-1.502-0.205-2.256-0.286
		c-0.299-0.033-0.6-0.057-0.9-0.083c-0.592-0.056-1.188-0.101-1.783-0.137c-0.277-0.016-0.555-0.033-0.832-0.046
		c-0.859-0.039-1.721-0.065-2.586-0.065c-31.451,0-57.037,25.587-57.037,57.037s25.586,57.036,57.037,57.036
		c0.865,0,1.727-0.026,2.586-0.066c0.277-0.013,0.555-0.029,0.832-0.045c0.596-0.036,1.189-0.082,1.781-0.137
		c0.301-0.027,0.604-0.051,0.904-0.083c0.754-0.081,1.506-0.177,2.254-0.287c0.428-0.063,0.854-0.14,1.279-0.213
		c0.355-0.062,0.713-0.123,1.068-0.19c0.492-0.095,0.98-0.193,1.469-0.3c0.223-0.049,0.443-0.103,0.666-0.155
		c1.779-0.411,3.527-0.904,5.24-1.478c0.119-0.04,0.238-0.081,0.357-0.122c1.797-0.616,3.555-1.318,5.268-2.104
		c0.096-0.045,0.193-0.088,0.289-0.132c0.514-0.238,1.02-0.484,1.525-0.739c0.205-0.103,0.408-0.209,0.611-0.313
		c0.471-0.243,0.939-0.486,1.402-0.742c0.594-0.328,1.182-0.667,1.766-1.015c0.314-0.189,0.621-0.388,0.932-0.583
		c0.41-0.257,0.816-0.516,1.219-0.782c0.26-0.171,0.518-0.346,0.771-0.52c0.561-0.385,1.113-0.778,1.66-1.181
		c0.092-0.069,0.188-0.135,0.279-0.202c0.705-0.528,1.398-1.075,2.078-1.636c0.021-0.018,0.043-0.036,0.064-0.055
		c0.682-0.562,1.35-1.142,2.004-1.734c0.014-0.013,0.027-0.025,0.041-0.037c3.998-3.631,7.5-7.844,10.365-12.549
		c0.033-0.051,0.064-0.103,0.094-0.153c0.902-1.488,1.74-3.023,2.51-4.606c0.098-0.201,0.189-0.403,0.283-0.605
		c0.158-0.333,0.32-0.663,0.471-1.001l-0.014-0.008c3.191-7.109,4.98-14.979,4.98-23.263c0-8.285-1.791-16.154-4.98-23.264
		l0.014-0.008C316.516,66.463,316.348,66.122,316.184,65.776z M264.602,35.955c1.002,0,2,0.032,2.994,0.088
		c0.25,0.014,0.498,0.04,0.748,0.057c0.756,0.053,1.512,0.112,2.262,0.196c0.25,0.028,0.496,0.064,0.744,0.096
		c0.764,0.097,1.525,0.203,2.279,0.331c0.207,0.035,0.412,0.074,0.617,0.11c0.814,0.147,1.623,0.312,2.426,0.496
		c0.143,0.033,0.287,0.065,0.428,0.099c0.902,0.215,1.795,0.45,2.682,0.71c0.043,0.013,0.086,0.023,0.129,0.036
		c3.852,1.14,7.549,2.704,11.027,4.645c0.125,0.07,0.248,0.144,0.371,0.214c0.688,0.391,1.367,0.797,2.037,1.219
		c0.232,0.145,0.461,0.294,0.689,0.442c0.547,0.354,1.086,0.721,1.617,1.095c0.291,0.204,0.586,0.408,0.871,0.62
		c0.447,0.325,0.883,0.664,1.32,1.003c0.336,0.264,0.678,0.521,1.006,0.792c0.338,0.275,0.664,0.564,0.994,0.847
		c1.561,1.343,3.047,2.769,4.445,4.277c0.148,0.16,0.301,0.317,0.449,0.479c0.438,0.484,0.861,0.98,1.283,1.481
		c0.176,0.21,0.355,0.42,0.529,0.633c0.172,0.211,0.334,0.427,0.502,0.639c-7.211-5.46-16.084-8.523-25.381-8.523
		c-19.668,0-36.221,13.578-40.791,31.853h-29.432C216.232,54.9,238.24,35.955,264.602,35.955z M239.66,88.632h-29.152
		c0.055-1.975,0.209-3.922,0.469-5.838h29.293C239.936,84.701,239.729,86.649,239.66,88.632z M210.508,91.54h29.152
		c0.068,1.983,0.275,3.931,0.609,5.836h-29.293C210.717,95.459,210.563,93.512,210.508,91.54z M211.449,100.282h29.432
		c4.568,18.273,21.123,31.851,40.791,31.851c9.299,0,18.174-3.063,25.383-8.523c-0.166,0.21-0.328,0.423-0.496,0.631
		c-0.182,0.222-0.365,0.438-0.549,0.657c-0.416,0.493-0.834,0.983-1.266,1.462c-0.156,0.171-0.318,0.338-0.477,0.507
		c-1.387,1.495-2.861,2.908-4.406,4.238c-0.338,0.29-0.67,0.584-1.012,0.864c-0.328,0.27-0.666,0.526-1.002,0.787
		c-0.438,0.341-0.875,0.681-1.324,1.008c-0.285,0.211-0.578,0.413-0.869,0.618c-0.533,0.375-1.07,0.741-1.617,1.096
		c-0.23,0.148-0.459,0.298-0.691,0.442c-0.668,0.42-1.344,0.825-2.031,1.216c-0.125,0.072-0.25,0.146-0.377,0.217
		c-3.479,1.94-7.174,3.503-11.023,4.644c-0.045,0.014-0.092,0.025-0.137,0.038c-0.885,0.26-1.777,0.493-2.676,0.709
		c-0.143,0.033-0.287,0.065-0.43,0.099c-0.801,0.184-1.609,0.347-2.422,0.495c-0.207,0.037-0.414,0.076-0.621,0.112
		c-0.756,0.127-1.516,0.233-2.279,0.33c-0.248,0.031-0.494,0.067-0.744,0.095c-0.75,0.085-1.506,0.145-2.264,0.197
		c-0.248,0.019-0.496,0.043-0.746,0.057c-0.994,0.055-1.992,0.088-2.994,0.088C238.24,144.215,216.232,125.269,211.449,100.282z
		 M314.037,112.093c-7.311,10.729-19.393,17.132-32.365,17.132c-21.582,0-39.141-17.558-39.141-39.14
		c0-21.583,17.559-39.144,39.141-39.144c12.971,0,25.053,6.402,32.363,17.132c3.01,6.73,4.697,14.176,4.697,22.012
		C318.732,97.92,317.045,105.365,314.037,112.093z"/>
</g>
</svg>
